<svg width="1000" height="760" viewBox="0 0 1000 760" fill="none" xmlns="http://www.w3.org/2000/svg">
  <defs>
    <linearGradient id="bg" x1="0" x2="1" y1="0" y2="1">
      <stop stop-color="#F8FAFC"/>
      <stop offset="1" stop-color="#F1F5F9"/>
    </linearGradient>
    <filter id="shadow" x="-5%" y="-5%" width="110%" height="110%">
      <feDropShadow dx="0" dy="4" stdDeviation="12" flood-color="#000" flood-opacity="0.05"/>
    </filter>
    <linearGradient id="lineGrad" x1="0" y1="0" x2="0" y2="1">
      <stop stop-color="#10B981" stop-opacity="0.2"/>
      <stop offset="1" stop-color="#10B981" stop-opacity="0"/>
    </linearGradient>
  </defs>
  <style>
    .title { font: 800 36px -apple-system, BlinkMacSystemFont, "Segoe UI", Roboto, sans-serif; fill: #0F172A; }
    .subtitle { font: 600 14px -apple-system, sans-serif; fill: #64748B; letter-spacing: 0.02em; }
    .label { font: 700 11px -apple-system, sans-serif; letter-spacing: 0.08em; text-transform: uppercase; fill: #94A3B8; }
    .total-val { font: 800 52px -apple-system, sans-serif; fill: #0F172A; }
    .stat-val { font: 700 24px -apple-system, sans-serif; fill: #1E293B; }
    .tool-name { font: 700 18px -apple-system, sans-serif; fill: #0F172A; }
    .tool-metric { font: 800 22px -apple-system, sans-serif; fill: #0F172A; }
    .tool-muted { font: 500 14px -apple-system, sans-serif; fill: #64748B; }
    .model-item { font: 600 12px -apple-system, sans-serif; fill: #475569; }
    .chart-label { font: 600 11px -apple-system, sans-serif; fill: #94A3B8; }
    .badge { font: 700 10px -apple-system, sans-serif; fill: #10B981; }
  </style>

  <rect width="1000" height="760" rx="32" fill="url(#bg)"/>
  
  <text x="40" y="75" class="title">Burn Rate</text>
  <text x="40" y="105" class="subtitle">AI Engineering &amp; Intelligence Volume Statistics / Updated 2026-05-01 02:07 UTC</text>

  <!-- Key Metrics Row -->
  <g transform="translate(40, 150)">
    <g transform="translate(15, 0)">
      <text y="0" class="label">Total Intelligence Volume</text>
      <text y="50" class="total-val">3.536B Tokens</text>
      <text x="5" y="78" class="badge" font-size="16">+178.3M today</text>
    </g>
    <g transform="translate(440, 0)">
      <text y="0" class="label">Historical Cost</text>
      <text y="42" class="stat-val">$2,515.35</text>
      <text y="62" class="tool-muted">Across 19 active production days</text>
    </g>
    <g transform="translate(720, 0)">
      <text y="0" class="label">Main Architecture</text>
      <text y="42" class="stat-val" fill="#10B981">gpt-5.5</text>
      <text y="62" class="tool-muted">Dominant LLM backend</text>
    </g>
  </g>

  <g transform="translate(40, 260)">
    <text y="0" class="label">Tooling &amp; Model Efficiency Breakdown</text>
  </g>
  
      <g transform="translate(40, 280)">
        <rect width="440" height="90" rx="16" fill="white" stroke="#F1F5F9" stroke-width="2"/>
        <circle cx="24" cy="24" r="8" fill="#10A37F"/>
        <text x="45" y="29" class="tool-name">Codex</text>
        <text x="45" y="55" class="tool-metric">3.001B tokens</text>
        <text x="45" y="78" class="tool-muted">spent $2,019.32</text>
        <g transform="translate(240, 20)">
          
            <text x="0" y="0" class="model-item">gpt-5.5</text>
            <text x="160" y="0" class="model-item" text-anchor="end">2.735B</text>
          
            <text x="0" y="20" class="model-item">gpt-5.4</text>
            <text x="160" y="20" class="model-item" text-anchor="end">209.52M</text>
          
            <text x="0" y="40" class="model-item">gpt-5.3-codex</text>
            <text x="160" y="40" class="model-item" text-anchor="end">56.43M</text>
          
        </g>
      </g>
    
      <g transform="translate(500, 280)">
        <rect width="440" height="90" rx="16" fill="white" stroke="#F1F5F9" stroke-width="2"/>
        <circle cx="24" cy="24" r="8" fill="#6E56CF"/>
        <text x="45" y="29" class="tool-name">Claude Code</text>
        <text x="45" y="55" class="tool-metric">535.19M tokens</text>
        <text x="45" y="78" class="tool-muted">spent $496.03</text>
        <g transform="translate(240, 20)">
          
            <text x="0" y="0" class="model-item">claude-opus-4-7</text>
            <text x="160" y="0" class="model-item" text-anchor="end">535.19M</text>
          
        </g>
      </g>
    

  <g transform="translate(40, 470)">
    <text y="0" class="label">Intelligence Throughput &amp; Growth Curve (Tokens)</text>
    <g transform="translate(920, 0)" text-anchor="end">
      <text x="0" y="0" class="badge">● CUMULATIVE VOLUME</text>
      <text x="-150" y="0" class="badge" fill="#94A3B8">■ DAILY THROUGHPUT</text>
    </g>
  </g>
  
    <g>
      <line x1="40" y1="720" x2="910" y2="720" stroke="#E2E8F0" stroke-width="1"/><text x="925" y="724" class="chart-label">0</text><line x1="40" y1="665" x2="910" y2="665" stroke="#E2E8F0" stroke-width="1"/><text x="925" y="669" class="chart-label">884.09M</text><line x1="40" y1="610" x2="910" y2="610" stroke="#E2E8F0" stroke-width="1"/><text x="925" y="614" class="chart-label">1.768B</text><line x1="40" y1="555" x2="910" y2="555" stroke="#E2E8F0" stroke-width="1"/><text x="925" y="559" class="chart-label">2.652B</text><line x1="40" y1="500" x2="910" y2="500" stroke="#E2E8F0" stroke-width="1"/><text x="925" y="504" class="chart-label">3.536B</text>
      <text x="40" y="744" text-anchor="middle" class="chart-label">02-21</text><text x="136.66666666666669" y="744" text-anchor="middle" class="chart-label">04-11</text><text x="233.33333333333334" y="744" text-anchor="middle" class="chart-label">04-14</text><text x="330" y="744" text-anchor="middle" class="chart-label">04-18</text><text x="426.6666666666667" y="744" text-anchor="middle" class="chart-label">04-20</text><text x="523.3333333333334" y="744" text-anchor="middle" class="chart-label">04-22</text><text x="620" y="744" text-anchor="middle" class="chart-label">04-24</text><text x="716.6666666666667" y="744" text-anchor="middle" class="chart-label">04-26</text><text x="813.3333333333334" y="744" text-anchor="middle" class="chart-label">04-28</text><text x="910" y="744" text-anchor="middle" class="chart-label">04-30</text>
      <g opacity="0.6"><rect x="38" y="718.8135645222746" width="4" height="1.1864354777253479" fill="#94A3B8" rx="2"/><rect x="86.33333333333334" y="716.4308397036328" width="4" height="3.5691602963672056" fill="#94A3B8" rx="2"/><rect x="134.66666666666669" y="709.8017534016454" width="4" height="10.198246598354547" fill="#94A3B8" rx="2"/><rect x="183" y="716.7496323784485" width="4" height="3.250367621551473" fill="#94A3B8" rx="2"/><rect x="231.33333333333334" y="718.734394713889" width="4" height="1.2656052861110845" fill="#94A3B8" rx="2"/><rect x="279.6666666666667" y="718.630312238236" width="4" height="1.3696877617639671" fill="#94A3B8" rx="2"/><rect x="328" y="719.774155681199" width="4" height="0.22584431880099914" fill="#94A3B8" rx="2"/><rect x="376.33333333333337" y="719.033944243276" width="4" height="0.9660557567240619" fill="#94A3B8" rx="2"/><rect x="424.6666666666667" y="713.3412439396744" width="4" height="6.658756060325569" fill="#94A3B8" rx="2"/><rect x="473" y="672.6383389112102" width="4" height="47.36166108878977" fill="#94A3B8" rx="2"/><rect x="521.3333333333334" y="693.1720325131089" width="4" height="26.827967486891147" fill="#94A3B8" rx="2"/><rect x="569.6666666666667" y="717.9136582452506" width="4" height="2.0863417547493923" fill="#94A3B8" rx="2"/><rect x="618" y="696.5520538878769" width="4" height="23.447946112123038" fill="#94A3B8" rx="2"/><rect x="666.3333333333334" y="675.686743387" width="4" height="44.313256612999986" fill="#94A3B8" rx="2"/><rect x="714.6666666666667" y="675.7591516099992" width="4" height="44.240848390000814" fill="#94A3B8" rx="2"/><rect x="763" y="632" width="4" height="88" fill="#94A3B8" rx="2"/><rect x="811.3333333333334" y="635.840969595849" width="4" height="84.15903040415103" fill="#94A3B8" rx="2"/><rect x="859.6666666666667" y="673.5881183816105" width="4" height="46.41188161838949" fill="#94A3B8" rx="2"/><rect x="908" y="696.8749966635731" width="4" height="23.12500333642687" fill="#94A3B8" rx="2"/></g>
      <path d="M 40,719.4309216540253 C 64.16666666666667,719.4309216540253 64.16666666666667,717.7189601726732 88.33333333333334,717.7189601726732 C 112.50000000000001,717.7189601726732 112.50000000000001,712.8273319172868 136.66666666666669,712.8273319172868 C 160.83333333333334,712.8273319172868 160.83333333333334,711.2682805701131 185,711.2682805701131 C 209.16666666666669,711.2682805701131 209.16666666666669,710.6612281206551 233.33333333333334,710.6612281206551 C 257.5,710.6612281206551 257.5,710.0042521109181 281.6666666666667,710.0042521109181 C 305.83333333333337,710.0042521109181 305.83333333333337,709.8959250136558 330,709.8959250136558 C 354.1666666666667,709.8959250136558 354.1666666666667,709.432552649564 378.33333333333337,709.432552649564 C 402.5,709.432552649564 402.5,706.2386546616815 426.6666666666667,706.2386546616815 C 450.83333333333337,706.2386546616815 450.83333333333337,683.5214515258663 475,683.5214515258663 C 499.1666666666667,683.5214515258663 499.1666666666667,670.6533136035456 523.3333333333334,670.6533136035456 C 547.5,670.6533136035456 547.5,669.6525917461656 571.6666666666667,669.6525917461656 C 595.8333333333334,669.6525917461656 595.8333333333334,658.4056940930589 620,658.4056940930589 C 644.1666666666667,658.4056940930589 644.1666666666667,637.150669903772 668.3333333333334,637.150669903772 C 692.5,637.150669903772 692.5,615.9303765974983 716.6666666666667,615.9303765974983 C 740.8333333333334,615.9303765974983 740.8333333333334,573.7208377005417 765,573.7208377005417 C 789.1666666666667,573.7208377005417 789.1666666666667,533.353634662199 813.3333333333334,533.353634662199 C 837.5,533.353634662199 837.5,511.0919969070586 861.6666666666667,511.0919969070586 C 885.8333333333334,511.0919969070586 885.8333333333334,500 910,500 L 910,720 L 40,720 Z" fill="url(#lineGrad)"/>
      <path d="M 40,720 C 64.16666666666667,720 64.16666666666667,720 88.33333333333334,720 C 112.50000000000001,720 112.50000000000001,720 136.66666666666669,720 C 160.83333333333334,720 160.83333333333334,720 185,720 C 209.16666666666669,720 209.16666666666669,720 233.33333333333334,720 C 257.5,720 257.5,720 281.6666666666667,720 C 305.83333333333337,720 305.83333333333337,720 330,720 C 354.1666666666667,720 354.1666666666667,720 378.33333333333337,720 C 402.5,720 402.5,720 426.6666666666667,720 C 450.83333333333337,720 450.83333333333337,699.5735175176726 475,699.5735175176726 C 499.1666666666667,699.5735175176726 499.1666666666667,686.7053795953519 523.3333333333334,686.7053795953519 C 547.5,686.7053795953519 547.5,686.7053795953519 571.6666666666667,686.7053795953519 C 595.8333333333334,686.7053795953519 595.8333333333334,686.7053795953519 620,686.7053795953519 C 644.1666666666667,686.7053795953519 644.1666666666667,686.7053795953519 668.3333333333334,686.7053795953519 C 692.5,686.7053795953519 692.5,686.7053795953519 716.6666666666667,686.7053795953519 C 740.8333333333334,686.7053795953519 740.8333333333334,686.7053795953519 765,686.7053795953519 C 789.1666666666667,686.7053795953519 789.1666666666667,686.7053795953519 813.3333333333334,686.7053795953519 C 837.5,686.7053795953519 837.5,686.7053795953519 861.6666666666667,686.7053795953519 C 885.8333333333334,686.7053795953519 885.8333333333334,686.7053795953519 910,686.7053795953519" stroke="#6E56CF" stroke-width="1.5" stroke-opacity="0.6" fill="none" stroke-linecap="round" stroke-linejoin="round" stroke-dasharray="4 2"/><path d="M 40,719.4309216540253 C 64.16666666666667,719.4309216540253 64.16666666666667,717.7189601726732 88.33333333333334,717.7189601726732 C 112.50000000000001,717.7189601726732 112.50000000000001,712.8273319172868 136.66666666666669,712.8273319172868 C 160.83333333333334,712.8273319172868 160.83333333333334,711.2682805701131 185,711.2682805701131 C 209.16666666666669,711.2682805701131 209.16666666666669,710.6612281206551 233.33333333333334,710.6612281206551 C 257.5,710.6612281206551 257.5,710.0042521109181 281.6666666666667,710.0042521109181 C 305.83333333333337,710.0042521109181 305.83333333333337,709.8959250136558 330,709.8959250136558 C 354.1666666666667,709.8959250136558 354.1666666666667,709.432552649564 378.33333333333337,709.432552649564 C 402.5,709.432552649564 402.5,706.2386546616815 426.6666666666667,706.2386546616815 C 450.83333333333337,706.2386546616815 450.83333333333337,703.9479340081937 475,703.9479340081937 C 499.1666666666667,703.9479340081937 499.1666666666667,703.9479340081937 523.3333333333334,703.9479340081937 C 547.5,703.9479340081937 547.5,702.9472121508137 571.6666666666667,702.9472121508137 C 595.8333333333334,702.9472121508137 595.8333333333334,691.7003144977069 620,691.7003144977069 C 644.1666666666667,691.7003144977069 644.1666666666667,670.4452903084201 668.3333333333334,670.4452903084201 C 692.5,670.4452903084201 692.5,649.2249970021462 716.6666666666667,649.2249970021462 C 740.8333333333334,649.2249970021462 740.8333333333334,607.0154581051897 765,607.0154581051897 C 789.1666666666667,607.0154581051897 789.1666666666667,566.648255066847 813.3333333333334,566.648255066847 C 837.5,566.648255066847 837.5,544.3866173117067 861.6666666666667,544.3866173117067 C 885.8333333333334,544.3866173117067 885.8333333333334,533.2946204046481 910,533.2946204046481" stroke="#10A37F" stroke-width="1.5" stroke-opacity="0.6" fill="none" stroke-linecap="round" stroke-linejoin="round" stroke-dasharray="4 2"/>
      <path d="M 40,719.4309216540253 C 64.16666666666667,719.4309216540253 64.16666666666667,717.7189601726732 88.33333333333334,717.7189601726732 C 112.50000000000001,717.7189601726732 112.50000000000001,712.8273319172868 136.66666666666669,712.8273319172868 C 160.83333333333334,712.8273319172868 160.83333333333334,711.2682805701131 185,711.2682805701131 C 209.16666666666669,711.2682805701131 209.16666666666669,710.6612281206551 233.33333333333334,710.6612281206551 C 257.5,710.6612281206551 257.5,710.0042521109181 281.6666666666667,710.0042521109181 C 305.83333333333337,710.0042521109181 305.83333333333337,709.8959250136558 330,709.8959250136558 C 354.1666666666667,709.8959250136558 354.1666666666667,709.432552649564 378.33333333333337,709.432552649564 C 402.5,709.432552649564 402.5,706.2386546616815 426.6666666666667,706.2386546616815 C 450.83333333333337,706.2386546616815 450.83333333333337,683.5214515258663 475,683.5214515258663 C 499.1666666666667,683.5214515258663 499.1666666666667,670.6533136035456 523.3333333333334,670.6533136035456 C 547.5,670.6533136035456 547.5,669.6525917461656 571.6666666666667,669.6525917461656 C 595.8333333333334,669.6525917461656 595.8333333333334,658.4056940930589 620,658.4056940930589 C 644.1666666666667,658.4056940930589 644.1666666666667,637.150669903772 668.3333333333334,637.150669903772 C 692.5,637.150669903772 692.5,615.9303765974983 716.6666666666667,615.9303765974983 C 740.8333333333334,615.9303765974983 740.8333333333334,573.7208377005417 765,573.7208377005417 C 789.1666666666667,573.7208377005417 789.1666666666667,533.353634662199 813.3333333333334,533.353634662199 C 837.5,533.353634662199 837.5,511.0919969070586 861.6666666666667,511.0919969070586 C 885.8333333333334,511.0919969070586 885.8333333333334,500 910,500" stroke="#10B981" stroke-width="4" fill="none" stroke-linecap="round" stroke-linejoin="round"/>
      <circle cx="910" cy="500" r="6" fill="#10B981" stroke="white" stroke-width="3"/>
    </g>
  
</svg>