<svg width="1000" height="760" viewBox="0 0 1000 760" fill="none" xmlns="http://www.w3.org/2000/svg">
  <defs>
    <linearGradient id="bg" x1="0" x2="1" y1="0" y2="1">
      <stop stop-color="#F8FAFC"/>
      <stop offset="1" stop-color="#F1F5F9"/>
    </linearGradient>
    <filter id="shadow" x="-5%" y="-5%" width="110%" height="110%">
      <feDropShadow dx="0" dy="4" stdDeviation="12" flood-color="#000" flood-opacity="0.05"/>
    </filter>
    <linearGradient id="lineGrad" x1="0" y1="0" x2="0" y2="1">
      <stop stop-color="#10B981" stop-opacity="0.2"/>
      <stop offset="1" stop-color="#10B981" stop-opacity="0"/>
    </linearGradient>
  </defs>
  <style>
    .title { font: 800 36px -apple-system, BlinkMacSystemFont, "Segoe UI", Roboto, sans-serif; fill: #0F172A; }
    .subtitle { font: 600 14px -apple-system, sans-serif; fill: #64748B; letter-spacing: 0.02em; }
    .label { font: 700 11px -apple-system, sans-serif; letter-spacing: 0.08em; text-transform: uppercase; fill: #94A3B8; }
    .total-val { font: 800 52px -apple-system, sans-serif; fill: #0F172A; }
    .stat-val { font: 700 24px -apple-system, sans-serif; fill: #1E293B; }
    .tool-name { font: 700 18px -apple-system, sans-serif; fill: #0F172A; }
    .tool-metric { font: 800 22px -apple-system, sans-serif; fill: #0F172A; }
    .tool-muted { font: 500 14px -apple-system, sans-serif; fill: #64748B; }
    .model-item { font: 600 12px -apple-system, sans-serif; fill: #475569; }
    .chart-label { font: 600 11px -apple-system, sans-serif; fill: #94A3B8; }
    .badge { font: 700 10px -apple-system, sans-serif; fill: #10B981; }
  </style>

  <rect width="1000" height="760" rx="32" fill="url(#bg)"/>
  
  <text x="40" y="75" class="title">Burn Rate</text>
  <text x="40" y="105" class="subtitle">AI Engineering &amp; Intelligence Volume Statistics / Updated 2026-04-29 03:32 UTC</text>

  <!-- Key Metrics Row -->
  <g transform="translate(40, 150)">
    <g>
      <text y="0" class="label">Total Intelligence Volume</text>
      <text y="50" class="total-val">1.4B Tokens</text>
    </g>
    <g transform="translate(420, 0)">
      <text y="0" class="label">Historical Cost</text>
      <text y="42" class="stat-val">$1,023.79</text>
      <text y="62" class="tool-muted">Across 17 active production days</text>
    </g>
    <g transform="translate(700, 0)">
      <text y="0" class="label">Main Architecture</text>
      <text y="42" class="stat-val" fill="#10B981">gpt-5.5</text>
      <text y="62" class="tool-muted">Dominant LLM backend</text>
    </g>
  </g>

  <g transform="translate(40, 260)">
    <text y="0" class="label">Tooling &amp; Model Efficiency Breakdown</text>
  </g>
  
      <g transform="translate(40, 280)">
        <rect width="440" height="90" rx="16" fill="white" stroke="#F1F5F9" stroke-width="2"/>
        <circle cx="24" cy="24" r="8" fill="#10A37F"/>
        <text x="44" y="29" class="tool-name">Codex</text>
        <text x="24" y="55" class="tool-metric">1.2B tokens</text>
        <text x="24" y="78" class="tool-muted">spent $775.77</text>
        <g transform="translate(240, 20)">
          
            <text x="0" y="0" class="model-item">gpt-5.5</text>
            <text x="160" y="0" class="model-item" text-anchor="end">1B</text>
          
            <text x="0" y="20" class="model-item">gpt-5.4</text>
            <text x="160" y="20" class="model-item" text-anchor="end">113.3M</text>
          
            <text x="0" y="40" class="model-item">gpt-5.3-codex</text>
            <text x="160" y="40" class="model-item" text-anchor="end">56.4M</text>
          
        </g>
      </g>
    
      <g transform="translate(500, 280)">
        <rect width="440" height="90" rx="16" fill="white" stroke="#F1F5F9" stroke-width="2"/>
        <circle cx="24" cy="24" r="8" fill="#6E56CF"/>
        <text x="44" y="29" class="tool-name">Claude Code</text>
        <text x="24" y="55" class="tool-metric">267.6M tokens</text>
        <text x="24" y="78" class="tool-muted">spent $248.02</text>
        <g transform="translate(240, 20)">
          
            <text x="0" y="0" class="model-item">claude-opus-4-7</text>
            <text x="160" y="0" class="model-item" text-anchor="end">267.6M</text>
          
        </g>
      </g>
    

  <g transform="translate(40, 470)">
    <text y="0" class="label">Intelligence Throughput &amp; Growth Curve (Tokens)</text>
    <g transform="translate(920, 0)" text-anchor="end">
      <text x="0" y="0" class="badge">● CUMULATIVE VOLUME</text>
      <text x="-150" y="0" class="badge" fill="#94A3B8">■ DAILY THROUGHPUT</text>
    </g>
  </g>
  
    <g>
      <line x1="40" y1="720" x2="910" y2="720" stroke="#E2E8F0" stroke-width="1"/><text x="915" y="724" class="chart-label">0</text><line x1="40" y1="665" x2="910" y2="665" stroke="#E2E8F0" stroke-width="1"/><text x="915" y="669" class="chart-label">362.2M</text><line x1="40" y1="610" x2="910" y2="610" stroke="#E2E8F0" stroke-width="1"/><text x="915" y="614" class="chart-label">724.5M</text><line x1="40" y1="555" x2="910" y2="555" stroke="#E2E8F0" stroke-width="1"/><text x="915" y="559" class="chart-label">1.1B</text><line x1="40" y1="500" x2="910" y2="500" stroke="#E2E8F0" stroke-width="1"/><text x="915" y="504" class="chart-label">1.4B</text>
      <text x="40" y="744" text-anchor="middle" class="chart-label">02-21</text><text x="148.75" y="744" text-anchor="middle" class="chart-label">04-11</text><text x="257.5" y="744" text-anchor="middle" class="chart-label">04-14</text><text x="366.25" y="744" text-anchor="middle" class="chart-label">04-18</text><text x="475" y="744" text-anchor="middle" class="chart-label">04-20</text><text x="583.75" y="744" text-anchor="middle" class="chart-label">04-22</text><text x="692.5" y="744" text-anchor="middle" class="chart-label">04-24</text><text x="801.25" y="744" text-anchor="middle" class="chart-label">04-26</text><text x="910" y="744" text-anchor="middle" class="chart-label">04-28</text>
      <g opacity="0.6"><rect x="38" y="717.6271290445493" width="4" height="2.3728709554506957" fill="#94A3B8" rx="2"/><rect x="92.375" y="712.8616794072656" width="4" height="7.138320592734411" fill="#94A3B8" rx="2"/><rect x="146.75" y="709.8017534016454" width="4" height="10.198246598354547" fill="#94A3B8" rx="2"/><rect x="201.125" y="716.7496323784485" width="4" height="3.250367621551473" fill="#94A3B8" rx="2"/><rect x="255.5" y="717.4687894277778" width="4" height="2.531210572222169" fill="#94A3B8" rx="2"/><rect x="309.875" y="718.3606904380183" width="4" height="1.6393095619817353" fill="#94A3B8" rx="2"/><rect x="364.25" y="719.548311362398" width="4" height="0.4516886376019983" fill="#94A3B8" rx="2"/><rect x="418.625" y="718.0678884865519" width="4" height="1.9321115134481237" fill="#94A3B8" rx="2"/><rect x="473" y="712.8009611927843" width="4" height="7.199038807215698" fill="#94A3B8" rx="2"/><rect x="527.375" y="672.1658487975939" width="4" height="47.83415120240609" fill="#94A3B8" rx="2"/><rect x="581.75" y="693.1720325131089" width="4" height="26.827967486891147" fill="#94A3B8" rx="2"/><rect x="636.125" y="715.8273164905012" width="4" height="4.172683509498785" fill="#94A3B8" rx="2"/><rect x="690.5" y="696.1286851039328" width="4" height="23.87131489606721" fill="#94A3B8" rx="2"/><rect x="744.875" y="675.686743387" width="4" height="44.313256612999986" fill="#94A3B8" rx="2"/><rect x="799.25" y="675.7591516099992" width="4" height="44.240848390000814" fill="#94A3B8" rx="2"/><rect x="853.625" y="632" width="4" height="88" fill="#94A3B8" rx="2"/><rect x="908" y="660.1315043422687" width="4" height="59.868495657731245" fill="#94A3B8" rx="2"/></g>
      <path d="M 40,718.611033963098 C 67.1875,718.611033963098 67.1875,714.4325998847294 94.375,714.4325998847294 C 121.5625,714.4325998847294 121.5625,708.4630303518697 148.75,708.4630303518697 C 175.9375,708.4630303518697 175.9375,706.5604194140898 203.125,706.5604194140898 C 230.3125,706.5604194140898 230.3125,705.0787688805924 257.5,705.0787688805924 C 284.6875,705.0787688805924 284.6875,704.1191948673782 311.875,704.1191948673782 C 339.0625,704.1191948673782 339.0625,703.8547977768231 366.25,703.8547977768231 C 393.4375,703.8547977768231 393.4375,702.7238313980902 420.625,702.7238313980902 C 447.8125,702.7238313980902 447.8125,698.509855758752 475,698.509855758752 C 502.1875,698.509855758752 502.1875,670.5100139335744 529.375,670.5100139335744 C 556.5625,670.5100139335744 556.5625,654.8061950668946 583.75,654.8061950668946 C 610.9375,654.8061950668946 610.9375,652.3637041829628 638.125,652.3637041829628 C 665.3125,652.3637041829628 665.3125,638.390569415281 692.5,638.390569415281 C 719.6875,638.390569415281 719.6875,612.4516921752038 746.875,612.4516921752038 C 774.0625,612.4516921752038 774.0625,586.555199272255 801.25,586.555199272255 C 828.4375,586.555199272255 828.4375,535.0441758992367 855.625,535.0441758992367 C 882.8125,535.0441758992367 882.8125,500 910,500 L 910,720 L 40,720 Z" fill="url(#lineGrad)"/>
      <path d="M 40,720 C 67.1875,720 67.1875,720 94.375,720 C 121.5625,720 121.5625,720 148.75,720 C 175.9375,720 175.9375,720 203.125,720 C 230.3125,720 230.3125,720 257.5,720 C 284.6875,720 284.6875,720 311.875,720 C 339.0625,720 339.0625,720 366.25,720 C 393.4375,720 393.4375,720 420.625,720 C 447.8125,720 447.8125,720 475,720 C 502.1875,720 502.1875,695.0722456565006 529.375,695.0722456565006 C 556.5625,695.0722456565006 556.5625,679.3684267898208 583.75,679.3684267898208 C 610.9375,679.3684267898208 610.9375,679.3684267898208 638.125,679.3684267898208 C 665.3125,679.3684267898208 665.3125,679.3684267898208 692.5,679.3684267898208 C 719.6875,679.3684267898208 719.6875,679.3684267898208 746.875,679.3684267898208 C 774.0625,679.3684267898208 774.0625,679.3684267898208 801.25,679.3684267898208 C 828.4375,679.3684267898208 828.4375,679.3684267898208 855.625,679.3684267898208 C 882.8125,679.3684267898208 882.8125,679.3684267898208 910,679.3684267898208" stroke="#6E56CF" stroke-width="1.5" stroke-opacity="0.6" fill="none" stroke-linecap="round" stroke-linejoin="round" stroke-dasharray="4 2"/><path d="M 40,718.611033963098 C 67.1875,718.611033963098 67.1875,714.4325998847294 94.375,714.4325998847294 C 121.5625,714.4325998847294 121.5625,708.4630303518697 148.75,708.4630303518697 C 175.9375,708.4630303518697 175.9375,706.5604194140898 203.125,706.5604194140898 C 230.3125,706.5604194140898 230.3125,705.0787688805924 257.5,705.0787688805924 C 284.6875,705.0787688805924 284.6875,704.1191948673782 311.875,704.1191948673782 C 339.0625,704.1191948673782 339.0625,703.8547977768231 366.25,703.8547977768231 C 393.4375,703.8547977768231 393.4375,702.7238313980902 420.625,702.7238313980902 C 447.8125,702.7238313980902 447.8125,698.509855758752 475,698.509855758752 C 502.1875,698.509855758752 502.1875,695.4377682770738 529.375,695.4377682770738 C 556.5625,695.4377682770738 556.5625,695.4377682770738 583.75,695.4377682770738 C 610.9375,695.4377682770738 610.9375,692.995277393142 638.125,692.995277393142 C 665.3125,692.995277393142 665.3125,679.0221426254602 692.5,679.0221426254602 C 719.6875,679.0221426254602 719.6875,653.083265385383 746.875,653.083265385383 C 774.0625,653.083265385383 774.0625,627.1867724824342 801.25,627.1867724824342 C 828.4375,627.1867724824342 828.4375,575.675749109416 855.625,575.675749109416 C 882.8125,575.675749109416 882.8125,540.6315732101792 910,540.6315732101792" stroke="#10A37F" stroke-width="1.5" stroke-opacity="0.6" fill="none" stroke-linecap="round" stroke-linejoin="round" stroke-dasharray="4 2"/>
      <path d="M 40,718.611033963098 C 67.1875,718.611033963098 67.1875,714.4325998847294 94.375,714.4325998847294 C 121.5625,714.4325998847294 121.5625,708.4630303518697 148.75,708.4630303518697 C 175.9375,708.4630303518697 175.9375,706.5604194140898 203.125,706.5604194140898 C 230.3125,706.5604194140898 230.3125,705.0787688805924 257.5,705.0787688805924 C 284.6875,705.0787688805924 284.6875,704.1191948673782 311.875,704.1191948673782 C 339.0625,704.1191948673782 339.0625,703.8547977768231 366.25,703.8547977768231 C 393.4375,703.8547977768231 393.4375,702.7238313980902 420.625,702.7238313980902 C 447.8125,702.7238313980902 447.8125,698.509855758752 475,698.509855758752 C 502.1875,698.509855758752 502.1875,670.5100139335744 529.375,670.5100139335744 C 556.5625,670.5100139335744 556.5625,654.8061950668946 583.75,654.8061950668946 C 610.9375,654.8061950668946 610.9375,652.3637041829628 638.125,652.3637041829628 C 665.3125,652.3637041829628 665.3125,638.390569415281 692.5,638.390569415281 C 719.6875,638.390569415281 719.6875,612.4516921752038 746.875,612.4516921752038 C 774.0625,612.4516921752038 774.0625,586.555199272255 801.25,586.555199272255 C 828.4375,586.555199272255 828.4375,535.0441758992367 855.625,535.0441758992367 C 882.8125,535.0441758992367 882.8125,500 910,500" stroke="#10B981" stroke-width="4" fill="none" stroke-linecap="round" stroke-linejoin="round"/>
      <circle cx="910" cy="500" r="6" fill="#10B981" stroke="white" stroke-width="3"/>
    </g>
  
</svg>