<svg width="1000" height="760" viewBox="0 0 1000 760" fill="none" xmlns="http://www.w3.org/2000/svg">
  <defs>
    <linearGradient id="bg" x1="0" x2="1" y1="0" y2="1">
      <stop stop-color="#F8FAFC"/>
      <stop offset="1" stop-color="#F1F5F9"/>
    </linearGradient>
    <filter id="shadow" x="-5%" y="-5%" width="110%" height="110%">
      <feDropShadow dx="0" dy="4" stdDeviation="12" flood-color="#000" flood-opacity="0.05"/>
    </filter>
    <linearGradient id="lineGrad" x1="0" y1="0" x2="0" y2="1">
      <stop stop-color="#10B981" stop-opacity="0.2"/>
      <stop offset="1" stop-color="#10B981" stop-opacity="0"/>
    </linearGradient>
  </defs>
  <style>
    .title { font: 800 36px -apple-system, BlinkMacSystemFont, "Segoe UI", Roboto, sans-serif; fill: #0F172A; }
    .subtitle { font: 600 14px -apple-system, sans-serif; fill: #64748B; letter-spacing: 0.02em; }
    .label { font: 700 11px -apple-system, sans-serif; letter-spacing: 0.08em; text-transform: uppercase; fill: #94A3B8; }
    .total-val { font: 800 52px -apple-system, sans-serif; fill: #0F172A; }
    .stat-val { font: 700 24px -apple-system, sans-serif; fill: #1E293B; }
    .tool-name { font: 700 18px -apple-system, sans-serif; fill: #0F172A; }
    .tool-metric { font: 800 22px -apple-system, sans-serif; fill: #0F172A; }
    .tool-muted { font: 500 14px -apple-system, sans-serif; fill: #64748B; }
    .model-item { font: 600 12px -apple-system, sans-serif; fill: #475569; }
    .chart-label { font: 600 11px -apple-system, sans-serif; fill: #94A3B8; }
    .badge { font: 700 10px -apple-system, sans-serif; fill: #10B981; }
  </style>

  <rect width="1000" height="760" rx="32" fill="url(#bg)"/>
  
  <text x="40" y="75" class="title">Burn Rate</text>
  <text x="40" y="105" class="subtitle">AI Engineering &amp; Intelligence Volume Statistics / Updated 2026-05-06 05:19 UTC</text>

  <!-- Key Metrics Row -->
  <g transform="translate(40, 150)">
    <g transform="translate(15, 0)">
      <text y="0" class="label">Total Intelligence Volume</text>
      <text y="50" class="total-val">9.909B Tokens</text>
      <text x="5" y="78" class="badge" font-size="16">+413.86M today</text>
    </g>
    <g transform="translate(440, 0)">
      <text y="0" class="label">Historical Cost</text>
      <text y="42" class="stat-val">$6,860.25</text>
      <text y="62" class="tool-muted">Across 24 active production days</text>
    </g>
    <g transform="translate(720, 0)">
      <text y="0" class="label">Main Architecture</text>
      <text y="42" class="stat-val" fill="#10B981">gpt-5.5</text>
      <text y="62" class="tool-muted">Dominant LLM backend</text>
    </g>
  </g>

  <g transform="translate(40, 260)">
    <text y="0" class="label">Tooling &amp; Model Efficiency Breakdown</text>
  </g>
  
      <g transform="translate(40, 280)">
        <rect width="440" height="90" rx="16" fill="white" stroke="#F1F5F9" stroke-width="2"/>
        <circle cx="24" cy="24" r="8" fill="#10A37F"/>
        <text x="45" y="29" class="tool-name">Codex</text>
        <text x="45" y="55" class="tool-metric">9.106B tokens</text>
        <text x="45" y="78" class="tool-muted">spent $6,116.20</text>
        <g transform="translate(240, 20)">
          
            <text x="0" y="0" class="model-item">gpt-5.5</text>
            <text x="160" y="0" class="model-item" text-anchor="end">8.67B</text>
          
            <text x="0" y="20" class="model-item">gpt-5.4</text>
            <text x="160" y="20" class="model-item" text-anchor="end">305.79M</text>
          
            <text x="0" y="40" class="model-item">gpt-5.3-codex</text>
            <text x="160" y="40" class="model-item" text-anchor="end">92.9M</text>
          
        </g>
      </g>
    
      <g transform="translate(500, 280)">
        <rect width="440" height="90" rx="16" fill="white" stroke="#F1F5F9" stroke-width="2"/>
        <circle cx="24" cy="24" r="8" fill="#6E56CF"/>
        <text x="45" y="29" class="tool-name">Claude Code</text>
        <text x="45" y="55" class="tool-metric">802.79M tokens</text>
        <text x="45" y="78" class="tool-muted">spent $744.05</text>
        <g transform="translate(240, 20)">
          
            <text x="0" y="0" class="model-item">claude-opus-4-7</text>
            <text x="160" y="0" class="model-item" text-anchor="end">802.79M</text>
          
        </g>
      </g>
    

  <g transform="translate(40, 470)">
    <text y="0" class="label">Intelligence Throughput &amp; Growth Curve (Tokens)</text>
    <g transform="translate(920, 0)" text-anchor="end">
      <text x="0" y="0" class="badge">● CUMULATIVE VOLUME</text>
      <text x="-150" y="0" class="badge" fill="#94A3B8">■ DAILY THROUGHPUT</text>
    </g>
  </g>
  
    <g>
      <line x1="40" y1="720" x2="910" y2="720" stroke="#E2E8F0" stroke-width="1"/><text x="925" y="724" class="chart-label">0</text><line x1="40" y1="665" x2="910" y2="665" stroke="#E2E8F0" stroke-width="1"/><text x="925" y="669" class="chart-label">2.477B</text><line x1="40" y1="610" x2="910" y2="610" stroke="#E2E8F0" stroke-width="1"/><text x="925" y="614" class="chart-label">4.955B</text><line x1="40" y1="555" x2="910" y2="555" stroke="#E2E8F0" stroke-width="1"/><text x="925" y="559" class="chart-label">7.432B</text><line x1="40" y1="500" x2="910" y2="500" stroke="#E2E8F0" stroke-width="1"/><text x="925" y="504" class="chart-label">9.909B</text>
      <text x="40" y="744" text-anchor="middle" class="chart-label">02-21</text><text x="153.47826086956522" y="744" text-anchor="middle" class="chart-label">04-12</text><text x="266.95652173913044" y="744" text-anchor="middle" class="chart-label">04-18</text><text x="380.4347826086957" y="744" text-anchor="middle" class="chart-label">04-21</text><text x="493.9130434782609" y="744" text-anchor="middle" class="chart-label">04-24</text><text x="607.3913043478261" y="744" text-anchor="middle" class="chart-label">04-27</text><text x="720.8695652173914" y="744" text-anchor="middle" class="chart-label">04-30</text><text x="834.3478260869566" y="744" text-anchor="middle" class="chart-label">05-03</text><text x="910.0000000000001" y="744" text-anchor="middle" class="chart-label">05-05</text>
      <g opacity="0.6"><rect x="38" y="719.2941193529521" width="4" height="0.7058806470479859" fill="#94A3B8" rx="2"/><rect x="75.82608695652175" y="717.876495412757" width="4" height="2.1235045872430396" fill="#94A3B8" rx="2"/><rect x="113.65217391304348" y="710.8986897609431" width="4" height="9.101310239056957" fill="#94A3B8" rx="2"/><rect x="151.47826086956522" y="717.0992460488749" width="4" height="2.9007539511251563" fill="#94A3B8" rx="2"/><rect x="189.30434782608697" y="719.2470165508029" width="4" height="0.7529834491971016" fill="#94A3B8" rx="2"/><rect x="227.13043478260872" y="718.857844572811" width="4" height="1.1421554271889363" fill="#94A3B8" rx="2"/><rect x="264.95652173913044" y="719.8656318553512" width="4" height="0.13436814464870997" fill="#94A3B8" rx="2"/><rect x="302.7826086956522" y="719.4252362851217" width="4" height="0.5747637148782839" fill="#94A3B8" rx="2"/><rect x="340.60869565217394" y="714.2181912831318" width="4" height="5.781808716868223" fill="#94A3B8" rx="2"/><rect x="378.4347826086957" y="677.8731755019702" width="4" height="42.1268244980298" fill="#94A3B8" rx="2"/><rect x="416.26086956521743" y="696.057682776476" width="4" height="23.942317223524043" fill="#94A3B8" rx="2"/><rect x="454.0869565217392" y="718.7587118764948" width="4" height="1.2412881235052327" fill="#94A3B8" rx="2"/><rect x="491.9130434782609" y="699.2000883249926" width="4" height="20.799911675007326" fill="#94A3B8" rx="2"/><rect x="529.7391304347826" y="680.4531335609272" width="4" height="39.546866439072744" fill="#94A3B8" rx="2"/><rect x="567.5652173913044" y="680.517753463478" width="4" height="39.48224653652199" fill="#94A3B8" rx="2"/><rect x="605.3913043478261" y="641.465391789385" width="4" height="78.53460821061508" fill="#94A3B8" rx="2"/><rect x="643.2173913043479" y="644.8932218161904" width="4" height="75.10677818380958" fill="#94A3B8" rx="2"/><rect x="681.0434782608696" y="678.5802393270719" width="4" height="41.41976067292802" fill="#94A3B8" rx="2"/><rect x="718.8695652173914" y="674.2554276880564" width="4" height="45.744572311943614" fill="#94A3B8" rx="2"/><rect x="756.6956521739131" y="667.5508632453065" width="4" height="52.449136754693555" fill="#94A3B8" rx="2"/><rect x="794.5217391304349" y="644.5759268439416" width="4" height="75.42407315605838" fill="#94A3B8" rx="2"/><rect x="832.3478260869566" y="634.3379444012102" width="4" height="85.66205559878985" fill="#94A3B8" rx="2"/><rect x="870.1739130434784" y="632" width="4" height="88" fill="#94A3B8" rx="2"/><rect x="908.0000000000001" y="688.0643090940933" width="4" height="31.935690905906654" fill="#94A3B8" rx="2"/></g>
      <path d="M 40,719.7969043861872 C 58.913043478260875,719.7969043861872 58.913043478260875,719.1859307472528 77.82608695652175,719.1859307472528 C 96.73913043478262,719.1859307472528 96.73913043478262,716.5673064837432 115.65217391304348,716.5673064837432 C 134.56521739130434,716.5673064837432 134.56521739130434,715.7327030607887 153.47826086956522,715.7327030607887 C 172.3913043478261,715.7327030607887 172.3913043478261,715.5160550531615 191.30434782608697,715.5160550531615 C 210.21739130434784,715.5160550531615 210.21739130434784,715.1874346857884 229.13043478260872,715.1874346857884 C 248.04347826086956,715.1874346857884 248.04347826086956,715.1487743528717 266.95652173913044,715.1487743528717 C 285.8695652173913,715.1487743528717 285.8695652173913,714.9834036348067 304.7826086956522,714.9834036348067 C 323.69565217391306,714.9834036348067 323.69565217391306,713.3198646283031 342.60869565217394,713.3198646283031 C 361.5217391304348,713.3198646283031 361.5217391304348,701.1991565239082 380.4347826086957,701.1991565239082 C 399.34782608695656,701.1991565239082 399.34782608695656,694.3104854249809 418.26086956521743,694.3104854249809 C 437.1739130434783,694.3104854249809 437.1739130434783,693.9533426496179 456.0869565217392,693.9533426496179 C 475,693.9533426496179 475,687.9688028459649 493.9130434782609,687.9688028459649 C 512.8260869565217,687.9688028459649 512.8260869565217,676.590398936743 531.7391304347826,676.590398936743 C 550.6521739130435,676.590398936743 550.6521739130435,665.2305874323814 569.5652173913044,665.2305874323814 C 588.4782608695652,665.2305874323814 588.4782608695652,642.6346506734075 607.3913043478261,642.6346506734075 C 626.304347826087,642.6346506734075 626.304347826087,621.0249673926261 645.2173913043479,621.0249673926261 C 664.1304347826087,621.0249673926261 664.1304347826087,609.1076953254202 683.0434782608696,609.1076953254202 C 701.9565217391305,609.1076953254202 701.9565217391305,595.9460906955867 720.8695652173914,595.9460906955867 C 739.7826086956522,595.9460906955867 739.7826086956522,580.8554522601912 758.6956521739131,580.8554522601912 C 777.608695652174,580.8554522601912 777.608695652174,559.1544770344924 796.5217391304349,559.1544770344924 C 815.4347826086957,559.1544770344924 815.4347826086957,534.5078348081377 834.3478260869566,534.5078348081377 C 853.2608695652175,534.5078348081377 853.2608695652175,509.18852043074776 872.1739130434784,509.18852043074776 C 891.0869565217392,509.18852043074776 891.0869565217392,500 910.0000000000001,500 L 910.0000000000001,720 L 40,720 Z" fill="url(#lineGrad)"/>
      <path d="M 40,720 C 58.913043478260875,720 58.913043478260875,720 77.82608695652175,720 C 96.73913043478262,720 96.73913043478262,720 115.65217391304348,720 C 134.56521739130434,720 134.56521739130434,720 153.47826086956522,720 C 172.3913043478261,720 172.3913043478261,720 191.30434782608697,720 C 210.21739130434784,720 210.21739130434784,720 229.13043478260872,720 C 248.04347826086956,720 248.04347826086956,720 266.95652173913044,720 C 285.8695652173913,720 285.8695652173913,720 304.7826086956522,720 C 323.69565217391306,720 323.69565217391306,720 342.60869565217394,720 C 361.5217391304348,720 361.5217391304348,709.06513744427 380.4347826086957,709.06513744427 C 399.34782608695656,709.06513744427 399.34782608695656,702.1764663453426 418.26086956521743,702.1764663453426 C 437.1739130434783,702.1764663453426 437.1739130434783,702.1764663453426 456.0869565217392,702.1764663453426 C 475,702.1764663453426 475,702.1764663453426 493.9130434782609,702.1764663453426 C 512.8260869565217,702.1764663453426 512.8260869565217,702.1764663453426 531.7391304347826,702.1764663453426 C 550.6521739130435,702.1764663453426 550.6521739130435,702.1764663453426 569.5652173913044,702.1764663453426 C 588.4782608695652,702.1764663453426 588.4782608695652,702.1764663453426 607.3913043478261,702.1764663453426 C 626.304347826087,702.1764663453426 626.304347826087,702.1764663453426 645.2173913043479,702.1764663453426 C 664.1304347826087,702.1764663453426 664.1304347826087,702.1764663453426 683.0434782608696,702.1764663453426 C 701.9565217391305,702.1764663453426 701.9565217391305,702.1764663453426 720.8695652173914,702.1764663453426 C 739.7826086956522,702.1764663453426 739.7826086956522,702.1764663453426 758.6956521739131,702.1764663453426 C 777.608695652174,702.1764663453426 777.608695652174,702.1764663453426 796.5217391304349,702.1764663453426 C 815.4347826086957,702.1764663453426 815.4347826086957,702.1764663453426 834.3478260869566,702.1764663453426 C 853.2608695652175,702.1764663453426 853.2608695652175,702.1764663453426 872.1739130434784,702.1764663453426 C 891.0869565217392,702.1764663453426 891.0869565217392,702.1764663453426 910.0000000000001,702.1764663453426" stroke="#6E56CF" stroke-width="1.5" stroke-opacity="0.6" fill="none" stroke-linecap="round" stroke-linejoin="round" stroke-dasharray="4 2"/><path d="M 40,719.7969043861872 C 58.913043478260875,719.7969043861872 58.913043478260875,719.1859307472528 77.82608695652175,719.1859307472528 C 96.73913043478262,719.1859307472528 96.73913043478262,716.5673064837432 115.65217391304348,716.5673064837432 C 134.56521739130434,716.5673064837432 134.56521739130434,715.7327030607887 153.47826086956522,715.7327030607887 C 172.3913043478261,715.7327030607887 172.3913043478261,715.5160550531615 191.30434782608697,715.5160550531615 C 210.21739130434784,715.5160550531615 210.21739130434784,715.1874346857884 229.13043478260872,715.1874346857884 C 248.04347826086956,715.1874346857884 248.04347826086956,715.1487743528717 266.95652173913044,715.1487743528717 C 285.8695652173913,715.1487743528717 285.8695652173913,714.9834036348067 304.7826086956522,714.9834036348067 C 323.69565217391306,714.9834036348067 323.69565217391306,713.3198646283031 342.60869565217394,713.3198646283031 C 361.5217391304348,713.3198646283031 361.5217391304348,712.1340190796382 380.4347826086957,712.1340190796382 C 399.34782608695656,712.1340190796382 399.34782608695656,712.1340190796382 418.26086956521743,712.1340190796382 C 437.1739130434783,712.1340190796382 437.1739130434783,711.7768763042751 456.0869565217392,711.7768763042751 C 475,711.7768763042751 475,705.7923365006222 493.9130434782609,705.7923365006222 C 512.8260869565217,705.7923365006222 512.8260869565217,694.4139325914003 531.7391304347826,694.4139325914003 C 550.6521739130435,694.4139325914003 550.6521739130435,683.0541210870388 569.5652173913044,683.0541210870388 C 588.4782608695652,683.0541210870388 588.4782608695652,660.4581843280648 607.3913043478261,660.4581843280648 C 626.304347826087,660.4581843280648 626.304347826087,638.8485010472833 645.2173913043479,638.8485010472833 C 664.1304347826087,638.8485010472833 664.1304347826087,626.9312289800775 683.0434782608696,626.9312289800775 C 701.9565217391305,626.9312289800775 701.9565217391305,613.769624350244 720.8695652173914,613.769624350244 C 739.7826086956522,613.769624350244 739.7826086956522,598.6789859148486 758.6956521739131,598.6789859148486 C 777.608695652174,598.6789859148486 777.608695652174,576.9780106891496 796.5217391304349,576.9780106891496 C 815.4347826086957,576.9780106891496 815.4347826086957,552.331368462795 834.3478260869566,552.331368462795 C 853.2608695652175,552.331368462795 853.2608695652175,527.0120540854051 872.1739130434784,527.0120540854051 C 891.0869565217392,527.0120540854051 891.0869565217392,517.8235336546574 910.0000000000001,517.8235336546574" stroke="#10A37F" stroke-width="1.5" stroke-opacity="0.6" fill="none" stroke-linecap="round" stroke-linejoin="round" stroke-dasharray="4 2"/>
      <path d="M 40,719.7969043861872 C 58.913043478260875,719.7969043861872 58.913043478260875,719.1859307472528 77.82608695652175,719.1859307472528 C 96.73913043478262,719.1859307472528 96.73913043478262,716.5673064837432 115.65217391304348,716.5673064837432 C 134.56521739130434,716.5673064837432 134.56521739130434,715.7327030607887 153.47826086956522,715.7327030607887 C 172.3913043478261,715.7327030607887 172.3913043478261,715.5160550531615 191.30434782608697,715.5160550531615 C 210.21739130434784,715.5160550531615 210.21739130434784,715.1874346857884 229.13043478260872,715.1874346857884 C 248.04347826086956,715.1874346857884 248.04347826086956,715.1487743528717 266.95652173913044,715.1487743528717 C 285.8695652173913,715.1487743528717 285.8695652173913,714.9834036348067 304.7826086956522,714.9834036348067 C 323.69565217391306,714.9834036348067 323.69565217391306,713.3198646283031 342.60869565217394,713.3198646283031 C 361.5217391304348,713.3198646283031 361.5217391304348,701.1991565239082 380.4347826086957,701.1991565239082 C 399.34782608695656,701.1991565239082 399.34782608695656,694.3104854249809 418.26086956521743,694.3104854249809 C 437.1739130434783,694.3104854249809 437.1739130434783,693.9533426496179 456.0869565217392,693.9533426496179 C 475,693.9533426496179 475,687.9688028459649 493.9130434782609,687.9688028459649 C 512.8260869565217,687.9688028459649 512.8260869565217,676.590398936743 531.7391304347826,676.590398936743 C 550.6521739130435,676.590398936743 550.6521739130435,665.2305874323814 569.5652173913044,665.2305874323814 C 588.4782608695652,665.2305874323814 588.4782608695652,642.6346506734075 607.3913043478261,642.6346506734075 C 626.304347826087,642.6346506734075 626.304347826087,621.0249673926261 645.2173913043479,621.0249673926261 C 664.1304347826087,621.0249673926261 664.1304347826087,609.1076953254202 683.0434782608696,609.1076953254202 C 701.9565217391305,609.1076953254202 701.9565217391305,595.9460906955867 720.8695652173914,595.9460906955867 C 739.7826086956522,595.9460906955867 739.7826086956522,580.8554522601912 758.6956521739131,580.8554522601912 C 777.608695652174,580.8554522601912 777.608695652174,559.1544770344924 796.5217391304349,559.1544770344924 C 815.4347826086957,559.1544770344924 815.4347826086957,534.5078348081377 834.3478260869566,534.5078348081377 C 853.2608695652175,534.5078348081377 853.2608695652175,509.18852043074776 872.1739130434784,509.18852043074776 C 891.0869565217392,509.18852043074776 891.0869565217392,500 910.0000000000001,500" stroke="#10B981" stroke-width="4" fill="none" stroke-linecap="round" stroke-linejoin="round"/>
      <circle cx="910.0000000000001" cy="500" r="6" fill="#10B981" stroke="white" stroke-width="3"/>
    </g>
  
</svg>