<svg width="1000" height="760" viewBox="0 0 1000 760" fill="none" xmlns="http://www.w3.org/2000/svg">
  <defs>
    <linearGradient id="bg" x1="0" x2="1" y1="0" y2="1">
      <stop stop-color="#F8FAFC"/>
      <stop offset="1" stop-color="#F1F5F9"/>
    </linearGradient>
    <filter id="shadow" x="-5%" y="-5%" width="110%" height="110%">
      <feDropShadow dx="0" dy="4" stdDeviation="12" flood-color="#000" flood-opacity="0.05"/>
    </filter>
    <linearGradient id="lineGrad" x1="0" y1="0" x2="0" y2="1">
      <stop stop-color="#10B981" stop-opacity="0.2"/>
      <stop offset="1" stop-color="#10B981" stop-opacity="0"/>
    </linearGradient>
  </defs>
  <style>
    .title { font: 800 36px -apple-system, BlinkMacSystemFont, "Segoe UI", Roboto, sans-serif; fill: #0F172A; }
    .subtitle { font: 600 14px -apple-system, sans-serif; fill: #64748B; letter-spacing: 0.02em; }
    .label { font: 700 11px -apple-system, sans-serif; letter-spacing: 0.08em; text-transform: uppercase; fill: #94A3B8; }
    .total-val { font: 800 52px -apple-system, sans-serif; fill: #0F172A; }
    .stat-val { font: 700 24px -apple-system, sans-serif; fill: #1E293B; }
    .tool-name { font: 700 18px -apple-system, sans-serif; fill: #0F172A; }
    .tool-metric { font: 800 22px -apple-system, sans-serif; fill: #0F172A; }
    .tool-muted { font: 500 14px -apple-system, sans-serif; fill: #64748B; }
    .model-item { font: 600 12px -apple-system, sans-serif; fill: #475569; }
    .chart-label { font: 600 11px -apple-system, sans-serif; fill: #94A3B8; }
    .badge { font: 700 10px -apple-system, sans-serif; fill: #10B981; }
  </style>

  <rect width="1000" height="760" rx="32" fill="url(#bg)"/>
  
  <text x="40" y="75" class="title">Burn Rate</text>
  <text x="40" y="105" class="subtitle">AI Engineering &amp; Intelligence Volume Statistics / Updated 2026-04-29 07:12 UTC</text>

  <!-- Key Metrics Row -->
  <g transform="translate(40, 150)">
    <g transform="translate(15, 0)">
      <text y="0" class="label">Total Intelligence Volume</text>
      <text y="50" class="total-val">1.544B Tokens</text>
      <text x="5" y="78" class="badge" font-size="16">+1.03M today</text>
    </g>
    <g transform="translate(440, 0)">
      <text y="0" class="label">Historical Cost</text>
      <text y="42" class="stat-val">$1,094.26</text>
      <text y="62" class="tool-muted">Across 18 active production days</text>
    </g>
    <g transform="translate(720, 0)">
      <text y="0" class="label">Main Architecture</text>
      <text y="42" class="stat-val" fill="#10B981">gpt-5.5</text>
      <text y="62" class="tool-muted">Dominant LLM backend</text>
    </g>
  </g>

  <g transform="translate(40, 260)">
    <text y="0" class="label">Tooling &amp; Model Efficiency Breakdown</text>
  </g>
  
      <g transform="translate(40, 280)">
        <rect width="440" height="90" rx="16" fill="white" stroke="#F1F5F9" stroke-width="2"/>
        <circle cx="24" cy="24" r="8" fill="#10A37F"/>
        <text x="45" y="29" class="tool-name">Codex</text>
        <text x="45" y="55" class="tool-metric">1.276B tokens</text>
        <text x="45" y="78" class="tool-muted">spent $846.24</text>
        <g transform="translate(240, 20)">
          
            <text x="0" y="0" class="model-item">gpt-5.5</text>
            <text x="160" y="0" class="model-item" text-anchor="end">1.106B</text>
          
            <text x="0" y="20" class="model-item">gpt-5.4</text>
            <text x="160" y="20" class="model-item" text-anchor="end">113.26M</text>
          
            <text x="0" y="40" class="model-item">gpt-5.3-codex</text>
            <text x="160" y="40" class="model-item" text-anchor="end">56.43M</text>
          
        </g>
      </g>
    
      <g transform="translate(500, 280)">
        <rect width="440" height="90" rx="16" fill="white" stroke="#F1F5F9" stroke-width="2"/>
        <circle cx="24" cy="24" r="8" fill="#6E56CF"/>
        <text x="45" y="29" class="tool-name">Claude Code</text>
        <text x="45" y="55" class="tool-metric">267.6M tokens</text>
        <text x="45" y="78" class="tool-muted">spent $248.02</text>
        <g transform="translate(240, 20)">
          
            <text x="0" y="0" class="model-item">claude-opus-4-7</text>
            <text x="160" y="0" class="model-item" text-anchor="end">267.6M</text>
          
        </g>
      </g>
    

  <g transform="translate(40, 470)">
    <text y="0" class="label">Intelligence Throughput &amp; Growth Curve (Tokens)</text>
    <g transform="translate(920, 0)" text-anchor="end">
      <text x="0" y="0" class="badge">● CUMULATIVE VOLUME</text>
      <text x="-150" y="0" class="badge" fill="#94A3B8">■ DAILY THROUGHPUT</text>
    </g>
  </g>
  
    <g>
      <line x1="40" y1="720" x2="910" y2="720" stroke="#E2E8F0" stroke-width="1"/><text x="925" y="724" class="chart-label">0</text><line x1="40" y1="665" x2="910" y2="665" stroke="#E2E8F0" stroke-width="1"/><text x="925" y="669" class="chart-label">385.89M</text><line x1="40" y1="610" x2="910" y2="610" stroke="#E2E8F0" stroke-width="1"/><text x="925" y="614" class="chart-label">771.79M</text><line x1="40" y1="555" x2="910" y2="555" stroke="#E2E8F0" stroke-width="1"/><text x="925" y="559" class="chart-label">1.158B</text><line x1="40" y1="500" x2="910" y2="500" stroke="#E2E8F0" stroke-width="1"/><text x="925" y="504" class="chart-label">1.544B</text>
      <text x="40" y="744" text-anchor="middle" class="chart-label">02-21</text><text x="142.3529411764706" y="744" text-anchor="middle" class="chart-label">04-11</text><text x="244.7058823529412" y="744" text-anchor="middle" class="chart-label">04-14</text><text x="347.05882352941177" y="744" text-anchor="middle" class="chart-label">04-18</text><text x="449.4117647058824" y="744" text-anchor="middle" class="chart-label">04-20</text><text x="551.7647058823529" y="744" text-anchor="middle" class="chart-label">04-22</text><text x="654.1176470588235" y="744" text-anchor="middle" class="chart-label">04-24</text><text x="756.4705882352941" y="744" text-anchor="middle" class="chart-label">04-26</text><text x="858.8235294117648" y="744" text-anchor="middle" class="chart-label">04-28</text><text x="910" y="744" text-anchor="middle" class="chart-label">04-29</text>
      <g opacity="0.6"><rect x="38" y="717.6271290445493" width="4" height="2.3728709554506957" fill="#94A3B8" rx="2"/><rect x="89.1764705882353" y="712.8616794072656" width="4" height="7.138320592734411" fill="#94A3B8" rx="2"/><rect x="140.3529411764706" y="709.8017534016454" width="4" height="10.198246598354547" fill="#94A3B8" rx="2"/><rect x="191.52941176470588" y="716.7496323784485" width="4" height="3.250367621551473" fill="#94A3B8" rx="2"/><rect x="242.7058823529412" y="717.4687894277778" width="4" height="2.531210572222169" fill="#94A3B8" rx="2"/><rect x="293.88235294117646" y="718.3606904380183" width="4" height="1.6393095619817353" fill="#94A3B8" rx="2"/><rect x="345.05882352941177" y="719.548311362398" width="4" height="0.4516886376019983" fill="#94A3B8" rx="2"/><rect x="396.2352941176471" y="718.0678884865519" width="4" height="1.9321115134481237" fill="#94A3B8" rx="2"/><rect x="447.4117647058824" y="712.8009611927843" width="4" height="7.199038807215698" fill="#94A3B8" rx="2"/><rect x="498.5882352941177" y="672.1658487975939" width="4" height="47.83415120240609" fill="#94A3B8" rx="2"/><rect x="549.7647058823529" y="693.1720325131089" width="4" height="26.827967486891147" fill="#94A3B8" rx="2"/><rect x="600.9411764705883" y="715.8273164905012" width="4" height="4.172683509498785" fill="#94A3B8" rx="2"/><rect x="652.1176470588235" y="696.1286851039328" width="4" height="23.87131489606721" fill="#94A3B8" rx="2"/><rect x="703.2941176470589" y="675.686743387" width="4" height="44.313256612999986" fill="#94A3B8" rx="2"/><rect x="754.4705882352941" y="675.7591516099992" width="4" height="44.240848390000814" fill="#94A3B8" rx="2"/><rect x="805.6470588235295" y="632" width="4" height="88" fill="#94A3B8" rx="2"/><rect x="856.8235294117648" y="635.840969595849" width="4" height="84.15903040415103" fill="#94A3B8" rx="2"/><rect x="908" y="719.7319782933681" width="4" height="0.26802170663186037" fill="#94A3B8" rx="2"/></g>
      <path d="M 40,718.69622617944 C 65.58823529411765,718.69622617944 65.58823529411765,714.7740763085451 91.1764705882353,714.7740763085451 C 116.76470588235296,714.7740763085451 116.76470588235296,709.170650256232 142.3529411764706,709.170650256232 C 167.94117647058823,709.170650256232 167.94117647058823,707.3847359390459 193.52941176470588,707.3847359390459 C 219.11764705882354,707.3847359390459 219.11764705882354,705.9939624244528 244.7058823529412,705.9939624244528 C 270.29411764705884,705.9939624244528 270.29411764705884,705.0932438726092 295.88235294117646,705.0932438726092 C 321.47058823529414,705.0932438726092 321.47058823529414,704.8450635746468 347.05882352941177,704.8450635746468 C 372.6470588235294,704.8450635746468 372.6470588235294,703.783465006107 398.2352941176471,703.783465006107 C 423.82352941176475,703.783465006107 423.82352941176475,699.8279535154873 449.4117647058824,699.8279535154873 C 475,699.8279535154873 475,673.545481675564 500.5882352941177,673.545481675564 C 526.1764705882354,673.545481675564 526.1764705882354,658.8048563634727 551.7647058823529,658.8048563634727 C 577.3529411764706,658.8048563634727 577.3529411764706,656.512175630595 602.9411764705883,656.512175630595 C 628.5294117647059,656.512175630595 628.5294117647059,643.396082927642 654.1176470588235,643.396082927642 C 679.7058823529412,643.396082927642 679.7058823529412,619.0481664330377 705.2941176470589,619.0481664330377 C 730.8823529411766,619.0481664330377 730.8823529411766,594.740034632718 756.4705882352941,594.740034632718 C 782.0588235294118,594.740034632718 782.0588235294118,546.3884393022901 807.6470588235295,546.3884393022901 C 833.2352941176471,546.3884393022901 833.2352941176471,500.14726451248674 858.8235294117648,500.14726451248674 C 884.4117647058824,500.14726451248674 884.4117647058824,500 910,500 L 910,720 L 40,720 Z" fill="url(#lineGrad)"/>
      <path d="M 40,720 C 65.58823529411765,720 65.58823529411765,720 91.1764705882353,720 C 116.76470588235296,720 116.76470588235296,720 142.3529411764706,720 C 167.94117647058823,720 167.94117647058823,720 193.52941176470588,720 C 219.11764705882354,720 219.11764705882354,720 244.7058823529412,720 C 270.29411764705884,720 270.29411764705884,720 295.88235294117646,720 C 321.47058823529414,720 321.47058823529414,720 347.05882352941177,720 C 372.6470588235294,720 372.6470588235294,720 398.2352941176471,720 C 423.82352941176475,720 423.82352941176475,720 449.4117647058824,720 C 475,720 475,696.6011891904182 500.5882352941177,696.6011891904182 C 526.1764705882354,696.6011891904182 526.1764705882354,681.8605638783268 551.7647058823529,681.8605638783268 C 577.3529411764706,681.8605638783268 577.3529411764706,681.8605638783268 602.9411764705883,681.8605638783268 C 628.5294117647059,681.8605638783268 628.5294117647059,681.8605638783268 654.1176470588235,681.8605638783268 C 679.7058823529412,681.8605638783268 679.7058823529412,681.8605638783268 705.2941176470589,681.8605638783268 C 730.8823529411766,681.8605638783268 730.8823529411766,681.8605638783268 756.4705882352941,681.8605638783268 C 782.0588235294118,681.8605638783268 782.0588235294118,681.8605638783268 807.6470588235295,681.8605638783268 C 833.2352941176471,681.8605638783268 833.2352941176471,681.8605638783268 858.8235294117648,681.8605638783268 C 884.4117647058824,681.8605638783268 884.4117647058824,681.8605638783268 910,681.8605638783268" stroke="#6E56CF" stroke-width="1.5" stroke-opacity="0.6" fill="none" stroke-linecap="round" stroke-linejoin="round" stroke-dasharray="4 2"/><path d="M 40,718.69622617944 C 65.58823529411765,718.69622617944 65.58823529411765,714.7740763085451 91.1764705882353,714.7740763085451 C 116.76470588235296,714.7740763085451 116.76470588235296,709.170650256232 142.3529411764706,709.170650256232 C 167.94117647058823,709.170650256232 167.94117647058823,707.3847359390459 193.52941176470588,707.3847359390459 C 219.11764705882354,707.3847359390459 219.11764705882354,705.9939624244528 244.7058823529412,705.9939624244528 C 270.29411764705884,705.9939624244528 270.29411764705884,705.0932438726092 295.88235294117646,705.0932438726092 C 321.47058823529414,705.0932438726092 321.47058823529414,704.8450635746468 347.05882352941177,704.8450635746468 C 372.6470588235294,704.8450635746468 372.6470588235294,703.783465006107 398.2352941176471,703.783465006107 C 423.82352941176475,703.783465006107 423.82352941176475,699.8279535154873 449.4117647058824,699.8279535154873 C 475,699.8279535154873 475,696.9442924851458 500.5882352941177,696.9442924851458 C 526.1764705882354,696.9442924851458 526.1764705882354,696.9442924851458 551.7647058823529,696.9442924851458 C 577.3529411764706,696.9442924851458 577.3529411764706,694.6516117522681 602.9411764705883,694.6516117522681 C 628.5294117647059,694.6516117522681 628.5294117647059,681.5355190493152 654.1176470588235,681.5355190493152 C 679.7058823529412,681.5355190493152 679.7058823529412,657.1876025547108 705.2941176470589,657.1876025547108 C 730.8823529411766,657.1876025547108 730.8823529411766,632.8794707543911 756.4705882352941,632.8794707543911 C 782.0588235294118,632.8794707543911 782.0588235294118,584.5278754239632 807.6470588235295,584.5278754239632 C 833.2352941176471,584.5278754239632 833.2352941176471,538.2867006341598 858.8235294117648,538.2867006341598 C 884.4117647058824,538.2867006341598 884.4117647058824,538.1394361216732 910,538.1394361216732" stroke="#10A37F" stroke-width="1.5" stroke-opacity="0.6" fill="none" stroke-linecap="round" stroke-linejoin="round" stroke-dasharray="4 2"/>
      <path d="M 40,718.69622617944 C 65.58823529411765,718.69622617944 65.58823529411765,714.7740763085451 91.1764705882353,714.7740763085451 C 116.76470588235296,714.7740763085451 116.76470588235296,709.170650256232 142.3529411764706,709.170650256232 C 167.94117647058823,709.170650256232 167.94117647058823,707.3847359390459 193.52941176470588,707.3847359390459 C 219.11764705882354,707.3847359390459 219.11764705882354,705.9939624244528 244.7058823529412,705.9939624244528 C 270.29411764705884,705.9939624244528 270.29411764705884,705.0932438726092 295.88235294117646,705.0932438726092 C 321.47058823529414,705.0932438726092 321.47058823529414,704.8450635746468 347.05882352941177,704.8450635746468 C 372.6470588235294,704.8450635746468 372.6470588235294,703.783465006107 398.2352941176471,703.783465006107 C 423.82352941176475,703.783465006107 423.82352941176475,699.8279535154873 449.4117647058824,699.8279535154873 C 475,699.8279535154873 475,673.545481675564 500.5882352941177,673.545481675564 C 526.1764705882354,673.545481675564 526.1764705882354,658.8048563634727 551.7647058823529,658.8048563634727 C 577.3529411764706,658.8048563634727 577.3529411764706,656.512175630595 602.9411764705883,656.512175630595 C 628.5294117647059,656.512175630595 628.5294117647059,643.396082927642 654.1176470588235,643.396082927642 C 679.7058823529412,643.396082927642 679.7058823529412,619.0481664330377 705.2941176470589,619.0481664330377 C 730.8823529411766,619.0481664330377 730.8823529411766,594.740034632718 756.4705882352941,594.740034632718 C 782.0588235294118,594.740034632718 782.0588235294118,546.3884393022901 807.6470588235295,546.3884393022901 C 833.2352941176471,546.3884393022901 833.2352941176471,500.14726451248674 858.8235294117648,500.14726451248674 C 884.4117647058824,500.14726451248674 884.4117647058824,500 910,500" stroke="#10B981" stroke-width="4" fill="none" stroke-linecap="round" stroke-linejoin="round"/>
      <circle cx="910" cy="500" r="6" fill="#10B981" stroke="white" stroke-width="3"/>
    </g>
  
</svg>