<svg width="1000" height="760" viewBox="0 0 1000 760" fill="none" xmlns="http://www.w3.org/2000/svg">
  <defs>
    <linearGradient id="bg" x1="0" x2="1" y1="0" y2="1">
      <stop stop-color="#F8FAFC"/>
      <stop offset="1" stop-color="#F1F5F9"/>
    </linearGradient>
    <filter id="shadow" x="-5%" y="-5%" width="110%" height="110%">
      <feDropShadow dx="0" dy="4" stdDeviation="12" flood-color="#000" flood-opacity="0.05"/>
    </filter>
    <linearGradient id="lineGrad" x1="0" y1="0" x2="0" y2="1">
      <stop stop-color="#10B981" stop-opacity="0.2"/>
      <stop offset="1" stop-color="#10B981" stop-opacity="0"/>
    </linearGradient>
  </defs>
  <style>
    .title { font: 800 36px -apple-system, BlinkMacSystemFont, "Segoe UI", Roboto, sans-serif; fill: #0F172A; }
    .subtitle { font: 600 14px -apple-system, sans-serif; fill: #64748B; letter-spacing: 0.02em; }
    .label { font: 700 11px -apple-system, sans-serif; letter-spacing: 0.08em; text-transform: uppercase; fill: #94A3B8; }
    .total-val { font: 800 52px -apple-system, sans-serif; fill: #0F172A; }
    .stat-val { font: 700 24px -apple-system, sans-serif; fill: #1E293B; }
    .tool-name { font: 700 18px -apple-system, sans-serif; fill: #0F172A; }
    .tool-metric { font: 800 22px -apple-system, sans-serif; fill: #0F172A; }
    .tool-muted { font: 500 14px -apple-system, sans-serif; fill: #64748B; }
    .model-item { font: 600 12px -apple-system, sans-serif; fill: #475569; }
    .chart-label { font: 600 11px -apple-system, sans-serif; fill: #94A3B8; }
    .badge { font: 700 10px -apple-system, sans-serif; fill: #10B981; }
  </style>

  <rect width="1000" height="760" rx="32" fill="url(#bg)"/>
  
  <text x="40" y="75" class="title">Burn Rate</text>
  <text x="40" y="105" class="subtitle">AI Engineering &amp; Intelligence Volume Statistics / Updated 2026-05-05 22:29 UTC</text>

  <!-- Key Metrics Row -->
  <g transform="translate(40, 150)">
    <g transform="translate(15, 0)">
      <text y="0" class="label">Total Intelligence Volume</text>
      <text y="50" class="total-val">9.724B Tokens</text>
      <text x="5" y="78" class="badge" font-size="16">+228.52M today</text>
    </g>
    <g transform="translate(440, 0)">
      <text y="0" class="label">Historical Cost</text>
      <text y="42" class="stat-val">$6,732.61</text>
      <text y="62" class="tool-muted">Across 24 active production days</text>
    </g>
    <g transform="translate(720, 0)">
      <text y="0" class="label">Main Architecture</text>
      <text y="42" class="stat-val" fill="#10B981">gpt-5.5</text>
      <text y="62" class="tool-muted">Dominant LLM backend</text>
    </g>
  </g>

  <g transform="translate(40, 260)">
    <text y="0" class="label">Tooling &amp; Model Efficiency Breakdown</text>
  </g>
  
      <g transform="translate(40, 280)">
        <rect width="440" height="90" rx="16" fill="white" stroke="#F1F5F9" stroke-width="2"/>
        <circle cx="24" cy="24" r="8" fill="#10A37F"/>
        <text x="45" y="29" class="tool-name">Codex</text>
        <text x="45" y="55" class="tool-metric">8.921B tokens</text>
        <text x="45" y="78" class="tool-muted">spent $5,988.56</text>
        <g transform="translate(240, 20)">
          
            <text x="0" y="0" class="model-item">gpt-5.5</text>
            <text x="160" y="0" class="model-item" text-anchor="end">8.484B</text>
          
            <text x="0" y="20" class="model-item">gpt-5.4</text>
            <text x="160" y="20" class="model-item" text-anchor="end">305.79M</text>
          
            <text x="0" y="40" class="model-item">gpt-5.3-codex</text>
            <text x="160" y="40" class="model-item" text-anchor="end">92.9M</text>
          
        </g>
      </g>
    
      <g transform="translate(500, 280)">
        <rect width="440" height="90" rx="16" fill="white" stroke="#F1F5F9" stroke-width="2"/>
        <circle cx="24" cy="24" r="8" fill="#6E56CF"/>
        <text x="45" y="29" class="tool-name">Claude Code</text>
        <text x="45" y="55" class="tool-metric">802.79M tokens</text>
        <text x="45" y="78" class="tool-muted">spent $744.05</text>
        <g transform="translate(240, 20)">
          
            <text x="0" y="0" class="model-item">claude-opus-4-7</text>
            <text x="160" y="0" class="model-item" text-anchor="end">802.79M</text>
          
        </g>
      </g>
    

  <g transform="translate(40, 470)">
    <text y="0" class="label">Intelligence Throughput &amp; Growth Curve (Tokens)</text>
    <g transform="translate(920, 0)" text-anchor="end">
      <text x="0" y="0" class="badge">● CUMULATIVE VOLUME</text>
      <text x="-150" y="0" class="badge" fill="#94A3B8">■ DAILY THROUGHPUT</text>
    </g>
  </g>
  
    <g>
      <line x1="40" y1="720" x2="910" y2="720" stroke="#E2E8F0" stroke-width="1"/><text x="925" y="724" class="chart-label">0</text><line x1="40" y1="665" x2="910" y2="665" stroke="#E2E8F0" stroke-width="1"/><text x="925" y="669" class="chart-label">2.431B</text><line x1="40" y1="610" x2="910" y2="610" stroke="#E2E8F0" stroke-width="1"/><text x="925" y="614" class="chart-label">4.862B</text><line x1="40" y1="555" x2="910" y2="555" stroke="#E2E8F0" stroke-width="1"/><text x="925" y="559" class="chart-label">7.293B</text><line x1="40" y1="500" x2="910" y2="500" stroke="#E2E8F0" stroke-width="1"/><text x="925" y="504" class="chart-label">9.724B</text>
      <text x="40" y="744" text-anchor="middle" class="chart-label">02-21</text><text x="153.47826086956522" y="744" text-anchor="middle" class="chart-label">04-12</text><text x="266.95652173913044" y="744" text-anchor="middle" class="chart-label">04-18</text><text x="380.4347826086957" y="744" text-anchor="middle" class="chart-label">04-21</text><text x="493.9130434782609" y="744" text-anchor="middle" class="chart-label">04-24</text><text x="607.3913043478261" y="744" text-anchor="middle" class="chart-label">04-27</text><text x="720.8695652173914" y="744" text-anchor="middle" class="chart-label">04-30</text><text x="834.3478260869566" y="744" text-anchor="middle" class="chart-label">05-03</text><text x="910.0000000000001" y="744" text-anchor="middle" class="chart-label">05-05</text>
      <g opacity="0.6"><rect x="38" y="719.2941193529521" width="4" height="0.7058806470479859" fill="#94A3B8" rx="2"/><rect x="75.82608695652175" y="717.876495412757" width="4" height="2.1235045872430396" fill="#94A3B8" rx="2"/><rect x="113.65217391304348" y="710.8986897609431" width="4" height="9.101310239056957" fill="#94A3B8" rx="2"/><rect x="151.47826086956522" y="717.0992460488749" width="4" height="2.9007539511251563" fill="#94A3B8" rx="2"/><rect x="189.30434782608697" y="719.2470165508029" width="4" height="0.7529834491971016" fill="#94A3B8" rx="2"/><rect x="227.13043478260872" y="718.857844572811" width="4" height="1.1421554271889363" fill="#94A3B8" rx="2"/><rect x="264.95652173913044" y="719.8656318553512" width="4" height="0.13436814464870997" fill="#94A3B8" rx="2"/><rect x="302.7826086956522" y="719.4252362851217" width="4" height="0.5747637148782839" fill="#94A3B8" rx="2"/><rect x="340.60869565217394" y="714.2181912831318" width="4" height="5.781808716868223" fill="#94A3B8" rx="2"/><rect x="378.4347826086957" y="677.8731755019702" width="4" height="42.1268244980298" fill="#94A3B8" rx="2"/><rect x="416.26086956521743" y="696.057682776476" width="4" height="23.942317223524043" fill="#94A3B8" rx="2"/><rect x="454.0869565217392" y="718.7587118764948" width="4" height="1.2412881235052327" fill="#94A3B8" rx="2"/><rect x="491.9130434782609" y="699.2000883249926" width="4" height="20.799911675007326" fill="#94A3B8" rx="2"/><rect x="529.7391304347826" y="680.4531335609272" width="4" height="39.546866439072744" fill="#94A3B8" rx="2"/><rect x="567.5652173913044" y="680.517753463478" width="4" height="39.48224653652199" fill="#94A3B8" rx="2"/><rect x="605.3913043478261" y="641.465391789385" width="4" height="78.53460821061508" fill="#94A3B8" rx="2"/><rect x="643.2173913043479" y="644.8932218161904" width="4" height="75.10677818380958" fill="#94A3B8" rx="2"/><rect x="681.0434782608696" y="678.5802393270719" width="4" height="41.41976067292802" fill="#94A3B8" rx="2"/><rect x="718.8695652173914" y="674.2554276880564" width="4" height="45.744572311943614" fill="#94A3B8" rx="2"/><rect x="756.6956521739131" y="667.5508632453065" width="4" height="52.449136754693555" fill="#94A3B8" rx="2"/><rect x="794.5217391304349" y="644.5759268439416" width="4" height="75.42407315605838" fill="#94A3B8" rx="2"/><rect x="832.3478260869566" y="634.3379444012102" width="4" height="85.66205559878985" fill="#94A3B8" rx="2"/><rect x="870.1739130434784" y="632" width="4" height="88" fill="#94A3B8" rx="2"/><rect x="908.0000000000001" y="702.3664101514787" width="4" height="17.633589848521282" fill="#94A3B8" rx="2"/></g>
      <path d="M 40,719.7930331722397 C 58.913043478260875,719.7930331722397 58.913043478260875,719.1704137393451 77.82608695652175,719.1704137393451 C 96.73913043478262,719.1704137393451 96.73913043478262,716.5018757697636 115.65217391304348,716.5018757697636 C 134.56521739130434,716.5018757697636 134.56521739130434,715.6513639362287 153.47826086956522,715.6513639362287 C 172.3913043478261,715.6513639362287 172.3913043478261,715.4305863919113 191.30434782608697,715.4305863919113 C 210.21739130434784,715.4305863919113 210.21739130434784,715.0957021780388 229.13043478260872,715.0957021780388 C 248.04347826086956,715.0957021780388 248.04347826086956,715.0563049389074 266.95652173913044,715.0563049389074 C 285.8695652173913,715.0563049389074 285.8695652173913,714.8877820827026 304.7826086956522,714.8877820827026 C 323.69565217391306,714.8877820827026 323.69565217391306,713.1925342899608 342.60869565217394,713.1925342899608 C 361.5217391304348,713.1925342899608 361.5217391304348,700.8407928639332 380.4347826086957,700.8407928639332 C 399.34782608695656,700.8407928639332 399.34782608695656,693.8208165184878 418.26086956521743,693.8208165184878 C 437.1739130434783,693.8208165184878 437.1739130434783,693.4568662298195 456.0869565217392,693.4568662298195 C 475,693.4568662298195 475,687.3582548638971 493.9130434782609,687.3582548638971 C 512.8260869565217,687.3582548638971 512.8260869565217,675.7629667242007 531.7391304347826,675.7629667242007 C 550.6521739130435,675.7629667242007 550.6521739130435,664.1866253799676 569.5652173913044,664.1866253799676 C 588.4782608695652,664.1866253799676 588.4782608695652,641.1599865300045 607.3913043478261,641.1599865300045 C 626.304347826087,641.1599865300045 626.304347826087,619.1384001768291 645.2173913043479,619.1384001768291 C 664.1304347826087,619.1384001768291 664.1304347826087,606.9939724907622 683.0434782608696,606.9939724907622 C 701.9565217391305,606.9939724907622 701.9565217391305,593.5814939673032 720.8695652173914,593.5814939673032 C 739.7826086956522,593.5814939673032 739.7826086956522,578.2032122446294 758.6956521739131,578.2032122446294 C 777.608695652174,578.2032122446294 777.608695652174,556.0885938269749 796.5217391304349,556.0885938269749 C 815.4347826086957,556.0885938269749 815.4347826086957,530.9721609273686 834.3478260869566,530.9721609273686 C 853.2608695652175,530.9721609273686 853.2608695652175,505.1702340448601 872.1739130434784,505.1702340448601 C 891.0869565217392,505.1702340448601 891.0869565217392,500 910.0000000000001,500 L 910.0000000000001,720 L 40,720 Z" fill="url(#lineGrad)"/>
      <path d="M 40,720 C 58.913043478260875,720 58.913043478260875,720 77.82608695652175,720 C 96.73913043478262,720 96.73913043478262,720 115.65217391304348,720 C 134.56521739130434,720 134.56521739130434,720 153.47826086956522,720 C 172.3913043478261,720 172.3913043478261,720 191.30434782608697,720 C 210.21739130434784,720 210.21739130434784,720 229.13043478260872,720 C 248.04347826086956,720 248.04347826086956,720 266.95652173913044,720 C 285.8695652173913,720 285.8695652173913,720 304.7826086956522,720 C 323.69565217391306,720 323.69565217391306,720 342.60869565217394,720 C 361.5217391304348,720 361.5217391304348,708.8567075739943 380.4347826086957,708.8567075739943 C 399.34782608695656,708.8567075739943 399.34782608695656,701.836731228549 418.26086956521743,701.836731228549 C 437.1739130434783,701.836731228549 437.1739130434783,701.836731228549 456.0869565217392,701.836731228549 C 475,701.836731228549 475,701.836731228549 493.9130434782609,701.836731228549 C 512.8260869565217,701.836731228549 512.8260869565217,701.836731228549 531.7391304347826,701.836731228549 C 550.6521739130435,701.836731228549 550.6521739130435,701.836731228549 569.5652173913044,701.836731228549 C 588.4782608695652,701.836731228549 588.4782608695652,701.836731228549 607.3913043478261,701.836731228549 C 626.304347826087,701.836731228549 626.304347826087,701.836731228549 645.2173913043479,701.836731228549 C 664.1304347826087,701.836731228549 664.1304347826087,701.836731228549 683.0434782608696,701.836731228549 C 701.9565217391305,701.836731228549 701.9565217391305,701.836731228549 720.8695652173914,701.836731228549 C 739.7826086956522,701.836731228549 739.7826086956522,701.836731228549 758.6956521739131,701.836731228549 C 777.608695652174,701.836731228549 777.608695652174,701.836731228549 796.5217391304349,701.836731228549 C 815.4347826086957,701.836731228549 815.4347826086957,701.836731228549 834.3478260869566,701.836731228549 C 853.2608695652175,701.836731228549 853.2608695652175,701.836731228549 872.1739130434784,701.836731228549 C 891.0869565217392,701.836731228549 891.0869565217392,701.836731228549 910.0000000000001,701.836731228549" stroke="#6E56CF" stroke-width="1.5" stroke-opacity="0.6" fill="none" stroke-linecap="round" stroke-linejoin="round" stroke-dasharray="4 2"/><path d="M 40,719.7930331722397 C 58.913043478260875,719.7930331722397 58.913043478260875,719.1704137393451 77.82608695652175,719.1704137393451 C 96.73913043478262,719.1704137393451 96.73913043478262,716.5018757697636 115.65217391304348,716.5018757697636 C 134.56521739130434,716.5018757697636 134.56521739130434,715.6513639362287 153.47826086956522,715.6513639362287 C 172.3913043478261,715.6513639362287 172.3913043478261,715.4305863919113 191.30434782608697,715.4305863919113 C 210.21739130434784,715.4305863919113 210.21739130434784,715.0957021780388 229.13043478260872,715.0957021780388 C 248.04347826086956,715.0957021780388 248.04347826086956,715.0563049389074 266.95652173913044,715.0563049389074 C 285.8695652173913,715.0563049389074 285.8695652173913,714.8877820827026 304.7826086956522,714.8877820827026 C 323.69565217391306,714.8877820827026 323.69565217391306,713.1925342899608 342.60869565217394,713.1925342899608 C 361.5217391304348,713.1925342899608 361.5217391304348,711.9840852899389 380.4347826086957,711.9840852899389 C 399.34782608695656,711.9840852899389 399.34782608695656,711.9840852899389 418.26086956521743,711.9840852899389 C 437.1739130434783,711.9840852899389 437.1739130434783,711.6201350012706 456.0869565217392,711.6201350012706 C 475,711.6201350012706 475,705.5215236353481 493.9130434782609,705.5215236353481 C 512.8260869565217,705.5215236353481 512.8260869565217,693.9262354956518 531.7391304347826,693.9262354956518 C 550.6521739130435,693.9262354956518 550.6521739130435,682.3498941514187 569.5652173913044,682.3498941514187 C 588.4782608695652,682.3498941514187 588.4782608695652,659.3232553014557 607.3913043478261,659.3232553014557 C 626.304347826087,659.3232553014557 626.304347826087,637.3016689482802 645.2173913043479,637.3016689482802 C 664.1304347826087,637.3016689482802 664.1304347826087,625.1572412622132 683.0434782608696,625.1572412622132 C 701.9565217391305,625.1572412622132 701.9565217391305,611.7447627387543 720.8695652173914,611.7447627387543 C 739.7826086956522,611.7447627387543 739.7826086956522,596.3664810160805 758.6956521739131,596.3664810160805 C 777.608695652174,596.3664810160805 777.608695652174,574.251862598426 796.5217391304349,574.251862598426 C 815.4347826086957,574.251862598426 815.4347826086957,549.1354296988197 834.3478260869566,549.1354296988197 C 853.2608695652175,549.1354296988197 853.2608695652175,523.3335028163112 872.1739130434784,523.3335028163112 C 891.0869565217392,523.3335028163112 891.0869565217392,518.163268771451 910.0000000000001,518.163268771451" stroke="#10A37F" stroke-width="1.5" stroke-opacity="0.6" fill="none" stroke-linecap="round" stroke-linejoin="round" stroke-dasharray="4 2"/>
      <path d="M 40,719.7930331722397 C 58.913043478260875,719.7930331722397 58.913043478260875,719.1704137393451 77.82608695652175,719.1704137393451 C 96.73913043478262,719.1704137393451 96.73913043478262,716.5018757697636 115.65217391304348,716.5018757697636 C 134.56521739130434,716.5018757697636 134.56521739130434,715.6513639362287 153.47826086956522,715.6513639362287 C 172.3913043478261,715.6513639362287 172.3913043478261,715.4305863919113 191.30434782608697,715.4305863919113 C 210.21739130434784,715.4305863919113 210.21739130434784,715.0957021780388 229.13043478260872,715.0957021780388 C 248.04347826086956,715.0957021780388 248.04347826086956,715.0563049389074 266.95652173913044,715.0563049389074 C 285.8695652173913,715.0563049389074 285.8695652173913,714.8877820827026 304.7826086956522,714.8877820827026 C 323.69565217391306,714.8877820827026 323.69565217391306,713.1925342899608 342.60869565217394,713.1925342899608 C 361.5217391304348,713.1925342899608 361.5217391304348,700.8407928639332 380.4347826086957,700.8407928639332 C 399.34782608695656,700.8407928639332 399.34782608695656,693.8208165184878 418.26086956521743,693.8208165184878 C 437.1739130434783,693.8208165184878 437.1739130434783,693.4568662298195 456.0869565217392,693.4568662298195 C 475,693.4568662298195 475,687.3582548638971 493.9130434782609,687.3582548638971 C 512.8260869565217,687.3582548638971 512.8260869565217,675.7629667242007 531.7391304347826,675.7629667242007 C 550.6521739130435,675.7629667242007 550.6521739130435,664.1866253799676 569.5652173913044,664.1866253799676 C 588.4782608695652,664.1866253799676 588.4782608695652,641.1599865300045 607.3913043478261,641.1599865300045 C 626.304347826087,641.1599865300045 626.304347826087,619.1384001768291 645.2173913043479,619.1384001768291 C 664.1304347826087,619.1384001768291 664.1304347826087,606.9939724907622 683.0434782608696,606.9939724907622 C 701.9565217391305,606.9939724907622 701.9565217391305,593.5814939673032 720.8695652173914,593.5814939673032 C 739.7826086956522,593.5814939673032 739.7826086956522,578.2032122446294 758.6956521739131,578.2032122446294 C 777.608695652174,578.2032122446294 777.608695652174,556.0885938269749 796.5217391304349,556.0885938269749 C 815.4347826086957,556.0885938269749 815.4347826086957,530.9721609273686 834.3478260869566,530.9721609273686 C 853.2608695652175,530.9721609273686 853.2608695652175,505.1702340448601 872.1739130434784,505.1702340448601 C 891.0869565217392,505.1702340448601 891.0869565217392,500 910.0000000000001,500" stroke="#10B981" stroke-width="4" fill="none" stroke-linecap="round" stroke-linejoin="round"/>
      <circle cx="910.0000000000001" cy="500" r="6" fill="#10B981" stroke="white" stroke-width="3"/>
    </g>
  
</svg>