<svg width="1000" height="760" viewBox="0 0 1000 760" fill="none" xmlns="http://www.w3.org/2000/svg">
  <defs>
    <linearGradient id="bg" x1="0" x2="1" y1="0" y2="1">
      <stop stop-color="#F8FAFC"/>
      <stop offset="1" stop-color="#F1F5F9"/>
    </linearGradient>
    <filter id="shadow" x="-5%" y="-5%" width="110%" height="110%">
      <feDropShadow dx="0" dy="4" stdDeviation="12" flood-color="#000" flood-opacity="0.05"/>
    </filter>
    <linearGradient id="lineGrad" x1="0" y1="0" x2="0" y2="1">
      <stop stop-color="#10B981" stop-opacity="0.2"/>
      <stop offset="1" stop-color="#10B981" stop-opacity="0"/>
    </linearGradient>
  </defs>
  <style>
    .title { font: 800 36px -apple-system, BlinkMacSystemFont, "Segoe UI", Roboto, sans-serif; fill: #0F172A; }
    .subtitle { font: 600 14px -apple-system, sans-serif; fill: #64748B; letter-spacing: 0.02em; }
    .label { font: 700 11px -apple-system, sans-serif; letter-spacing: 0.08em; text-transform: uppercase; fill: #94A3B8; }
    .total-val { font: 800 52px -apple-system, sans-serif; fill: #0F172A; }
    .stat-val { font: 700 24px -apple-system, sans-serif; fill: #1E293B; }
    .tool-name { font: 700 18px -apple-system, sans-serif; fill: #0F172A; }
    .tool-metric { font: 800 22px -apple-system, sans-serif; fill: #0F172A; }
    .tool-muted { font: 500 14px -apple-system, sans-serif; fill: #64748B; }
    .model-item { font: 600 12px -apple-system, sans-serif; fill: #475569; }
    .chart-label { font: 600 11px -apple-system, sans-serif; fill: #94A3B8; }
    .badge { font: 700 10px -apple-system, sans-serif; fill: #10B981; }
  </style>

  <rect width="1000" height="760" rx="32" fill="url(#bg)"/>
  
  <text x="40" y="75" class="title">Burn Rate</text>
  <text x="40" y="105" class="subtitle">AI Engineering &amp; Intelligence Volume Statistics / Updated 2026-04-27 20:09 UTC</text>

  <!-- Key Metrics Row -->
  <g transform="translate(40, 150)">
    <g>
      <text y="0" class="label">Total Intelligence Volume</text>
      <text y="50" class="total-val">1.2B Tokens</text>
    </g>
    <g transform="translate(420, 0)">
      <text y="0" class="label">Historical Cost</text>
      <text y="42" class="stat-val">$833.87</text>
      <text y="62" class="tool-muted">Across 16 active production days</text>
    </g>
    <g transform="translate(700, 0)">
      <text y="0" class="label">Main Architecture</text>
      <text y="42" class="stat-val" fill="#10B981">gpt-5.5</text>
      <text y="62" class="tool-muted">Dominant LLM backend</text>
    </g>
  </g>

  <g transform="translate(40, 260)">
    <text y="0" class="label">Tooling &amp; Model Efficiency Breakdown</text>
  </g>
  
      <g transform="translate(40, 280)">
        <rect width="440" height="90" rx="16" fill="white" stroke="#F1F5F9" stroke-width="2"/>
        <circle cx="24" cy="24" r="8" fill="#10A37F"/>
        <text x="44" y="29" class="tool-name">Codex</text>
        <text x="24" y="55" class="tool-metric">902.6M tokens</text>
        <text x="24" y="78" class="tool-muted">spent $585.85</text>
        <g transform="translate(240, 20)">
          
            <text x="0" y="0" class="model-item">gpt-5.5</text>
            <text x="160" y="0" class="model-item" text-anchor="end">732.9M</text>
          
            <text x="0" y="20" class="model-item">gpt-5.4</text>
            <text x="160" y="20" class="model-item" text-anchor="end">113.3M</text>
          
            <text x="0" y="40" class="model-item">gpt-5.3-codex</text>
            <text x="160" y="40" class="model-item" text-anchor="end">56.4M</text>
          
        </g>
      </g>
    
      <g transform="translate(500, 280)">
        <rect width="440" height="90" rx="16" fill="white" stroke="#F1F5F9" stroke-width="2"/>
        <circle cx="24" cy="24" r="8" fill="#6E56CF"/>
        <text x="44" y="29" class="tool-name">Claude Code</text>
        <text x="24" y="55" class="tool-metric">267.6M tokens</text>
        <text x="24" y="78" class="tool-muted">spent $248.02</text>
        <g transform="translate(240, 20)">
          
            <text x="0" y="0" class="model-item">claude-opus-4-7</text>
            <text x="160" y="0" class="model-item" text-anchor="end">267.6M</text>
          
        </g>
      </g>
    

  <g transform="translate(40, 470)">
    <text y="0" class="label">Intelligence Throughput &amp; Growth Curve (Tokens)</text>
    <g transform="translate(920, 0)" text-anchor="end">
      <text x="0" y="0" class="badge">● CUMULATIVE VOLUME</text>
      <text x="-150" y="0" class="badge" fill="#94A3B8">■ DAILY THROUGHPUT</text>
    </g>
  </g>
  
    <g>
      <line x1="40" y1="720" x2="910" y2="720" stroke="#E2E8F0" stroke-width="1"/><text x="915" y="724" class="chart-label">0</text><line x1="40" y1="665" x2="910" y2="665" stroke="#E2E8F0" stroke-width="1"/><text x="915" y="669" class="chart-label">292.5M</text><line x1="40" y1="610" x2="910" y2="610" stroke="#E2E8F0" stroke-width="1"/><text x="915" y="614" class="chart-label">585.1M</text><line x1="40" y1="555" x2="910" y2="555" stroke="#E2E8F0" stroke-width="1"/><text x="915" y="559" class="chart-label">877.6M</text><line x1="40" y1="500" x2="910" y2="500" stroke="#E2E8F0" stroke-width="1"/><text x="915" y="504" class="chart-label">1.2B</text>
      <text x="40" y="744" text-anchor="middle" class="chart-label">02-21</text><text x="156" y="744" text-anchor="middle" class="chart-label">04-11</text><text x="272" y="744" text-anchor="middle" class="chart-label">04-14</text><text x="388" y="744" text-anchor="middle" class="chart-label">04-18</text><text x="504" y="744" text-anchor="middle" class="chart-label">04-20</text><text x="620" y="744" text-anchor="middle" class="chart-label">04-22</text><text x="736" y="744" text-anchor="middle" class="chart-label">04-24</text><text x="852" y="744" text-anchor="middle" class="chart-label">04-26</text><text x="910" y="744" text-anchor="middle" class="chart-label">04-27</text>
      <g opacity="0.6"><rect x="38" y="717.2365048822378" width="4" height="2.763495117762164" fill="#94A3B8" rx="2"/><rect x="96" y="711.6865626165937" width="4" height="8.313437383406225" fill="#94A3B8" rx="2"/><rect x="154" y="708.1229088250464" width="4" height="11.877091174953687" fill="#94A3B8" rx="2"/><rect x="212" y="716.2145539215032" width="4" height="3.7854460784967667" fill="#94A3B8" rx="2"/><rect x="270" y="717.0520992545777" width="4" height="2.94790074542226" fill="#94A3B8" rx="2"/><rect x="328" y="718.0908258156092" width="4" height="1.909174184390866" fill="#94A3B8" rx="2"/><rect x="386" y="719.4739539704448" width="4" height="0.5260460295552308" fill="#94A3B8" rx="2"/><rect x="444" y="717.7498225421315" width="4" height="2.250177457868462" fill="#94A3B8" rx="2"/><rect x="502" y="711.6158489147413" width="4" height="8.384151085258756" fill="#94A3B8" rx="2"/><rect x="560" y="664.2913475734972" width="4" height="55.70865242650278" fill="#94A3B8" rx="2"/><rect x="618" y="688.7555882467178" width="4" height="31.24441175328223" fill="#94A3B8" rx="2"/><rect x="676" y="715.1404055580948" width="4" height="4.859594441905243" fill="#94A3B8" rx="2"/><rect x="734" y="692.1989676605422" width="4" height="27.801032339457812" fill="#94A3B8" rx="2"/><rect x="792" y="668.3918550139159" width="4" height="51.608144986084085" fill="#94A3B8" rx="2"/><rect x="850" y="668.4761831440591" width="4" height="51.523816855940986" fill="#94A3B8" rx="2"/><rect x="908" y="632" width="4" height="88" fill="#94A3B8" rx="2"/></g>
      <path d="M 40,718.2801569947163 C 69,718.2801569947163 69,713.1063439339235 98,713.1063439339235 C 127,713.1063439339235 127,705.7147143815247 156,705.7147143815247 C 185,705.7147143815247 185,703.358866919325 214,703.358866919325 C 243,703.358866919325 243,701.5242602848865 272,701.5242602848865 C 301,701.5242602848865 301,700.3360982918406 330,700.3360982918406 C 359,700.3360982918406 359,700.0087170062459 388,700.0087170062459 C 417,700.0087170062459 417,698.608333869439 446,698.608333869439 C 475,698.608333869439 475,693.3905126015294 504,693.3905126015294 C 533,693.3905126015294 533,658.7205992755793 562,658.7205992755793 C 591,658.7205992755793 591,639.2758451804101 620,639.2758451804101 C 649,639.2758451804101 649,636.2515085511512 678,636.2515085511512 C 707,636.2515085511512 707,618.949718979907 736,618.949718979907 C 765,618.949718979907 765,586.8317294819346 794,586.8317294819346 C 823,586.8317294819346 823,554.7662210409555 852,554.7662210409555 C 881,554.7662210409555 881,500 910,500 L 910,720 L 40,720 Z" fill="url(#lineGrad)"/>
      <path d="M 40,720 C 69,720 69,720 98,720 C 127,720 127,720 156,720 C 185,720 185,720 214,720 C 243,720 243,720 272,720 C 301,720 301,720 330,720 C 359,720 359,720 388,720 C 417,720 417,720 446,720 C 475,720 475,720 504,720 C 533,720 533,689.1340012598725 562,689.1340012598725 C 591,689.1340012598725 591,669.6892471647034 620,669.6892471647034 C 649,669.6892471647034 649,669.6892471647034 678,669.6892471647034 C 707,669.6892471647034 707,669.6892471647034 736,669.6892471647034 C 765,669.6892471647034 765,669.6892471647034 794,669.6892471647034 C 823,669.6892471647034 823,669.6892471647034 852,669.6892471647034 C 881,669.6892471647034 881,669.6892471647034 910,669.6892471647034" stroke="#6E56CF" stroke-width="1.5" stroke-opacity="0.6" fill="none" stroke-linecap="round" stroke-linejoin="round" stroke-dasharray="4 2"/><path d="M 40,718.2801569947163 C 69,718.2801569947163 69,713.1063439339235 98,713.1063439339235 C 127,713.1063439339235 127,705.7147143815247 156,705.7147143815247 C 185,705.7147143815247 185,703.358866919325 214,703.358866919325 C 243,703.358866919325 243,701.5242602848865 272,701.5242602848865 C 301,701.5242602848865 301,700.3360982918406 330,700.3360982918406 C 359,700.3360982918406 359,700.0087170062459 388,700.0087170062459 C 417,700.0087170062459 417,698.608333869439 446,698.608333869439 C 475,698.608333869439 475,693.3905126015294 504,693.3905126015294 C 533,693.3905126015294 533,689.5865980157067 562,689.5865980157067 C 591,689.5865980157067 591,689.5865980157067 620,689.5865980157067 C 649,689.5865980157067 649,686.5622613864479 678,686.5622613864479 C 707,686.5622613864479 707,669.2604718152036 736,669.2604718152036 C 765,669.2604718152036 765,637.1424823172313 794,637.1424823172313 C 823,637.1424823172313 823,605.076973876252 852,605.076973876252 C 881,605.076973876252 881,550.3107528352966 910,550.3107528352966" stroke="#10A37F" stroke-width="1.5" stroke-opacity="0.6" fill="none" stroke-linecap="round" stroke-linejoin="round" stroke-dasharray="4 2"/>
      <path d="M 40,718.2801569947163 C 69,718.2801569947163 69,713.1063439339235 98,713.1063439339235 C 127,713.1063439339235 127,705.7147143815247 156,705.7147143815247 C 185,705.7147143815247 185,703.358866919325 214,703.358866919325 C 243,703.358866919325 243,701.5242602848865 272,701.5242602848865 C 301,701.5242602848865 301,700.3360982918406 330,700.3360982918406 C 359,700.3360982918406 359,700.0087170062459 388,700.0087170062459 C 417,700.0087170062459 417,698.608333869439 446,698.608333869439 C 475,698.608333869439 475,693.3905126015294 504,693.3905126015294 C 533,693.3905126015294 533,658.7205992755793 562,658.7205992755793 C 591,658.7205992755793 591,639.2758451804101 620,639.2758451804101 C 649,639.2758451804101 649,636.2515085511512 678,636.2515085511512 C 707,636.2515085511512 707,618.949718979907 736,618.949718979907 C 765,618.949718979907 765,586.8317294819346 794,586.8317294819346 C 823,586.8317294819346 823,554.7662210409555 852,554.7662210409555 C 881,554.7662210409555 881,500 910,500" stroke="#10B981" stroke-width="4" fill="none" stroke-linecap="round" stroke-linejoin="round"/>
      <circle cx="910" cy="500" r="6" fill="#10B981" stroke="white" stroke-width="3"/>
    </g>
  
</svg>