<svg width="1000" height="760" viewBox="0 0 1000 760" fill="none" xmlns="http://www.w3.org/2000/svg">
  <defs>
    <linearGradient id="bg" x1="0" x2="1" y1="0" y2="1">
      <stop stop-color="#F8FAFC"/>
      <stop offset="1" stop-color="#F1F5F9"/>
    </linearGradient>
    <filter id="shadow" x="-5%" y="-5%" width="110%" height="110%">
      <feDropShadow dx="0" dy="4" stdDeviation="12" flood-color="#000" flood-opacity="0.05"/>
    </filter>
    <linearGradient id="lineGrad" x1="0" y1="0" x2="0" y2="1">
      <stop stop-color="#10B981" stop-opacity="0.2"/>
      <stop offset="1" stop-color="#10B981" stop-opacity="0"/>
    </linearGradient>
  </defs>
  <style>
    .title { font: 800 36px -apple-system, BlinkMacSystemFont, "Segoe UI", Roboto, sans-serif; fill: #0F172A; }
    .subtitle { font: 600 14px -apple-system, sans-serif; fill: #64748B; letter-spacing: 0.02em; }
    .label { font: 700 11px -apple-system, sans-serif; letter-spacing: 0.08em; text-transform: uppercase; fill: #94A3B8; }
    .total-val { font: 800 52px -apple-system, sans-serif; fill: #0F172A; }
    .stat-val { font: 700 24px -apple-system, sans-serif; fill: #1E293B; }
    .tool-name { font: 700 18px -apple-system, sans-serif; fill: #0F172A; }
    .tool-metric { font: 800 22px -apple-system, sans-serif; fill: #0F172A; }
    .tool-muted { font: 500 14px -apple-system, sans-serif; fill: #64748B; }
    .model-item { font: 600 12px -apple-system, sans-serif; fill: #475569; }
    .chart-label { font: 600 11px -apple-system, sans-serif; fill: #94A3B8; }
    .badge { font: 700 10px -apple-system, sans-serif; fill: #10B981; }
  </style>

  <rect width="1000" height="760" rx="32" fill="url(#bg)"/>
  
  <text x="40" y="75" class="title">Burn Rate</text>
  <text x="40" y="105" class="subtitle">AI Engineering &amp; Intelligence Volume Statistics / Updated 2026-05-15 18:30 UTC</text>

  <!-- Key Metrics Row -->
  <g transform="translate(40, 150)">
    <g transform="translate(15, 0)">
      <text y="0" class="label">Total Intelligence Volume</text>
      <text y="50" class="total-val">20.746B Tokens</text>
      <text x="5" y="78" class="badge" font-size="16">+35.12M today</text>
    </g>
    <g transform="translate(440, 0)">
      <text y="0" class="label">Historical Cost</text>
      <text y="42" class="stat-val">$13,524.75</text>
      <text y="62" class="tool-muted">Across 34 active production days</text>
    </g>
    <g transform="translate(720, 0)">
      <text y="0" class="label">Main Architecture</text>
      <text y="42" class="stat-val" fill="#10B981">gpt-5.5</text>
      <text y="62" class="tool-muted">Dominant LLM backend</text>
    </g>
  </g>

  <g transform="translate(40, 260)">
    <text y="0" class="label">Tooling &amp; Model Efficiency Breakdown</text>
  </g>
  
      <g transform="translate(40, 280)">
        <rect width="440" height="90" rx="16" fill="white" stroke="#F1F5F9" stroke-width="2"/>
        <circle cx="24" cy="24" r="8" fill="#10A37F"/>
        <text x="45" y="29" class="tool-name">Codex</text>
        <text x="45" y="55" class="tool-metric">13.336B tokens</text>
        <text x="45" y="78" class="tool-muted">spent $8,999.58</text>
        <g transform="translate(240, 20)">
          
            <text x="0" y="0" class="model-item">gpt-5.5</text>
            <text x="160" y="0" class="model-item" text-anchor="end">12.858B</text>
          
            <text x="0" y="20" class="model-item">gpt-5.4</text>
            <text x="160" y="20" class="model-item" text-anchor="end">305.79M</text>
          
            <text x="0" y="40" class="model-item">gpt-5.3-codex</text>
            <text x="160" y="40" class="model-item" text-anchor="end">92.9M</text>
          
        </g>
      </g>
    
      <g transform="translate(500, 280)">
        <rect width="440" height="90" rx="16" fill="white" stroke="#F1F5F9" stroke-width="2"/>
        <circle cx="24" cy="24" r="8" fill="#6E56CF"/>
        <text x="45" y="29" class="tool-name">Claude Code</text>
        <text x="45" y="55" class="tool-metric">7.41B tokens</text>
        <text x="45" y="78" class="tool-muted">spent $4,525.17</text>
        <g transform="translate(240, 20)">
          
            <text x="0" y="0" class="model-item">claude-opus-4-7</text>
            <text x="160" y="0" class="model-item" text-anchor="end">7.295B</text>
          
            <text x="0" y="20" class="model-item">claude-sonnet-4-6</text>
            <text x="160" y="20" class="model-item" text-anchor="end">78.29M</text>
          
            <text x="0" y="40" class="model-item">claude-haiku-4-5-...</text>
            <text x="160" y="40" class="model-item" text-anchor="end">36.24M</text>
          
        </g>
      </g>
    

  <g transform="translate(40, 470)">
    <text y="0" class="label">Intelligence Throughput &amp; Growth Curve (Tokens)</text>
    <g transform="translate(920, 0)" text-anchor="end">
      <text x="0" y="0" class="badge">● CUMULATIVE VOLUME</text>
      <text x="-150" y="0" class="badge" fill="#94A3B8">■ DAILY THROUGHPUT</text>
    </g>
  </g>
  
    <g>
      <line x1="40" y1="720" x2="910" y2="720" stroke="#E2E8F0" stroke-width="1"/><text x="925" y="724" class="chart-label">0</text><line x1="40" y1="665" x2="910" y2="665" stroke="#E2E8F0" stroke-width="1"/><text x="925" y="669" class="chart-label">5.186B</text><line x1="40" y1="610" x2="910" y2="610" stroke="#E2E8F0" stroke-width="1"/><text x="925" y="614" class="chart-label">10.373B</text><line x1="40" y1="555" x2="910" y2="555" stroke="#E2E8F0" stroke-width="1"/><text x="925" y="559" class="chart-label">15.559B</text><line x1="40" y1="500" x2="910" y2="500" stroke="#E2E8F0" stroke-width="1"/><text x="925" y="504" class="chart-label">20.746B</text>
      <text x="40" y="744" text-anchor="middle" class="chart-label">02-21</text><text x="145.45454545454544" y="744" text-anchor="middle" class="chart-label">04-14</text><text x="250.9090909090909" y="744" text-anchor="middle" class="chart-label">04-20</text><text x="356.3636363636364" y="744" text-anchor="middle" class="chart-label">04-24</text><text x="461.8181818181818" y="744" text-anchor="middle" class="chart-label">04-28</text><text x="567.2727272727273" y="744" text-anchor="middle" class="chart-label">05-02</text><text x="672.7272727272727" y="744" text-anchor="middle" class="chart-label">05-06</text><text x="778.1818181818181" y="744" text-anchor="middle" class="chart-label">05-10</text><text x="883.6363636363636" y="744" text-anchor="middle" class="chart-label">05-14</text><text x="910" y="744" text-anchor="middle" class="chart-label">05-15</text>
      <g opacity="0.6"><rect x="38" y="719.6495254334453" width="4" height="0.3504745665546334" fill="#94A3B8" rx="2"/><rect x="64.36363636363636" y="718.9456654564717" width="4" height="1.0543345435282727" fill="#94A3B8" rx="2"/><rect x="90.72727272727272" y="715.4811372511026" width="4" height="4.518862748897395" fill="#94A3B8" rx="2"/><rect x="117.0909090909091" y="718.559755834143" width="4" height="1.4402441658570047" fill="#94A3B8" rx="2"/><rect x="143.45454545454544" y="719.6261385701906" width="4" height="0.37386142980943193" fill="#94A3B8" rx="2"/><rect x="169.8181818181818" y="719.4329120227958" width="4" height="0.567087977204243" fill="#94A3B8" rx="2"/><rect x="196.1818181818182" y="719.9332852976612" width="4" height="0.06671470233877305" fill="#94A3B8" rx="2"/><rect x="222.54545454545453" y="719.7146258865635" width="4" height="0.28537411343649355" fill="#94A3B8" rx="2"/><rect x="248.9090909090909" y="717.1292924484889" width="4" height="2.8707075515110954" fill="#94A3B8" rx="2"/><rect x="275.27272727272725" y="699.0837436640101" width="4" height="20.916256335989928" fill="#94A3B8" rx="2"/><rect x="301.6363636363636" y="708.1124758323942" width="4" height="11.887524167605758" fill="#94A3B8" rx="2"/><rect x="328" y="719.3836919614183" width="4" height="0.6163080385816789" fill="#94A3B8" rx="2"/><rect x="354.3636363636364" y="709.6727016682506" width="4" height="10.327298331749397" fill="#94A3B8" rx="2"/><rect x="380.72727272727275" y="700.3647104764925" width="4" height="19.635289523507474" fill="#94A3B8" rx="2"/><rect x="407.09090909090907" y="700.396794699841" width="4" height="19.60320530015897" fill="#94A3B8" rx="2"/><rect x="433.45454545454544" y="681.0070301725071" width="4" height="38.992969827492885" fill="#94A3B8" rx="2"/><rect x="459.8181818181818" y="682.7089712129532" width="4" height="37.29102878704679" fill="#94A3B8" rx="2"/><rect x="486.1818181818182" y="699.4348056865565" width="4" height="20.565194313443556" fill="#94A3B8" rx="2"/><rect x="512.5454545454545" y="697.2875071440149" width="4" height="22.712492855985104" fill="#94A3B8" rx="2"/><rect x="538.9090909090909" y="693.9586450667824" width="4" height="26.04135493321762" fill="#94A3B8" rx="2"/><rect x="565.2727272727273" y="682.5514320902504" width="4" height="37.44856790974964" fill="#94A3B8" rx="2"/><rect x="591.6363636363636" y="677.4682038221061" width="4" height="42.53179617789387" fill="#94A3B8" rx="2"/><rect x="618" y="676.3073984450645" width="4" height="43.69260155493554" fill="#94A3B8" rx="2"/><rect x="644.3636363636364" y="688.0621392831501" width="4" height="31.937860716849908" fill="#94A3B8" rx="2"/><rect x="670.7272727272727" y="691.4972882906311" width="4" height="28.502711709368864" fill="#94A3B8" rx="2"/><rect x="697.0909090909091" y="686.1027532882252" width="4" height="33.89724671177479" fill="#94A3B8" rx="2"/><rect x="723.4545454545455" y="694.8335122837489" width="4" height="25.166487716251083" fill="#94A3B8" rx="2"/><rect x="749.8181818181818" y="682.6914724724816" width="4" height="37.30852752751841" fill="#94A3B8" rx="2"/><rect x="776.1818181818181" y="632" width="4" height="88" fill="#94A3B8" rx="2"/><rect x="802.5454545454545" y="688.9379162082669" width="4" height="31.06208379173312" fill="#94A3B8" rx="2"/><rect x="828.9090909090909" y="640.8574004540683" width="4" height="79.1425995459317" fill="#94A3B8" rx="2"/><rect x="855.2727272727273" y="685.5305524554387" width="4" height="34.46944754456122" fill="#94A3B8" rx="2"/><rect x="881.6363636363636" y="679.7822553857395" width="4" height="40.21774461426053" fill="#94A3B8" rx="2"/><rect x="908" y="718.6543837571566" width="4" height="1.345616242843481" fill="#94A3B8" rx="2"/></g>
      <path d="M 40,719.9029937890984 C 53.18181818181818,719.9029937890984 53.18181818181818,719.611169477578 66.36363636363636,719.611169477578 C 79.54545454545453,719.611169477578 79.54545454545453,718.3604146591503 92.72727272727272,718.3604146591503 C 105.9090909090909,718.3604146591503 105.9090909090909,717.9617762338966 119.0909090909091,717.9617762338966 C 132.27272727272725,717.9617762338966 132.27272727272725,717.8582968828425 145.45454545454544,717.8582968828425 C 158.63636363636363,717.8582968828425 158.63636363636363,717.7013352623255 171.8181818181818,717.7013352623255 C 185,717.7013352623255 185,717.6828696128807 198.1818181818182,717.6828696128807 C 211.36363636363637,717.6828696128807 211.36363636363637,717.6038822509561 224.54545454545453,717.6038822509561 C 237.72727272727272,717.6038822509561 237.72727272727272,716.8093125767111 250.9090909090909,716.8093125767111 C 264.09090909090907,716.8093125767111 264.09090909090907,711.020000121472 277.27272727272725,711.020000121472 C 290.45454545454544,711.020000121472 290.45454545454544,707.729708081636 303.6363636363636,707.729708081636 C 316.8181818181818,707.729708081636 316.8181818181818,707.5591230712637 330,707.5591230712637 C 343.1818181818182,707.5591230712637 343.1818181818182,704.7006786201841 356.3636363636364,704.7006786201841 C 369.54545454545456,704.7006786201841 369.54545454545456,699.2659189588641 382.72727272727275,699.2659189588641 C 395.9090909090909,699.2659189588641 395.9090909090909,693.8400397391902 409.09090909090907,693.8400397391902 C 422.27272727272725,693.8400397391902 422.27272727272725,683.0473585699199 435.45454545454544,683.0473585699199 C 448.6363636363636,683.0473585699199 448.6363636363636,672.7257496759776 461.8181818181818,672.7257496759776 C 475,672.7257496759776 475,667.0336060308276 488.1818181818182,667.0336060308276 C 501.3636363636364,667.0336060308276 501.3636363636364,660.7471216968968 514.5454545454545,660.7471216968968 C 527.7272727272727,660.7471216968968 527.7272727272727,653.5392572471401 540.9090909090909,653.5392572471401 C 554.090909090909,653.5392572471401 554.090909090909,643.1740438385752 567.2727272727273,643.1740438385752 C 580.4545454545455,643.1740438385752 580.4545454545455,631.4018675274303 593.6363636363636,631.4018675274303 C 606.8181818181818,631.4018675274303 606.8181818181818,619.3083973423023 620,619.3083973423023 C 633.1818181818182,619.3083973423023 633.1818181818182,610.4684667222323 646.3636363636364,610.4684667222323 C 659.5454545454545,610.4684667222323 659.5454545454545,602.5793348787288 672.7272727272727,602.5793348787288 C 685.909090909091,602.5793348787288 685.909090909091,593.1970750022745 699.0909090909091,593.1970750022745 C 712.2727272727273,593.1970750022745 712.2727272727273,586.2313609447536 725.4545454545455,586.2313609447536 C 738.6363636363636,586.2313609447536 738.6363636363636,575.9049086565377 751.8181818181818,575.9049086565377 C 765,575.9049086565377 765,551.5478015395995 778.1818181818181,551.5478015395995 C 791.3636363636363,551.5478015395995 791.3636363636363,542.9502731056159 804.5454545454545,542.9502731056159 C 817.7272727272727,542.9502731056159 817.7272727272727,521.0447643027386 830.9090909090909,521.0447643027386 C 844.090909090909,521.0447643027386 844.090909090909,511.50412764245954 857.2727272727273,511.50412764245954 C 870.4545454545455,511.50412764245954 870.4545454545455,500.3724468064231 883.6363636363636,500.3724468064231 C 896.8181818181818,500.3724468064231 896.8181818181818,500 910,500 L 910,720 L 40,720 Z" fill="url(#lineGrad)"/>
      <path d="M 40,720 C 53.18181818181818,720 53.18181818181818,720 66.36363636363636,720 C 79.54545454545453,720 79.54545454545453,720 92.72727272727272,720 C 105.9090909090909,720 105.9090909090909,720 119.0909090909091,720 C 132.27272727272725,720 132.27272727272725,720 145.45454545454544,720 C 158.63636363636363,720 158.63636363636363,720 171.8181818181818,720 C 185,720 185,720 198.1818181818182,720 C 211.36363636363637,720 211.36363636363637,720 224.54545454545453,720 C 237.72727272727272,720 237.72727272727272,720 250.9090909090909,720 C 264.09090909090907,720 264.09090909090907,714.7770926050713 277.27272727272725,714.7770926050713 C 290.45454545454544,714.7770926050713 290.45454545454544,711.4868005652354 303.6363636363636,711.4868005652354 C 316.8181818181818,711.4868005652354 316.8181818181818,711.4868005652354 330,711.4868005652354 C 343.1818181818182,711.4868005652354 343.1818181818182,711.4868005652354 356.3636363636364,711.4868005652354 C 369.54545454545456,711.4868005652354 369.54545454545456,711.4868005652354 382.72727272727275,711.4868005652354 C 395.9090909090909,711.4868005652354 395.9090909090909,711.4868005652354 409.09090909090907,711.4868005652354 C 422.27272727272725,711.4868005652354 422.27272727272725,711.4868005652354 435.45454545454544,711.4868005652354 C 448.6363636363636,711.4868005652354 448.6363636363636,711.4868005652354 461.8181818181818,711.4868005652354 C 475,711.4868005652354 475,711.4868005652354 488.1818181818182,711.4868005652354 C 501.3636363636364,711.4868005652354 501.3636363636364,711.4868005652354 514.5454545454545,711.4868005652354 C 527.7272727272727,711.4868005652354 527.7272727272727,711.4868005652354 540.9090909090909,711.4868005652354 C 554.090909090909,711.4868005652354 554.090909090909,711.4868005652354 567.2727272727273,711.4868005652354 C 580.4545454545455,711.4868005652354 580.4545454545455,711.4868005652354 593.6363636363636,711.4868005652354 C 606.8181818181818,711.4868005652354 606.8181818181818,711.4868005652354 620,711.4868005652354 C 633.1818181818182,711.4868005652354 633.1818181818182,711.4868005652354 646.3636363636364,711.4868005652354 C 659.5454545454545,711.4868005652354 659.5454545454545,711.4868005652354 672.7272727272727,711.4868005652354 C 685.909090909091,711.4868005652354 685.909090909091,711.4868005652354 699.0909090909091,711.4868005652354 C 712.2727272727273,711.4868005652354 712.2727272727273,711.4868005652354 725.4545454545455,711.4868005652354 C 738.6363636363636,711.4868005652354 738.6363636363636,708.990467230519 751.8181818181818,708.990467230519 C 765,708.990467230519 765,684.6333601135808 778.1818181818181,684.6333601135808 C 791.3636363636363,684.6333601135808 791.3636363636363,676.0358316795972 804.5454545454545,676.0358316795972 C 817.7272727272727,676.0358316795972 817.7272727272727,654.721499525076 830.9090909090909,654.721499525076 C 844.090909090909,654.721499525076 844.090909090909,645.180862864797 857.2727272727273,645.180862864797 C 870.4545454545455,645.180862864797 870.4545454545455,641.4221702219444 883.6363636363636,641.4221702219444 C 896.8181818181818,641.4221702219444 896.8181818181818,641.4221702219444 910,641.4221702219444" stroke="#6E56CF" stroke-width="1.5" stroke-opacity="0.6" fill="none" stroke-linecap="round" stroke-linejoin="round" stroke-dasharray="4 2"/><path d="M 40,719.9029937890984 C 53.18181818181818,719.9029937890984 53.18181818181818,719.611169477578 66.36363636363636,719.611169477578 C 79.54545454545453,719.611169477578 79.54545454545453,718.3604146591503 92.72727272727272,718.3604146591503 C 105.9090909090909,718.3604146591503 105.9090909090909,717.9617762338966 119.0909090909091,717.9617762338966 C 132.27272727272725,717.9617762338966 132.27272727272725,717.8582968828425 145.45454545454544,717.8582968828425 C 158.63636363636363,717.8582968828425 158.63636363636363,717.7013352623255 171.8181818181818,717.7013352623255 C 185,717.7013352623255 185,717.6828696128807 198.1818181818182,717.6828696128807 C 211.36363636363637,717.6828696128807 211.36363636363637,717.6038822509561 224.54545454545453,717.6038822509561 C 237.72727272727272,717.6038822509561 237.72727272727272,716.8093125767111 250.9090909090909,716.8093125767111 C 264.09090909090907,716.8093125767111 264.09090909090907,716.2429075164006 277.27272727272725,716.2429075164006 C 290.45454545454544,716.2429075164006 290.45454545454544,716.2429075164006 303.6363636363636,716.2429075164006 C 316.8181818181818,716.2429075164006 316.8181818181818,716.0723225060283 330,716.0723225060283 C 343.1818181818182,716.0723225060283 343.1818181818182,713.2138780549487 356.3636363636364,713.2138780549487 C 369.54545454545456,713.2138780549487 369.54545454545456,707.7791183936288 382.72727272727275,707.7791183936288 C 395.9090909090909,707.7791183936288 395.9090909090909,702.3532391739549 409.09090909090907,702.3532391739549 C 422.27272727272725,702.3532391739549 422.27272727272725,691.5605580046846 435.45454545454544,691.5605580046846 C 448.6363636363636,691.5605580046846 448.6363636363636,681.2389491107423 461.8181818181818,681.2389491107423 C 475,681.2389491107423 475,675.5468054655923 488.1818181818182,675.5468054655923 C 501.3636363636364,675.5468054655923 501.3636363636364,669.2603211316614 514.5454545454545,669.2603211316614 C 527.7272727272727,669.2603211316614 527.7272727272727,662.0524566819047 540.9090909090909,662.0524566819047 C 554.090909090909,662.0524566819047 554.090909090909,651.6872432733398 567.2727272727273,651.6872432733398 C 580.4545454545455,651.6872432733398 580.4545454545455,639.915066962195 593.6363636363636,639.915066962195 C 606.8181818181818,639.915066962195 606.8181818181818,627.821596777067 620,627.821596777067 C 633.1818181818182,627.821596777067 633.1818181818182,618.981666156997 646.3636363636364,618.981666156997 C 659.5454545454545,618.981666156997 659.5454545454545,611.0925343134935 672.7272727272727,611.0925343134935 C 685.909090909091,611.0925343134935 685.909090909091,601.7102744370392 699.0909090909091,601.7102744370392 C 712.2727272727273,601.7102744370392 712.2727272727273,594.7445603795182 725.4545454545455,594.7445603795182 C 738.6363636363636,594.7445603795182 738.6363636363636,586.9144414260187 751.8181818181818,586.9144414260187 C 765,586.9144414260187 765,586.9144414260187 778.1818181818181,586.9144414260187 C 791.3636363636363,586.9144414260187 791.3636363636363,586.9144414260187 804.5454545454545,586.9144414260187 C 817.7272727272727,586.9144414260187 817.7272727272727,586.3232647776626 830.9090909090909,586.3232647776626 C 844.090909090909,586.3232647776626 844.090909090909,586.3232647776626 857.2727272727273,586.3232647776626 C 870.4545454545455,586.3232647776626 870.4545454545455,578.9502765844786 883.6363636363636,578.9502765844786 C 896.8181818181818,578.9502765844786 896.8181818181818,578.5778297780556 910,578.5778297780556" stroke="#10A37F" stroke-width="1.5" stroke-opacity="0.6" fill="none" stroke-linecap="round" stroke-linejoin="round" stroke-dasharray="4 2"/>
      <path d="M 40,719.9029937890984 C 53.18181818181818,719.9029937890984 53.18181818181818,719.611169477578 66.36363636363636,719.611169477578 C 79.54545454545453,719.611169477578 79.54545454545453,718.3604146591503 92.72727272727272,718.3604146591503 C 105.9090909090909,718.3604146591503 105.9090909090909,717.9617762338966 119.0909090909091,717.9617762338966 C 132.27272727272725,717.9617762338966 132.27272727272725,717.8582968828425 145.45454545454544,717.8582968828425 C 158.63636363636363,717.8582968828425 158.63636363636363,717.7013352623255 171.8181818181818,717.7013352623255 C 185,717.7013352623255 185,717.6828696128807 198.1818181818182,717.6828696128807 C 211.36363636363637,717.6828696128807 211.36363636363637,717.6038822509561 224.54545454545453,717.6038822509561 C 237.72727272727272,717.6038822509561 237.72727272727272,716.8093125767111 250.9090909090909,716.8093125767111 C 264.09090909090907,716.8093125767111 264.09090909090907,711.020000121472 277.27272727272725,711.020000121472 C 290.45454545454544,711.020000121472 290.45454545454544,707.729708081636 303.6363636363636,707.729708081636 C 316.8181818181818,707.729708081636 316.8181818181818,707.5591230712637 330,707.5591230712637 C 343.1818181818182,707.5591230712637 343.1818181818182,704.7006786201841 356.3636363636364,704.7006786201841 C 369.54545454545456,704.7006786201841 369.54545454545456,699.2659189588641 382.72727272727275,699.2659189588641 C 395.9090909090909,699.2659189588641 395.9090909090909,693.8400397391902 409.09090909090907,693.8400397391902 C 422.27272727272725,693.8400397391902 422.27272727272725,683.0473585699199 435.45454545454544,683.0473585699199 C 448.6363636363636,683.0473585699199 448.6363636363636,672.7257496759776 461.8181818181818,672.7257496759776 C 475,672.7257496759776 475,667.0336060308276 488.1818181818182,667.0336060308276 C 501.3636363636364,667.0336060308276 501.3636363636364,660.7471216968968 514.5454545454545,660.7471216968968 C 527.7272727272727,660.7471216968968 527.7272727272727,653.5392572471401 540.9090909090909,653.5392572471401 C 554.090909090909,653.5392572471401 554.090909090909,643.1740438385752 567.2727272727273,643.1740438385752 C 580.4545454545455,643.1740438385752 580.4545454545455,631.4018675274303 593.6363636363636,631.4018675274303 C 606.8181818181818,631.4018675274303 606.8181818181818,619.3083973423023 620,619.3083973423023 C 633.1818181818182,619.3083973423023 633.1818181818182,610.4684667222323 646.3636363636364,610.4684667222323 C 659.5454545454545,610.4684667222323 659.5454545454545,602.5793348787288 672.7272727272727,602.5793348787288 C 685.909090909091,602.5793348787288 685.909090909091,593.1970750022745 699.0909090909091,593.1970750022745 C 712.2727272727273,593.1970750022745 712.2727272727273,586.2313609447536 725.4545454545455,586.2313609447536 C 738.6363636363636,586.2313609447536 738.6363636363636,575.9049086565377 751.8181818181818,575.9049086565377 C 765,575.9049086565377 765,551.5478015395995 778.1818181818181,551.5478015395995 C 791.3636363636363,551.5478015395995 791.3636363636363,542.9502731056159 804.5454545454545,542.9502731056159 C 817.7272727272727,542.9502731056159 817.7272727272727,521.0447643027386 830.9090909090909,521.0447643027386 C 844.090909090909,521.0447643027386 844.090909090909,511.50412764245954 857.2727272727273,511.50412764245954 C 870.4545454545455,511.50412764245954 870.4545454545455,500.3724468064231 883.6363636363636,500.3724468064231 C 896.8181818181818,500.3724468064231 896.8181818181818,500 910,500" stroke="#10B981" stroke-width="4" fill="none" stroke-linecap="round" stroke-linejoin="round"/>
      <circle cx="910" cy="500" r="6" fill="#10B981" stroke="white" stroke-width="3"/>
    </g>
  
</svg>