<svg width="1000" height="760" viewBox="0 0 1000 760" fill="none" xmlns="http://www.w3.org/2000/svg">
  <defs>
    <linearGradient id="bg" x1="0" x2="1" y1="0" y2="1">
      <stop stop-color="#F8FAFC"/>
      <stop offset="1" stop-color="#F1F5F9"/>
    </linearGradient>
    <filter id="shadow" x="-5%" y="-5%" width="110%" height="110%">
      <feDropShadow dx="0" dy="4" stdDeviation="12" flood-color="#000" flood-opacity="0.05"/>
    </filter>
    <linearGradient id="lineGrad" x1="0" y1="0" x2="0" y2="1">
      <stop stop-color="#10B981" stop-opacity="0.2"/>
      <stop offset="1" stop-color="#10B981" stop-opacity="0"/>
    </linearGradient>
  </defs>
  <style>
    .title { font: 800 36px -apple-system, BlinkMacSystemFont, "Segoe UI", Roboto, sans-serif; fill: #0F172A; }
    .subtitle { font: 600 14px -apple-system, sans-serif; fill: #64748B; letter-spacing: 0.02em; }
    .label { font: 700 11px -apple-system, sans-serif; letter-spacing: 0.08em; text-transform: uppercase; fill: #94A3B8; }
    .total-val { font: 800 52px -apple-system, sans-serif; fill: #0F172A; }
    .stat-val { font: 700 24px -apple-system, sans-serif; fill: #1E293B; }
    .tool-name { font: 700 18px -apple-system, sans-serif; fill: #0F172A; }
    .tool-metric { font: 800 22px -apple-system, sans-serif; fill: #0F172A; }
    .tool-muted { font: 500 14px -apple-system, sans-serif; fill: #64748B; }
    .model-item { font: 600 12px -apple-system, sans-serif; fill: #475569; }
    .chart-label { font: 600 11px -apple-system, sans-serif; fill: #94A3B8; }
    .badge { font: 700 10px -apple-system, sans-serif; fill: #10B981; }
  </style>

  <rect width="1000" height="760" rx="32" fill="url(#bg)"/>
  
  <text x="40" y="75" class="title">Burn Rate</text>
  <text x="40" y="105" class="subtitle">AI Engineering &amp; Intelligence Volume Statistics / Updated 2026-04-30 16:35 UTC</text>

  <!-- Key Metrics Row -->
  <g transform="translate(40, 150)">
    <g transform="translate(15, 0)">
      <text y="0" class="label">Total Intelligence Volume</text>
      <text y="50" class="total-val">3.424B Tokens</text>
      <text x="5" y="78" class="badge" font-size="16">+65.68M today</text>
    </g>
    <g transform="translate(440, 0)">
      <text y="0" class="label">Historical Cost</text>
      <text y="42" class="stat-val">$2,430.72</text>
      <text y="62" class="tool-muted">Across 19 active production days</text>
    </g>
    <g transform="translate(720, 0)">
      <text y="0" class="label">Main Architecture</text>
      <text y="42" class="stat-val" fill="#10B981">gpt-5.5</text>
      <text y="62" class="tool-muted">Dominant LLM backend</text>
    </g>
  </g>

  <g transform="translate(40, 260)">
    <text y="0" class="label">Tooling &amp; Model Efficiency Breakdown</text>
  </g>
  
      <g transform="translate(40, 280)">
        <rect width="440" height="90" rx="16" fill="white" stroke="#F1F5F9" stroke-width="2"/>
        <circle cx="24" cy="24" r="8" fill="#10A37F"/>
        <text x="45" y="29" class="tool-name">Codex</text>
        <text x="45" y="55" class="tool-metric">2.889B tokens</text>
        <text x="45" y="78" class="tool-muted">spent $1,934.69</text>
        <g transform="translate(240, 20)">
          
            <text x="0" y="0" class="model-item">gpt-5.5</text>
            <text x="160" y="0" class="model-item" text-anchor="end">2.623B</text>
          
            <text x="0" y="20" class="model-item">gpt-5.4</text>
            <text x="160" y="20" class="model-item" text-anchor="end">209.52M</text>
          
            <text x="0" y="40" class="model-item">gpt-5.3-codex</text>
            <text x="160" y="40" class="model-item" text-anchor="end">56.43M</text>
          
        </g>
      </g>
    
      <g transform="translate(500, 280)">
        <rect width="440" height="90" rx="16" fill="white" stroke="#F1F5F9" stroke-width="2"/>
        <circle cx="24" cy="24" r="8" fill="#6E56CF"/>
        <text x="45" y="29" class="tool-name">Claude Code</text>
        <text x="45" y="55" class="tool-metric">535.19M tokens</text>
        <text x="45" y="78" class="tool-muted">spent $496.03</text>
        <g transform="translate(240, 20)">
          
            <text x="0" y="0" class="model-item">claude-opus-4-7</text>
            <text x="160" y="0" class="model-item" text-anchor="end">535.19M</text>
          
        </g>
      </g>
    

  <g transform="translate(40, 470)">
    <text y="0" class="label">Intelligence Throughput &amp; Growth Curve (Tokens)</text>
    <g transform="translate(920, 0)" text-anchor="end">
      <text x="0" y="0" class="badge">● CUMULATIVE VOLUME</text>
      <text x="-150" y="0" class="badge" fill="#94A3B8">■ DAILY THROUGHPUT</text>
    </g>
  </g>
  
    <g>
      <line x1="40" y1="720" x2="910" y2="720" stroke="#E2E8F0" stroke-width="1"/><text x="925" y="724" class="chart-label">0</text><line x1="40" y1="665" x2="910" y2="665" stroke="#E2E8F0" stroke-width="1"/><text x="925" y="669" class="chart-label">855.94M</text><line x1="40" y1="610" x2="910" y2="610" stroke="#E2E8F0" stroke-width="1"/><text x="925" y="614" class="chart-label">1.712B</text><line x1="40" y1="555" x2="910" y2="555" stroke="#E2E8F0" stroke-width="1"/><text x="925" y="559" class="chart-label">2.568B</text><line x1="40" y1="500" x2="910" y2="500" stroke="#E2E8F0" stroke-width="1"/><text x="925" y="504" class="chart-label">3.424B</text>
      <text x="40" y="744" text-anchor="middle" class="chart-label">02-21</text><text x="136.66666666666669" y="744" text-anchor="middle" class="chart-label">04-11</text><text x="233.33333333333334" y="744" text-anchor="middle" class="chart-label">04-14</text><text x="330" y="744" text-anchor="middle" class="chart-label">04-18</text><text x="426.6666666666667" y="744" text-anchor="middle" class="chart-label">04-20</text><text x="523.3333333333334" y="744" text-anchor="middle" class="chart-label">04-22</text><text x="620" y="744" text-anchor="middle" class="chart-label">04-24</text><text x="716.6666666666667" y="744" text-anchor="middle" class="chart-label">04-26</text><text x="813.3333333333334" y="744" text-anchor="middle" class="chart-label">04-28</text><text x="910" y="744" text-anchor="middle" class="chart-label">04-30</text>
      <g opacity="0.6"><rect x="38" y="718.8135645222746" width="4" height="1.1864354777253479" fill="#94A3B8" rx="2"/><rect x="86.33333333333334" y="716.4308397036328" width="4" height="3.5691602963672056" fill="#94A3B8" rx="2"/><rect x="134.66666666666669" y="709.8017534016454" width="4" height="10.198246598354547" fill="#94A3B8" rx="2"/><rect x="183" y="716.7496323784485" width="4" height="3.250367621551473" fill="#94A3B8" rx="2"/><rect x="231.33333333333334" y="718.734394713889" width="4" height="1.2656052861110845" fill="#94A3B8" rx="2"/><rect x="279.6666666666667" y="718.630312238236" width="4" height="1.3696877617639671" fill="#94A3B8" rx="2"/><rect x="328" y="719.774155681199" width="4" height="0.22584431880099914" fill="#94A3B8" rx="2"/><rect x="376.33333333333337" y="719.033944243276" width="4" height="0.9660557567240619" fill="#94A3B8" rx="2"/><rect x="424.6666666666667" y="713.3412439396744" width="4" height="6.658756060325569" fill="#94A3B8" rx="2"/><rect x="473" y="672.6383389112102" width="4" height="47.36166108878977" fill="#94A3B8" rx="2"/><rect x="521.3333333333334" y="693.1720325131089" width="4" height="26.827967486891147" fill="#94A3B8" rx="2"/><rect x="569.6666666666667" y="717.9136582452506" width="4" height="2.0863417547493923" fill="#94A3B8" rx="2"/><rect x="618" y="696.5520538878769" width="4" height="23.447946112123038" fill="#94A3B8" rx="2"/><rect x="666.3333333333334" y="675.686743387" width="4" height="44.313256612999986" fill="#94A3B8" rx="2"/><rect x="714.6666666666667" y="675.7591516099992" width="4" height="44.240848390000814" fill="#94A3B8" rx="2"/><rect x="763" y="632" width="4" height="88" fill="#94A3B8" rx="2"/><rect x="811.3333333333334" y="635.840969595849" width="4" height="84.15903040415103" fill="#94A3B8" rx="2"/><rect x="859.6666666666667" y="673.5881183816105" width="4" height="46.41188161838949" fill="#94A3B8" rx="2"/><rect x="908" y="711.4808445559876" width="4" height="8.519155444012396" fill="#94A3B8" rx="2"/></g>
      <path d="M 40,719.4122036777329 C 64.16666666666667,719.4122036777329 64.16666666666667,717.6439328065612 88.33333333333334,717.6439328065612 C 112.50000000000001,717.6439328065612 112.50000000000001,712.5914103924654 136.66666666666669,712.5914103924654 C 160.83333333333334,712.5914103924654 160.83333333333334,710.9810791356599 185,710.9810791356599 C 209.16666666666669,710.9810791356599 209.16666666666669,710.354059675618 233.33333333333334,710.354059675618 C 257.5,710.354059675618 257.5,709.6754745825941 281.6666666666667,709.6754745825941 C 305.83333333333337,709.6754745825941 305.83333333333337,709.5635844187475 330,709.5635844187475 C 354.1666666666667,709.5635844187475 354.1666666666667,709.0849709319053 378.33333333333337,709.0849709319053 C 402.5,709.0849709319053 402.5,705.7860200857648 426.6666666666667,705.7860200857648 C 450.83333333333337,705.7860200857648 450.83333333333337,682.3216086389451 475,682.3216086389451 C 499.1666666666667,682.3216086389451 499.1666666666667,669.0302152856973 523.3333333333334,669.0302152856973 C 547.5,669.0302152856973 547.5,667.9965779464084 571.6666666666667,667.9965779464084 C 595.8333333333334,667.9965779464084 595.8333333333334,656.3797502737839 620,656.3797502737839 C 644.1666666666667,656.3797502737839 644.1666666666667,634.4256113814289 668.3333333333334,634.4256113814289 C 692.5,634.4256113814289 692.5,612.507345731218 716.6666666666667,612.507345731218 C 740.8333333333334,612.507345731218 740.8333333333334,568.9094617074907 765,568.9094617074907 C 789.1666666666667,568.9094617074907 789.1666666666667,527.2145111721553 813.3333333333334,527.2145111721553 C 837.5,527.2145111721553 837.5,504.22064944350177 861.6666666666667,504.22064944350177 C 885.8333333333334,504.22064944350177 885.8333333333334,500 910,500 L 910,720 L 40,720 Z" fill="url(#lineGrad)"/>
      <path d="M 40,720 C 64.16666666666667,720 64.16666666666667,720 88.33333333333334,720 C 112.50000000000001,720 112.50000000000001,720 136.66666666666669,720 C 160.83333333333334,720 160.83333333333334,720 185,720 C 209.16666666666669,720 209.16666666666669,720 233.33333333333334,720 C 257.5,720 257.5,720 281.6666666666667,720 C 305.83333333333337,720 305.83333333333337,720 330,720 C 354.1666666666667,720 354.1666666666667,720 378.33333333333337,720 C 402.5,720 402.5,720 426.6666666666667,720 C 450.83333333333337,720 450.83333333333337,698.9016549919852 475,698.9016549919852 C 499.1666666666667,698.9016549919852 499.1666666666667,685.6102616387374 523.3333333333334,685.6102616387374 C 547.5,685.6102616387374 547.5,685.6102616387374 571.6666666666667,685.6102616387374 C 595.8333333333334,685.6102616387374 595.8333333333334,685.6102616387374 620,685.6102616387374 C 644.1666666666667,685.6102616387374 644.1666666666667,685.6102616387374 668.3333333333334,685.6102616387374 C 692.5,685.6102616387374 692.5,685.6102616387374 716.6666666666667,685.6102616387374 C 740.8333333333334,685.6102616387374 740.8333333333334,685.6102616387374 765,685.6102616387374 C 789.1666666666667,685.6102616387374 789.1666666666667,685.6102616387374 813.3333333333334,685.6102616387374 C 837.5,685.6102616387374 837.5,685.6102616387374 861.6666666666667,685.6102616387374 C 885.8333333333334,685.6102616387374 885.8333333333334,685.6102616387374 910,685.6102616387374" stroke="#6E56CF" stroke-width="1.5" stroke-opacity="0.6" fill="none" stroke-linecap="round" stroke-linejoin="round" stroke-dasharray="4 2"/><path d="M 40,719.4122036777329 C 64.16666666666667,719.4122036777329 64.16666666666667,717.6439328065612 88.33333333333334,717.6439328065612 C 112.50000000000001,717.6439328065612 112.50000000000001,712.5914103924654 136.66666666666669,712.5914103924654 C 160.83333333333334,712.5914103924654 160.83333333333334,710.9810791356599 185,710.9810791356599 C 209.16666666666669,710.9810791356599 209.16666666666669,710.354059675618 233.33333333333334,710.354059675618 C 257.5,710.354059675618 257.5,709.6754745825941 281.6666666666667,709.6754745825941 C 305.83333333333337,709.6754745825941 305.83333333333337,709.5635844187475 330,709.5635844187475 C 354.1666666666667,709.5635844187475 354.1666666666667,709.0849709319053 378.33333333333337,709.0849709319053 C 402.5,709.0849709319053 402.5,705.7860200857648 426.6666666666667,705.7860200857648 C 450.83333333333337,705.7860200857648 450.83333333333337,703.4199536469598 475,703.4199536469598 C 499.1666666666667,703.4199536469598 499.1666666666667,703.4199536469598 523.3333333333334,703.4199536469598 C 547.5,703.4199536469598 547.5,702.3863163076709 571.6666666666667,702.3863163076709 C 595.8333333333334,702.3863163076709 595.8333333333334,690.7694886350465 620,690.7694886350465 C 644.1666666666667,690.7694886350465 644.1666666666667,668.8153497426915 668.3333333333334,668.8153497426915 C 692.5,668.8153497426915 692.5,646.8970840924806 716.6666666666667,646.8970840924806 C 740.8333333333334,646.8970840924806 740.8333333333334,603.2992000687533 765,603.2992000687533 C 789.1666666666667,603.2992000687533 789.1666666666667,561.6042495334178 813.3333333333334,561.6042495334178 C 837.5,561.6042495334178 837.5,538.6103878047644 861.6666666666667,538.6103878047644 C 885.8333333333334,538.6103878047644 885.8333333333334,534.3897383612625 910,534.3897383612625" stroke="#10A37F" stroke-width="1.5" stroke-opacity="0.6" fill="none" stroke-linecap="round" stroke-linejoin="round" stroke-dasharray="4 2"/>
      <path d="M 40,719.4122036777329 C 64.16666666666667,719.4122036777329 64.16666666666667,717.6439328065612 88.33333333333334,717.6439328065612 C 112.50000000000001,717.6439328065612 112.50000000000001,712.5914103924654 136.66666666666669,712.5914103924654 C 160.83333333333334,712.5914103924654 160.83333333333334,710.9810791356599 185,710.9810791356599 C 209.16666666666669,710.9810791356599 209.16666666666669,710.354059675618 233.33333333333334,710.354059675618 C 257.5,710.354059675618 257.5,709.6754745825941 281.6666666666667,709.6754745825941 C 305.83333333333337,709.6754745825941 305.83333333333337,709.5635844187475 330,709.5635844187475 C 354.1666666666667,709.5635844187475 354.1666666666667,709.0849709319053 378.33333333333337,709.0849709319053 C 402.5,709.0849709319053 402.5,705.7860200857648 426.6666666666667,705.7860200857648 C 450.83333333333337,705.7860200857648 450.83333333333337,682.3216086389451 475,682.3216086389451 C 499.1666666666667,682.3216086389451 499.1666666666667,669.0302152856973 523.3333333333334,669.0302152856973 C 547.5,669.0302152856973 547.5,667.9965779464084 571.6666666666667,667.9965779464084 C 595.8333333333334,667.9965779464084 595.8333333333334,656.3797502737839 620,656.3797502737839 C 644.1666666666667,656.3797502737839 644.1666666666667,634.4256113814289 668.3333333333334,634.4256113814289 C 692.5,634.4256113814289 692.5,612.507345731218 716.6666666666667,612.507345731218 C 740.8333333333334,612.507345731218 740.8333333333334,568.9094617074907 765,568.9094617074907 C 789.1666666666667,568.9094617074907 789.1666666666667,527.2145111721553 813.3333333333334,527.2145111721553 C 837.5,527.2145111721553 837.5,504.22064944350177 861.6666666666667,504.22064944350177 C 885.8333333333334,504.22064944350177 885.8333333333334,500 910,500" stroke="#10B981" stroke-width="4" fill="none" stroke-linecap="round" stroke-linejoin="round"/>
      <circle cx="910" cy="500" r="6" fill="#10B981" stroke="white" stroke-width="3"/>
    </g>
  
</svg>