<svg width="1000" height="760" viewBox="0 0 1000 760" fill="none" xmlns="http://www.w3.org/2000/svg">
  <defs>
    <linearGradient id="bg" x1="0" x2="1" y1="0" y2="1">
      <stop stop-color="#F8FAFC"/>
      <stop offset="1" stop-color="#F1F5F9"/>
    </linearGradient>
    <filter id="shadow" x="-5%" y="-5%" width="110%" height="110%">
      <feDropShadow dx="0" dy="4" stdDeviation="12" flood-color="#000" flood-opacity="0.05"/>
    </filter>
    <linearGradient id="lineGrad" x1="0" y1="0" x2="0" y2="1">
      <stop stop-color="#10B981" stop-opacity="0.2"/>
      <stop offset="1" stop-color="#10B981" stop-opacity="0"/>
    </linearGradient>
  </defs>
  <style>
    .title { font: 800 36px -apple-system, BlinkMacSystemFont, "Segoe UI", Roboto, sans-serif; fill: #0F172A; }
    .subtitle { font: 600 14px -apple-system, sans-serif; fill: #64748B; letter-spacing: 0.02em; }
    .label { font: 700 11px -apple-system, sans-serif; letter-spacing: 0.08em; text-transform: uppercase; fill: #94A3B8; }
    .total-val { font: 800 52px -apple-system, sans-serif; fill: #0F172A; }
    .stat-val { font: 700 24px -apple-system, sans-serif; fill: #1E293B; }
    .tool-name { font: 700 18px -apple-system, sans-serif; fill: #0F172A; }
    .tool-metric { font: 800 22px -apple-system, sans-serif; fill: #0F172A; }
    .tool-muted { font: 500 14px -apple-system, sans-serif; fill: #64748B; }
    .model-item { font: 600 12px -apple-system, sans-serif; fill: #475569; }
    .chart-label { font: 600 11px -apple-system, sans-serif; fill: #94A3B8; }
    .badge { font: 700 10px -apple-system, sans-serif; fill: #10B981; }
  </style>

  <rect width="1000" height="760" rx="32" fill="url(#bg)"/>
  
  <text x="40" y="75" class="title">Burn Rate</text>
  <text x="40" y="105" class="subtitle">AI Engineering &amp; Intelligence Volume Statistics / Updated 2026-04-29 06:26 UTC</text>

  <!-- Key Metrics Row -->
  <g transform="translate(40, 150)">
    <g transform="translate(15, 0)">
      <text y="0" class="label">Total Intelligence Volume</text>
      <text y="50" class="total-val">1.526B Tokens</text>
      <text x="5" y="78" class="badge" font-size="16">+307.96M today</text>
    </g>
    <g transform="translate(440, 0)">
      <text y="0" class="label">Historical Cost</text>
      <text y="42" class="stat-val">$1,080.27</text>
      <text y="62" class="tool-muted">Across 17 active production days</text>
    </g>
    <g transform="translate(720, 0)">
      <text y="0" class="label">Main Architecture</text>
      <text y="42" class="stat-val" fill="#10B981">gpt-5.5</text>
      <text y="62" class="tool-muted">Dominant LLM backend</text>
    </g>
  </g>

  <g transform="translate(40, 260)">
    <text y="0" class="label">Tooling &amp; Model Efficiency Breakdown</text>
  </g>
  
      <g transform="translate(40, 280)">
        <rect width="440" height="90" rx="16" fill="white" stroke="#F1F5F9" stroke-width="2"/>
        <circle cx="24" cy="24" r="8" fill="#10A37F"/>
        <text x="45" y="29" class="tool-name">Codex</text>
        <text x="45" y="55" class="tool-metric">1.258B tokens</text>
        <text x="45" y="78" class="tool-muted">spent $832.25</text>
        <g transform="translate(240, 20)">
          
            <text x="0" y="0" class="model-item">gpt-5.5</text>
            <text x="160" y="0" class="model-item" text-anchor="end">1.089B</text>
          
            <text x="0" y="20" class="model-item">gpt-5.4</text>
            <text x="160" y="20" class="model-item" text-anchor="end">113.26M</text>
          
            <text x="0" y="40" class="model-item">gpt-5.3-codex</text>
            <text x="160" y="40" class="model-item" text-anchor="end">56.43M</text>
          
        </g>
      </g>
    
      <g transform="translate(500, 280)">
        <rect width="440" height="90" rx="16" fill="white" stroke="#F1F5F9" stroke-width="2"/>
        <circle cx="24" cy="24" r="8" fill="#6E56CF"/>
        <text x="45" y="29" class="tool-name">Claude Code</text>
        <text x="45" y="55" class="tool-metric">267.6M tokens</text>
        <text x="45" y="78" class="tool-muted">spent $248.02</text>
        <g transform="translate(240, 20)">
          
            <text x="0" y="0" class="model-item">claude-opus-4-7</text>
            <text x="160" y="0" class="model-item" text-anchor="end">267.6M</text>
          
        </g>
      </g>
    

  <g transform="translate(40, 470)">
    <text y="0" class="label">Intelligence Throughput &amp; Growth Curve (Tokens)</text>
    <g transform="translate(920, 0)" text-anchor="end">
      <text x="0" y="0" class="badge">● CUMULATIVE VOLUME</text>
      <text x="-150" y="0" class="badge" fill="#94A3B8">■ DAILY THROUGHPUT</text>
    </g>
  </g>
  
    <g>
      <line x1="40" y1="720" x2="910" y2="720" stroke="#E2E8F0" stroke-width="1"/><text x="925" y="724" class="chart-label">0</text><line x1="40" y1="665" x2="910" y2="665" stroke="#E2E8F0" stroke-width="1"/><text x="925" y="669" class="chart-label">381.52M</text><line x1="40" y1="610" x2="910" y2="610" stroke="#E2E8F0" stroke-width="1"/><text x="925" y="614" class="chart-label">763.03M</text><line x1="40" y1="555" x2="910" y2="555" stroke="#E2E8F0" stroke-width="1"/><text x="925" y="559" class="chart-label">1.145B</text><line x1="40" y1="500" x2="910" y2="500" stroke="#E2E8F0" stroke-width="1"/><text x="925" y="504" class="chart-label">1.526B</text>
      <text x="40" y="744" text-anchor="middle" class="chart-label">02-21</text><text x="148.75" y="744" text-anchor="middle" class="chart-label">04-11</text><text x="257.5" y="744" text-anchor="middle" class="chart-label">04-14</text><text x="366.25" y="744" text-anchor="middle" class="chart-label">04-18</text><text x="475" y="744" text-anchor="middle" class="chart-label">04-20</text><text x="583.75" y="744" text-anchor="middle" class="chart-label">04-22</text><text x="692.5" y="744" text-anchor="middle" class="chart-label">04-24</text><text x="801.25" y="744" text-anchor="middle" class="chart-label">04-26</text><text x="910" y="744" text-anchor="middle" class="chart-label">04-28</text>
      <g opacity="0.6"><rect x="38" y="717.6271290445493" width="4" height="2.3728709554506957" fill="#94A3B8" rx="2"/><rect x="92.375" y="712.8616794072656" width="4" height="7.138320592734411" fill="#94A3B8" rx="2"/><rect x="146.75" y="709.8017534016454" width="4" height="10.198246598354547" fill="#94A3B8" rx="2"/><rect x="201.125" y="716.7496323784485" width="4" height="3.250367621551473" fill="#94A3B8" rx="2"/><rect x="255.5" y="717.4687894277778" width="4" height="2.531210572222169" fill="#94A3B8" rx="2"/><rect x="309.875" y="718.3606904380183" width="4" height="1.6393095619817353" fill="#94A3B8" rx="2"/><rect x="364.25" y="719.548311362398" width="4" height="0.4516886376019983" fill="#94A3B8" rx="2"/><rect x="418.625" y="718.0678884865519" width="4" height="1.9321115134481237" fill="#94A3B8" rx="2"/><rect x="473" y="712.8009611927843" width="4" height="7.199038807215698" fill="#94A3B8" rx="2"/><rect x="527.375" y="672.1658487975939" width="4" height="47.83415120240609" fill="#94A3B8" rx="2"/><rect x="581.75" y="693.1720325131089" width="4" height="26.827967486891147" fill="#94A3B8" rx="2"/><rect x="636.125" y="715.8273164905012" width="4" height="4.172683509498785" fill="#94A3B8" rx="2"/><rect x="690.5" y="696.1286851039328" width="4" height="23.87131489606721" fill="#94A3B8" rx="2"/><rect x="744.875" y="675.686743387" width="4" height="44.313256612999986" fill="#94A3B8" rx="2"/><rect x="799.25" y="675.7591516099992" width="4" height="44.240848390000814" fill="#94A3B8" rx="2"/><rect x="853.625" y="632" width="4" height="88" fill="#94A3B8" rx="2"/><rect x="908" y="640.1151662485911" width="4" height="79.88483375140893" fill="#94A3B8" rx="2"/></g>
      <path d="M 40,718.6812662137897 C 67.1875,718.6812662137897 67.1875,714.7141121969158 94.375,714.7141121969158 C 121.5625,714.7141121969158 121.5625,709.0463904362944 148.75,709.0463904362944 C 175.9375,709.0463904362944 175.9375,707.2399839015026 203.125,707.2399839015026 C 230.3125,707.2399839015026 230.3125,705.8332521557519 257.5,705.8332521557519 C 284.6875,705.8332521557519 284.6875,704.9221984381121 311.875,704.9221984381121 C 339.0625,704.9221984381121 339.0625,704.6711704309274 366.25,704.6711704309274 C 393.4375,704.6711704309274 393.4375,703.5973907019215 420.625,703.5973907019215 C 447.8125,703.5973907019215 447.8125,699.5964922622037 475,699.5964922622037 C 502.1875,699.5964922622037 502.1875,673.0124459699249 529.375,673.0124459699249 C 556.5625,673.0124459699249 556.5625,658.1026814675416 583.75,658.1026814675416 C 610.9375,658.1026814675416 610.9375,655.7836936985277 638.125,655.7836936985277 C 665.3125,655.7836936985277 665.3125,642.5171022716332 692.5,642.5171022716332 C 719.6875,642.5171022716332 719.6875,617.8898091024306 746.875,617.8898091024306 C 774.0625,617.8898091024306 774.0625,593.3027571312792 801.25,593.3027571312792 C 828.4375,593.3027571312792 828.4375,544.3963583572825 855.625,544.3963583572825 C 882.8125,544.3963583572825 882.8125,500 910,500 L 910,720 L 40,720 Z" fill="url(#lineGrad)"/>
      <path d="M 40,720 C 67.1875,720 67.1875,720 94.375,720 C 121.5625,720 121.5625,720 148.75,720 C 175.9375,720 175.9375,720 203.125,720 C 230.3125,720 230.3125,720 257.5,720 C 284.6875,720 284.6875,720 311.875,720 C 339.0625,720 339.0625,720 366.25,720 C 393.4375,720 393.4375,720 420.625,720 C 447.8125,720 447.8125,720 475,720 C 502.1875,720 502.1875,696.3327028928336 529.375,696.3327028928336 C 556.5625,696.3327028928336 556.5625,681.4229383904504 583.75,681.4229383904504 C 610.9375,681.4229383904504 610.9375,681.4229383904504 638.125,681.4229383904504 C 665.3125,681.4229383904504 665.3125,681.4229383904504 692.5,681.4229383904504 C 719.6875,681.4229383904504 719.6875,681.4229383904504 746.875,681.4229383904504 C 774.0625,681.4229383904504 774.0625,681.4229383904504 801.25,681.4229383904504 C 828.4375,681.4229383904504 828.4375,681.4229383904504 855.625,681.4229383904504 C 882.8125,681.4229383904504 882.8125,681.4229383904504 910,681.4229383904504" stroke="#6E56CF" stroke-width="1.5" stroke-opacity="0.6" fill="none" stroke-linecap="round" stroke-linejoin="round" stroke-dasharray="4 2"/><path d="M 40,718.6812662137897 C 67.1875,718.6812662137897 67.1875,714.7141121969158 94.375,714.7141121969158 C 121.5625,714.7141121969158 121.5625,709.0463904362944 148.75,709.0463904362944 C 175.9375,709.0463904362944 175.9375,707.2399839015026 203.125,707.2399839015026 C 230.3125,707.2399839015026 230.3125,705.8332521557519 257.5,705.8332521557519 C 284.6875,705.8332521557519 284.6875,704.9221984381121 311.875,704.9221984381121 C 339.0625,704.9221984381121 339.0625,704.6711704309274 366.25,704.6711704309274 C 393.4375,704.6711704309274 393.4375,703.5973907019215 420.625,703.5973907019215 C 447.8125,703.5973907019215 447.8125,699.5964922622037 475,699.5964922622037 C 502.1875,699.5964922622037 502.1875,696.6797430770912 529.375,696.6797430770912 C 556.5625,696.6797430770912 556.5625,696.6797430770912 583.75,696.6797430770912 C 610.9375,696.6797430770912 610.9375,694.3607553080773 638.125,694.3607553080773 C 665.3125,694.3607553080773 665.3125,681.0941638811828 692.5,681.0941638811828 C 719.6875,681.0941638811828 719.6875,656.4668707119802 746.875,656.4668707119802 C 774.0625,656.4668707119802 774.0625,631.8798187408288 801.25,631.8798187408288 C 828.4375,631.8798187408288 828.4375,582.9734199668319 855.625,582.9734199668319 C 882.8125,582.9734199668319 882.8125,538.5770616095496 910,538.5770616095496" stroke="#10A37F" stroke-width="1.5" stroke-opacity="0.6" fill="none" stroke-linecap="round" stroke-linejoin="round" stroke-dasharray="4 2"/>
      <path d="M 40,718.6812662137897 C 67.1875,718.6812662137897 67.1875,714.7141121969158 94.375,714.7141121969158 C 121.5625,714.7141121969158 121.5625,709.0463904362944 148.75,709.0463904362944 C 175.9375,709.0463904362944 175.9375,707.2399839015026 203.125,707.2399839015026 C 230.3125,707.2399839015026 230.3125,705.8332521557519 257.5,705.8332521557519 C 284.6875,705.8332521557519 284.6875,704.9221984381121 311.875,704.9221984381121 C 339.0625,704.9221984381121 339.0625,704.6711704309274 366.25,704.6711704309274 C 393.4375,704.6711704309274 393.4375,703.5973907019215 420.625,703.5973907019215 C 447.8125,703.5973907019215 447.8125,699.5964922622037 475,699.5964922622037 C 502.1875,699.5964922622037 502.1875,673.0124459699249 529.375,673.0124459699249 C 556.5625,673.0124459699249 556.5625,658.1026814675416 583.75,658.1026814675416 C 610.9375,658.1026814675416 610.9375,655.7836936985277 638.125,655.7836936985277 C 665.3125,655.7836936985277 665.3125,642.5171022716332 692.5,642.5171022716332 C 719.6875,642.5171022716332 719.6875,617.8898091024306 746.875,617.8898091024306 C 774.0625,617.8898091024306 774.0625,593.3027571312792 801.25,593.3027571312792 C 828.4375,593.3027571312792 828.4375,544.3963583572825 855.625,544.3963583572825 C 882.8125,544.3963583572825 882.8125,500 910,500" stroke="#10B981" stroke-width="4" fill="none" stroke-linecap="round" stroke-linejoin="round"/>
      <circle cx="910" cy="500" r="6" fill="#10B981" stroke="white" stroke-width="3"/>
    </g>
  
</svg>