<svg width="1000" height="760" viewBox="0 0 1000 760" fill="none" xmlns="http://www.w3.org/2000/svg">
  <defs>
    <linearGradient id="bg" x1="0" x2="1" y1="0" y2="1">
      <stop stop-color="#F8FAFC"/>
      <stop offset="1" stop-color="#F1F5F9"/>
    </linearGradient>
    <filter id="shadow" x="-5%" y="-5%" width="110%" height="110%">
      <feDropShadow dx="0" dy="4" stdDeviation="12" flood-color="#000" flood-opacity="0.05"/>
    </filter>
    <linearGradient id="lineGrad" x1="0" y1="0" x2="0" y2="1">
      <stop stop-color="#10B981" stop-opacity="0.2"/>
      <stop offset="1" stop-color="#10B981" stop-opacity="0"/>
    </linearGradient>
  </defs>
  <style>
    .title { font: 800 36px -apple-system, BlinkMacSystemFont, "Segoe UI", Roboto, sans-serif; fill: #0F172A; }
    .subtitle { font: 600 14px -apple-system, sans-serif; fill: #64748B; letter-spacing: 0.02em; }
    .label { font: 700 11px -apple-system, sans-serif; letter-spacing: 0.08em; text-transform: uppercase; fill: #94A3B8; }
    .total-val { font: 800 52px -apple-system, sans-serif; fill: #0F172A; }
    .stat-val { font: 700 24px -apple-system, sans-serif; fill: #1E293B; }
    .tool-name { font: 700 18px -apple-system, sans-serif; fill: #0F172A; }
    .tool-metric { font: 800 22px -apple-system, sans-serif; fill: #0F172A; }
    .tool-muted { font: 500 14px -apple-system, sans-serif; fill: #64748B; }
    .model-item { font: 600 12px -apple-system, sans-serif; fill: #475569; }
    .chart-label { font: 600 11px -apple-system, sans-serif; fill: #94A3B8; }
    .badge { font: 700 10px -apple-system, sans-serif; fill: #10B981; }
  </style>

  <rect width="1000" height="760" rx="32" fill="url(#bg)"/>
  
  <text x="40" y="75" class="title">Burn Rate</text>
  <text x="40" y="105" class="subtitle">AI Engineering &amp; Intelligence Volume Statistics / Updated 2026-04-27 08:29 UTC</text>

  <!-- Key Metrics Row -->
  <g transform="translate(40, 150)">
    <g>
      <text y="0" class="label">Total Intelligence Volume</text>
      <text y="50" class="total-val">929.3M Tokens</text>
    </g>
    <g transform="translate(420, 0)">
      <text y="0" class="label">Historical Cost</text>
      <text y="42" class="stat-val">$685.28</text>
      <text y="62" class="tool-muted">Across 16 active production days</text>
    </g>
    <g transform="translate(700, 0)">
      <text y="0" class="label">Main Architecture</text>
      <text y="42" class="stat-val" fill="#10B981">gpt-5.5</text>
      <text y="62" class="tool-muted">Dominant LLM backend</text>
    </g>
  </g>

  <g transform="translate(40, 260)">
    <text y="0" class="label">Tooling &amp; Model Efficiency Breakdown</text>
  </g>
  
      <g transform="translate(40, 280)">
        <rect width="440" height="90" rx="16" fill="white" stroke="#F1F5F9" stroke-width="2"/>
        <circle cx="24" cy="24" r="8" fill="#10A37F"/>
        <text x="44" y="29" class="tool-name">Codex</text>
        <text x="24" y="55" class="tool-metric">661.7M tokens</text>
        <text x="24" y="78" class="tool-muted">spent $437.26</text>
        <g transform="translate(240, 20)">
          
            <text x="0" y="0" class="model-item">gpt-5.5</text>
            <text x="160" y="0" class="model-item" text-anchor="end">492M</text>
          
            <text x="0" y="20" class="model-item">gpt-5.4</text>
            <text x="160" y="20" class="model-item" text-anchor="end">113.3M</text>
          
            <text x="0" y="40" class="model-item">gpt-5.3-codex</text>
            <text x="160" y="40" class="model-item" text-anchor="end">56.4M</text>
          
        </g>
      </g>
    
      <g transform="translate(500, 280)">
        <rect width="440" height="90" rx="16" fill="white" stroke="#F1F5F9" stroke-width="2"/>
        <circle cx="24" cy="24" r="8" fill="#6E56CF"/>
        <text x="44" y="29" class="tool-name">Claude Code</text>
        <text x="24" y="55" class="tool-metric">267.6M tokens</text>
        <text x="24" y="78" class="tool-muted">spent $248.02</text>
        <g transform="translate(240, 20)">
          
            <text x="0" y="0" class="model-item">claude-opus-4-7</text>
            <text x="160" y="0" class="model-item" text-anchor="end">267.6M</text>
          
        </g>
      </g>
    

  <g transform="translate(40, 470)">
    <text y="0" class="label">Intelligence Throughput &amp; Growth Curve (Tokens)</text>
    <g transform="translate(920, 0)" text-anchor="end">
      <text x="0" y="0" class="badge">● CUMULATIVE VOLUME</text>
      <text x="-150" y="0" class="badge" fill="#94A3B8">■ DAILY THROUGHPUT</text>
    </g>
  </g>
  
    <g>
      <line x1="40" y1="720" x2="910" y2="720" stroke="#E2E8F0" stroke-width="1"/><text x="915" y="724" class="chart-label">0</text><line x1="40" y1="665" x2="910" y2="665" stroke="#E2E8F0" stroke-width="1"/><text x="915" y="669" class="chart-label">232.3M</text><line x1="40" y1="610" x2="910" y2="610" stroke="#E2E8F0" stroke-width="1"/><text x="915" y="614" class="chart-label">464.7M</text><line x1="40" y1="555" x2="910" y2="555" stroke="#E2E8F0" stroke-width="1"/><text x="915" y="559" class="chart-label">697M</text><line x1="40" y1="500" x2="910" y2="500" stroke="#E2E8F0" stroke-width="1"/><text x="915" y="504" class="chart-label">929.3M</text>
      <text x="40" y="744" text-anchor="middle" class="chart-label">02-21</text><text x="156" y="744" text-anchor="middle" class="chart-label">04-11</text><text x="272" y="744" text-anchor="middle" class="chart-label">04-14</text><text x="388" y="744" text-anchor="middle" class="chart-label">04-18</text><text x="504" y="744" text-anchor="middle" class="chart-label">04-20</text><text x="620" y="744" text-anchor="middle" class="chart-label">04-22</text><text x="736" y="744" text-anchor="middle" class="chart-label">04-24</text><text x="852" y="744" text-anchor="middle" class="chart-label">04-26</text><text x="910" y="744" text-anchor="middle" class="chart-label">04-27</text>
      <g opacity="0.6"><rect x="38" y="715.6346535094542" width="4" height="4.3653464905458135" fill="#94A3B8" rx="2"/><rect x="96" y="706.86770442518" width="4" height="13.132295574819995" fill="#94A3B8" rx="2"/><rect x="154" y="701.2383897676425" width="4" height="18.761610232357544" fill="#94A3B8" rx="2"/><rect x="212" y="714.0203318443719" width="4" height="5.979668155628149" fill="#94A3B8" rx="2"/><rect x="270" y="715.3433577317381" width="4" height="4.6566422682618125" fill="#94A3B8" rx="2"/><rect x="328" y="716.9841789217922" width="4" height="3.015821078207746" fill="#94A3B8" rx="2"/><rect x="386" y="719.1690330211823" width="4" height="0.8309669788177712" fill="#94A3B8" rx="2"/><rect x="444" y="716.445514158619" width="4" height="3.5544858413810942" fill="#94A3B8" rx="2"/><rect x="502" y="706.7560017453991" width="4" height="13.24399825460089" fill="#94A3B8" rx="2"/><rect x="560" y="632" width="4" height="88" fill="#94A3B8" rx="2"/><rect x="618" y="670.6448618925705" width="4" height="49.35513810742957" fill="#94A3B8" rx="2"/><rect x="676" y="712.3235567140696" width="4" height="7.676443285930468" fill="#94A3B8" rx="2"/><rect x="734" y="676.084185502423" width="4" height="43.915814497576974" fill="#94A3B8" rx="2"/><rect x="792" y="638.4773538586832" width="4" height="81.52264614131687" fill="#94A3B8" rx="2"/><rect x="850" y="638.6105625278819" width="4" height="81.38943747211806" fill="#94A3B8" rx="2"/><rect x="908" y="695.9154760465447" width="4" height="24.08452395345534" fill="#94A3B8" rx="2"/></g>
      <path d="M 40,717.8344778785872 C 69,717.8344778785872 69,711.3199259103086 98,711.3199259103086 C 127,711.3199259103086 127,702.0128337746705 156,702.0128337746705 C 185,702.0128337746705 185,699.0464933712765 214,699.0464933712765 C 243,699.0464933712765 243,696.7364678405961 272,696.7364678405961 C 301,696.7364678405961 301,695.240406239707 330,695.240406239707 C 359,695.240406239707 359,694.8281875581681 388,694.8281875581681 C 417,694.8281875581681 417,693.0649099497515 446,693.0649099497515 C 475,693.0649099497515 475,686.4949455131589 504,686.4949455131589 C 533,686.4949455131589 533,642.8406910119323 562,642.8406910119323 C 591,642.8406910119323 591,618.3570346496037 620,618.3570346496037 C 649,618.3570346496037 649,614.5489731851919 678,614.5489731851919 C 707,614.5489731851919 707,592.7636079271706 736,592.7636079271706 C 765,592.7636079271706 765,552.322581310506 794,552.322581310506 C 823,552.322581310506 823,511.94763566142075 852,511.94763566142075 C 881,511.94763566142075 881,500 910,500 L 910,720 L 40,720 Z" fill="url(#lineGrad)"/>
      <path d="M 40,720 C 69,720 69,720 98,720 C 127,720 127,720 156,720 C 185,720 185,720 214,720 C 243,720 243,720 272,720 C 301,720 301,720 330,720 C 359,720 359,720 388,720 C 417,720 417,720 446,720 C 475,720 475,720 504,720 C 533,720 533,681.1354042980107 562,681.1354042980107 C 591,681.1354042980107 591,656.6517479356821 620,656.6517479356821 C 649,656.6517479356821 649,656.6517479356821 678,656.6517479356821 C 707,656.6517479356821 707,656.6517479356821 736,656.6517479356821 C 765,656.6517479356821 765,656.6517479356821 794,656.6517479356821 C 823,656.6517479356821 823,656.6517479356821 852,656.6517479356821 C 881,656.6517479356821 881,656.6517479356821 910,656.6517479356821" stroke="#6E56CF" stroke-width="1.5" stroke-opacity="0.6" fill="none" stroke-linecap="round" stroke-linejoin="round" stroke-dasharray="4 2"/><path d="M 40,717.8344778785872 C 69,717.8344778785872 69,711.3199259103086 98,711.3199259103086 C 127,711.3199259103086 127,702.0128337746705 156,702.0128337746705 C 185,702.0128337746705 185,699.0464933712765 214,699.0464933712765 C 243,699.0464933712765 243,696.7364678405961 272,696.7364678405961 C 301,696.7364678405961 301,695.240406239707 330,695.240406239707 C 359,695.240406239707 359,694.8281875581681 388,694.8281875581681 C 417,694.8281875581681 417,693.0649099497515 446,693.0649099497515 C 475,693.0649099497515 475,686.4949455131589 504,686.4949455131589 C 533,686.4949455131589 533,681.7052867139217 562,681.7052867139217 C 591,681.7052867139217 591,681.7052867139217 620,681.7052867139217 C 649,681.7052867139217 649,677.8972252495098 678,677.8972252495098 C 707,677.8972252495098 707,656.1118599914885 736,656.1118599914885 C 765,656.1118599914885 765,615.6708333748239 794,615.6708333748239 C 823,615.6708333748239 823,575.2958877257387 852,575.2958877257387 C 881,575.2958877257387 881,563.3482520643179 910,563.3482520643179" stroke="#10A37F" stroke-width="1.5" stroke-opacity="0.6" fill="none" stroke-linecap="round" stroke-linejoin="round" stroke-dasharray="4 2"/>
      <path d="M 40,717.8344778785872 C 69,717.8344778785872 69,711.3199259103086 98,711.3199259103086 C 127,711.3199259103086 127,702.0128337746705 156,702.0128337746705 C 185,702.0128337746705 185,699.0464933712765 214,699.0464933712765 C 243,699.0464933712765 243,696.7364678405961 272,696.7364678405961 C 301,696.7364678405961 301,695.240406239707 330,695.240406239707 C 359,695.240406239707 359,694.8281875581681 388,694.8281875581681 C 417,694.8281875581681 417,693.0649099497515 446,693.0649099497515 C 475,693.0649099497515 475,686.4949455131589 504,686.4949455131589 C 533,686.4949455131589 533,642.8406910119323 562,642.8406910119323 C 591,642.8406910119323 591,618.3570346496037 620,618.3570346496037 C 649,618.3570346496037 649,614.5489731851919 678,614.5489731851919 C 707,614.5489731851919 707,592.7636079271706 736,592.7636079271706 C 765,592.7636079271706 765,552.322581310506 794,552.322581310506 C 823,552.322581310506 823,511.94763566142075 852,511.94763566142075 C 881,511.94763566142075 881,500 910,500" stroke="#10B981" stroke-width="4" fill="none" stroke-linecap="round" stroke-linejoin="round"/>
      <circle cx="910" cy="500" r="6" fill="#10B981" stroke="white" stroke-width="3"/>
    </g>
  
</svg>