<svg width="1000" height="760" viewBox="0 0 1000 760" fill="none" xmlns="http://www.w3.org/2000/svg">
  <defs>
    <linearGradient id="bg" x1="0" x2="1" y1="0" y2="1">
      <stop stop-color="#F8FAFC"/>
      <stop offset="1" stop-color="#F1F5F9"/>
    </linearGradient>
    <filter id="shadow" x="-5%" y="-5%" width="110%" height="110%">
      <feDropShadow dx="0" dy="4" stdDeviation="12" flood-color="#000" flood-opacity="0.05"/>
    </filter>
    <linearGradient id="lineGrad" x1="0" y1="0" x2="0" y2="1">
      <stop stop-color="#10B981" stop-opacity="0.2"/>
      <stop offset="1" stop-color="#10B981" stop-opacity="0"/>
    </linearGradient>
  </defs>
  <style>
    .title { font: 800 36px -apple-system, BlinkMacSystemFont, "Segoe UI", Roboto, sans-serif; fill: #0F172A; }
    .subtitle { font: 600 14px -apple-system, sans-serif; fill: #64748B; letter-spacing: 0.02em; }
    .label { font: 700 11px -apple-system, sans-serif; letter-spacing: 0.08em; text-transform: uppercase; fill: #94A3B8; }
    .total-val { font: 800 52px -apple-system, sans-serif; fill: #0F172A; }
    .stat-val { font: 700 24px -apple-system, sans-serif; fill: #1E293B; }
    .tool-name { font: 700 18px -apple-system, sans-serif; fill: #0F172A; }
    .tool-metric { font: 800 22px -apple-system, sans-serif; fill: #0F172A; }
    .tool-muted { font: 500 14px -apple-system, sans-serif; fill: #64748B; }
    .model-item { font: 600 12px -apple-system, sans-serif; fill: #475569; }
    .chart-label { font: 600 11px -apple-system, sans-serif; fill: #94A3B8; }
    .badge { font: 700 10px -apple-system, sans-serif; fill: #10B981; }
  </style>

  <rect width="1000" height="760" rx="32" fill="url(#bg)"/>
  
  <text x="40" y="75" class="title">Burn Rate</text>
  <text x="40" y="105" class="subtitle">AI Engineering &amp; Intelligence Volume Statistics / Updated 2026-04-28 01:54 UTC</text>

  <!-- Key Metrics Row -->
  <g transform="translate(40, 150)">
    <g>
      <text y="0" class="label">Total Intelligence Volume</text>
      <text y="50" class="total-val">1.2B Tokens</text>
    </g>
    <g transform="translate(420, 0)">
      <text y="0" class="label">Historical Cost</text>
      <text y="42" class="stat-val">$868.18</text>
      <text y="62" class="tool-muted">Across 16 active production days</text>
    </g>
    <g transform="translate(700, 0)">
      <text y="0" class="label">Main Architecture</text>
      <text y="42" class="stat-val" fill="#10B981">gpt-5.5</text>
      <text y="62" class="tool-muted">Dominant LLM backend</text>
    </g>
  </g>

  <g transform="translate(40, 260)">
    <text y="0" class="label">Tooling &amp; Model Efficiency Breakdown</text>
  </g>
  
      <g transform="translate(40, 280)">
        <rect width="440" height="90" rx="16" fill="white" stroke="#F1F5F9" stroke-width="2"/>
        <circle cx="24" cy="24" r="8" fill="#10A37F"/>
        <text x="44" y="29" class="tool-name">Codex</text>
        <text x="24" y="55" class="tool-metric">950.5M tokens</text>
        <text x="24" y="78" class="tool-muted">spent $620.16</text>
        <g transform="translate(240, 20)">
          
            <text x="0" y="0" class="model-item">gpt-5.5</text>
            <text x="160" y="0" class="model-item" text-anchor="end">780.8M</text>
          
            <text x="0" y="20" class="model-item">gpt-5.4</text>
            <text x="160" y="20" class="model-item" text-anchor="end">113.3M</text>
          
            <text x="0" y="40" class="model-item">gpt-5.3-codex</text>
            <text x="160" y="40" class="model-item" text-anchor="end">56.4M</text>
          
        </g>
      </g>
    
      <g transform="translate(500, 280)">
        <rect width="440" height="90" rx="16" fill="white" stroke="#F1F5F9" stroke-width="2"/>
        <circle cx="24" cy="24" r="8" fill="#6E56CF"/>
        <text x="44" y="29" class="tool-name">Claude Code</text>
        <text x="24" y="55" class="tool-metric">267.6M tokens</text>
        <text x="24" y="78" class="tool-muted">spent $248.02</text>
        <g transform="translate(240, 20)">
          
            <text x="0" y="0" class="model-item">claude-opus-4-7</text>
            <text x="160" y="0" class="model-item" text-anchor="end">267.6M</text>
          
        </g>
      </g>
    

  <g transform="translate(40, 470)">
    <text y="0" class="label">Intelligence Throughput &amp; Growth Curve (Tokens)</text>
    <g transform="translate(920, 0)" text-anchor="end">
      <text x="0" y="0" class="badge">● CUMULATIVE VOLUME</text>
      <text x="-150" y="0" class="badge" fill="#94A3B8">■ DAILY THROUGHPUT</text>
    </g>
  </g>
  
    <g>
      <line x1="40" y1="720" x2="910" y2="720" stroke="#E2E8F0" stroke-width="1"/><text x="915" y="724" class="chart-label">0</text><line x1="40" y1="665" x2="910" y2="665" stroke="#E2E8F0" stroke-width="1"/><text x="915" y="669" class="chart-label">304.5M</text><line x1="40" y1="610" x2="910" y2="610" stroke="#E2E8F0" stroke-width="1"/><text x="915" y="614" class="chart-label">609.1M</text><line x1="40" y1="555" x2="910" y2="555" stroke="#E2E8F0" stroke-width="1"/><text x="915" y="559" class="chart-label">913.6M</text><line x1="40" y1="500" x2="910" y2="500" stroke="#E2E8F0" stroke-width="1"/><text x="915" y="504" class="chart-label">1.2B</text>
      <text x="40" y="744" text-anchor="middle" class="chart-label">02-21</text><text x="156" y="744" text-anchor="middle" class="chart-label">04-11</text><text x="272" y="744" text-anchor="middle" class="chart-label">04-14</text><text x="388" y="744" text-anchor="middle" class="chart-label">04-18</text><text x="504" y="744" text-anchor="middle" class="chart-label">04-20</text><text x="620" y="744" text-anchor="middle" class="chart-label">04-22</text><text x="736" y="744" text-anchor="middle" class="chart-label">04-24</text><text x="852" y="744" text-anchor="middle" class="chart-label">04-26</text><text x="910" y="744" text-anchor="middle" class="chart-label">04-27</text>
      <g opacity="0.6"><rect x="38" y="717.6271290445493" width="4" height="2.3728709554506957" fill="#94A3B8" rx="2"/><rect x="96" y="712.8616794072656" width="4" height="7.138320592734411" fill="#94A3B8" rx="2"/><rect x="154" y="709.8017534016454" width="4" height="10.198246598354547" fill="#94A3B8" rx="2"/><rect x="212" y="716.7496323784485" width="4" height="3.250367621551473" fill="#94A3B8" rx="2"/><rect x="270" y="717.4687894277778" width="4" height="2.531210572222169" fill="#94A3B8" rx="2"/><rect x="328" y="718.3606904380183" width="4" height="1.6393095619817353" fill="#94A3B8" rx="2"/><rect x="386" y="719.548311362398" width="4" height="0.4516886376019983" fill="#94A3B8" rx="2"/><rect x="444" y="718.0678884865519" width="4" height="1.9321115134481237" fill="#94A3B8" rx="2"/><rect x="502" y="712.8009611927843" width="4" height="7.199038807215698" fill="#94A3B8" rx="2"/><rect x="560" y="672.1658487975939" width="4" height="47.83415120240609" fill="#94A3B8" rx="2"/><rect x="618" y="693.1720325131089" width="4" height="26.827967486891147" fill="#94A3B8" rx="2"/><rect x="676" y="715.8273164905012" width="4" height="4.172683509498785" fill="#94A3B8" rx="2"/><rect x="734" y="696.1286851039328" width="4" height="23.87131489606721" fill="#94A3B8" rx="2"/><rect x="792" y="675.686743387" width="4" height="44.313256612999986" fill="#94A3B8" rx="2"/><rect x="850" y="675.7591516099992" width="4" height="44.240848390000814" fill="#94A3B8" rx="2"/><rect x="908" y="632" width="4" height="88" fill="#94A3B8" rx="2"/></g>
      <path d="M 40,718.3478620929938 C 69,718.3478620929938 69,713.377726647352 98,713.377726647352 C 127,713.377726647352 127,706.2770835418197 156,706.2770835418197 C 185,706.2770835418197 185,704.0139787796601 214,704.0139787796601 C 243,704.0139787796601 243,702.2515951458696 272,702.2515951458696 C 301,702.2515951458696 301,701.1102075527322 330,701.1102075527322 C 359,701.1102075527322 359,700.7957142935719 388,700.7957142935719 C 417,700.7957142935719 417,699.4504600712139 446,699.4504600712139 C 475,699.4504600712139 475,694.4380488905348 504,694.4380488905348 C 533,694.4380488905348 533,661.1329868223993 562,661.1329868223993 C 591,661.1329868223993 591,642.4537147991114 620,642.4537147991114 C 649,642.4537147991114 649,639.5484372979699 678,639.5484372979699 C 707,639.5484372979699 707,622.9277676659867 736,622.9277676659867 C 765,622.9277676659867 765,592.0741677830866 794,592.0741677830866 C 823,592.0741677830866 823,561.2709829342284 852,561.2709829342284 C 881,561.2709829342284 881,500 910,500 L 910,720 L 40,720 Z" fill="url(#lineGrad)"/>
      <path d="M 40,720 C 69,720 69,720 98,720 C 127,720 127,720 156,720 C 185,720 185,720 214,720 C 243,720 243,720 272,720 C 301,720 301,720 330,720 C 359,720 359,720 388,720 C 417,720 417,720 446,720 C 475,720 475,720 504,720 C 533,720 533,690.3491037266167 562,690.3491037266167 C 591,690.3491037266167 591,671.6698317033287 620,671.6698317033287 C 649,671.6698317033287 649,671.6698317033287 678,671.6698317033287 C 707,671.6698317033287 707,671.6698317033287 736,671.6698317033287 C 765,671.6698317033287 765,671.6698317033287 794,671.6698317033287 C 823,671.6698317033287 823,671.6698317033287 852,671.6698317033287 C 881,671.6698317033287 881,671.6698317033287 910,671.6698317033287" stroke="#6E56CF" stroke-width="1.5" stroke-opacity="0.6" fill="none" stroke-linecap="round" stroke-linejoin="round" stroke-dasharray="4 2"/><path d="M 40,718.3478620929938 C 69,718.3478620929938 69,713.377726647352 98,713.377726647352 C 127,713.377726647352 127,706.2770835418197 156,706.2770835418197 C 185,706.2770835418197 185,704.0139787796601 214,704.0139787796601 C 243,704.0139787796601 243,702.2515951458696 272,702.2515951458696 C 301,702.2515951458696 301,701.1102075527322 330,701.1102075527322 C 359,701.1102075527322 359,700.7957142935719 388,700.7957142935719 C 417,700.7957142935719 417,699.4504600712139 446,699.4504600712139 C 475,699.4504600712139 475,694.4380488905348 504,694.4380488905348 C 533,694.4380488905348 533,690.7838830957826 562,690.7838830957826 C 591,690.7838830957826 591,690.7838830957826 620,690.7838830957826 C 649,690.7838830957826 649,687.8786055946413 678,687.8786055946413 C 707,687.8786055946413 707,671.257935962658 736,671.257935962658 C 765,671.257935962658 765,640.404336079758 794,640.404336079758 C 823,640.404336079758 823,609.6011512308997 852,609.6011512308997 C 881,609.6011512308997 881,548.3301682966713 910,548.3301682966713" stroke="#10A37F" stroke-width="1.5" stroke-opacity="0.6" fill="none" stroke-linecap="round" stroke-linejoin="round" stroke-dasharray="4 2"/>
      <path d="M 40,718.3478620929938 C 69,718.3478620929938 69,713.377726647352 98,713.377726647352 C 127,713.377726647352 127,706.2770835418197 156,706.2770835418197 C 185,706.2770835418197 185,704.0139787796601 214,704.0139787796601 C 243,704.0139787796601 243,702.2515951458696 272,702.2515951458696 C 301,702.2515951458696 301,701.1102075527322 330,701.1102075527322 C 359,701.1102075527322 359,700.7957142935719 388,700.7957142935719 C 417,700.7957142935719 417,699.4504600712139 446,699.4504600712139 C 475,699.4504600712139 475,694.4380488905348 504,694.4380488905348 C 533,694.4380488905348 533,661.1329868223993 562,661.1329868223993 C 591,661.1329868223993 591,642.4537147991114 620,642.4537147991114 C 649,642.4537147991114 649,639.5484372979699 678,639.5484372979699 C 707,639.5484372979699 707,622.9277676659867 736,622.9277676659867 C 765,622.9277676659867 765,592.0741677830866 794,592.0741677830866 C 823,592.0741677830866 823,561.2709829342284 852,561.2709829342284 C 881,561.2709829342284 881,500 910,500" stroke="#10B981" stroke-width="4" fill="none" stroke-linecap="round" stroke-linejoin="round"/>
      <circle cx="910" cy="500" r="6" fill="#10B981" stroke="white" stroke-width="3"/>
    </g>
  
</svg>