<svg width="1000" height="760" viewBox="0 0 1000 760" fill="none" xmlns="http://www.w3.org/2000/svg">
  <defs>
    <linearGradient id="bg" x1="0" x2="1" y1="0" y2="1">
      <stop stop-color="#F8FAFC"/>
      <stop offset="1" stop-color="#F1F5F9"/>
    </linearGradient>
    <filter id="shadow" x="-5%" y="-5%" width="110%" height="110%">
      <feDropShadow dx="0" dy="4" stdDeviation="12" flood-color="#000" flood-opacity="0.05"/>
    </filter>
    <linearGradient id="lineGrad" x1="0" y1="0" x2="0" y2="1">
      <stop stop-color="#10B981" stop-opacity="0.2"/>
      <stop offset="1" stop-color="#10B981" stop-opacity="0"/>
    </linearGradient>
  </defs>
  <style>
    .title { font: 800 36px -apple-system, BlinkMacSystemFont, "Segoe UI", Roboto, sans-serif; fill: #0F172A; }
    .subtitle { font: 600 14px -apple-system, sans-serif; fill: #64748B; letter-spacing: 0.02em; }
    .label { font: 700 11px -apple-system, sans-serif; letter-spacing: 0.08em; text-transform: uppercase; fill: #94A3B8; }
    .total-val { font: 800 52px -apple-system, sans-serif; fill: #0F172A; }
    .stat-val { font: 700 24px -apple-system, sans-serif; fill: #1E293B; }
    .tool-name { font: 700 18px -apple-system, sans-serif; fill: #0F172A; }
    .tool-metric { font: 800 22px -apple-system, sans-serif; fill: #0F172A; }
    .tool-muted { font: 500 14px -apple-system, sans-serif; fill: #64748B; }
    .model-item { font: 600 12px -apple-system, sans-serif; fill: #475569; }
    .chart-label { font: 600 11px -apple-system, sans-serif; fill: #94A3B8; }
    .badge { font: 700 10px -apple-system, sans-serif; fill: #10B981; }
  </style>

  <rect width="1000" height="760" rx="32" fill="url(#bg)"/>
  
  <text x="40" y="75" class="title">Burn Rate</text>
  <text x="40" y="105" class="subtitle">AI Engineering &amp; Intelligence Volume Statistics / Updated 2026-04-27 08:12 UTC</text>

  <!-- Key Metrics Row -->
  <g transform="translate(40, 150)">
    <g>
      <text y="0" class="label">Total Intelligence Volume</text>
      <text y="50" class="total-val">906.9M Tokens</text>
    </g>
    <g transform="translate(420, 0)">
      <text y="0" class="label">Historical Cost</text>
      <text y="42" class="stat-val">$670.84</text>
      <text y="62" class="tool-muted">Across 16 active production days</text>
    </g>
    <g transform="translate(700, 0)">
      <text y="0" class="label">Main Architecture</text>
      <text y="42" class="stat-val" fill="#10B981">gpt-5.5</text>
      <text y="62" class="tool-muted">Dominant LLM backend</text>
    </g>
  </g>

  <g transform="translate(40, 260)">
    <text y="0" class="label">Tooling &amp; Model Efficiency Breakdown</text>
  </g>
  
      <g transform="translate(40, 280)">
        <rect width="440" height="90" rx="16" fill="white" stroke="#F1F5F9" stroke-width="2"/>
        <circle cx="24" cy="24" r="8" fill="#10A37F"/>
        <text x="44" y="29" class="tool-name">Codex</text>
        <text x="24" y="55" class="tool-metric">639.3M tokens</text>
        <text x="24" y="78" class="tool-muted">spent $422.82</text>
        <g transform="translate(240, 20)">
          
            <text x="0" y="0" class="model-item">gpt-5.5</text>
            <text x="160" y="0" class="model-item" text-anchor="end">469.6M</text>
          
            <text x="0" y="20" class="model-item">gpt-5.4</text>
            <text x="160" y="20" class="model-item" text-anchor="end">113.3M</text>
          
            <text x="0" y="40" class="model-item">gpt-5.3-codex</text>
            <text x="160" y="40" class="model-item" text-anchor="end">56.4M</text>
          
        </g>
      </g>
    
      <g transform="translate(500, 280)">
        <rect width="440" height="90" rx="16" fill="white" stroke="#F1F5F9" stroke-width="2"/>
        <circle cx="24" cy="24" r="8" fill="#6E56CF"/>
        <text x="44" y="29" class="tool-name">Claude Code</text>
        <text x="24" y="55" class="tool-metric">267.6M tokens</text>
        <text x="24" y="78" class="tool-muted">spent $248.02</text>
        <g transform="translate(240, 20)">
          
            <text x="0" y="0" class="model-item">claude-opus-4-7</text>
            <text x="160" y="0" class="model-item" text-anchor="end">267.6M</text>
          
        </g>
      </g>
    

  <g transform="translate(40, 470)">
    <text y="0" class="label">Intelligence Throughput &amp; Growth Curve (Tokens)</text>
    <g transform="translate(920, 0)" text-anchor="end">
      <text x="0" y="0" class="badge">● CUMULATIVE VOLUME</text>
      <text x="-150" y="0" class="badge" fill="#94A3B8">■ DAILY THROUGHPUT</text>
    </g>
  </g>
  
    <g>
      <line x1="40" y1="720" x2="910" y2="720" stroke="#E2E8F0" stroke-width="1"/><text x="915" y="724" class="chart-label">0</text><line x1="40" y1="665" x2="910" y2="665" stroke="#E2E8F0" stroke-width="1"/><text x="915" y="669" class="chart-label">226.7M</text><line x1="40" y1="610" x2="910" y2="610" stroke="#E2E8F0" stroke-width="1"/><text x="915" y="614" class="chart-label">453.4M</text><line x1="40" y1="555" x2="910" y2="555" stroke="#E2E8F0" stroke-width="1"/><text x="915" y="559" class="chart-label">680.2M</text><line x1="40" y1="500" x2="910" y2="500" stroke="#E2E8F0" stroke-width="1"/><text x="915" y="504" class="chart-label">906.9M</text>
      <text x="40" y="744" text-anchor="middle" class="chart-label">02-21</text><text x="156" y="744" text-anchor="middle" class="chart-label">04-11</text><text x="272" y="744" text-anchor="middle" class="chart-label">04-14</text><text x="388" y="744" text-anchor="middle" class="chart-label">04-18</text><text x="504" y="744" text-anchor="middle" class="chart-label">04-20</text><text x="620" y="744" text-anchor="middle" class="chart-label">04-22</text><text x="736" y="744" text-anchor="middle" class="chart-label">04-24</text><text x="852" y="744" text-anchor="middle" class="chart-label">04-26</text><text x="910" y="744" text-anchor="middle" class="chart-label">04-27</text>
      <g opacity="0.6"><rect x="38" y="715.6346535094542" width="4" height="4.3653464905458135" fill="#94A3B8" rx="2"/><rect x="96" y="706.86770442518" width="4" height="13.132295574819995" fill="#94A3B8" rx="2"/><rect x="154" y="701.2383897676425" width="4" height="18.761610232357544" fill="#94A3B8" rx="2"/><rect x="212" y="714.0203318443719" width="4" height="5.979668155628149" fill="#94A3B8" rx="2"/><rect x="270" y="715.3433577317381" width="4" height="4.6566422682618125" fill="#94A3B8" rx="2"/><rect x="328" y="716.9841789217922" width="4" height="3.015821078207746" fill="#94A3B8" rx="2"/><rect x="386" y="719.1690330211823" width="4" height="0.8309669788177712" fill="#94A3B8" rx="2"/><rect x="444" y="716.445514158619" width="4" height="3.5544858413810942" fill="#94A3B8" rx="2"/><rect x="502" y="706.7560017453991" width="4" height="13.24399825460089" fill="#94A3B8" rx="2"/><rect x="560" y="632" width="4" height="88" fill="#94A3B8" rx="2"/><rect x="618" y="670.6448618925705" width="4" height="49.35513810742957" fill="#94A3B8" rx="2"/><rect x="676" y="712.3235567140696" width="4" height="7.676443285930468" fill="#94A3B8" rx="2"/><rect x="734" y="676.084185502423" width="4" height="43.915814497576974" fill="#94A3B8" rx="2"/><rect x="792" y="638.4773538586832" width="4" height="81.52264614131687" fill="#94A3B8" rx="2"/><rect x="850" y="638.6105625278819" width="4" height="81.38943747211806" fill="#94A3B8" rx="2"/><rect x="908" y="706.6191548197914" width="4" height="13.380845180208553" fill="#94A3B8" rx="2"/></g>
      <path d="M 40,717.7809195093006 C 69,717.7809195093006 69,711.105247607587 98,711.105247607587 C 127,711.105247607587 127,701.5679695631299 156,701.5679695631299 C 185,701.5679695631299 185,698.5282647026454 214,698.5282647026454 C 243,698.5282647026454 243,696.1611068992396 272,696.1611068992396 C 301,696.1611068992396 301,694.6280442356951 330,694.6280442356951 C 359,694.6280442356951 359,694.2056304330099 388,694.2056304330099 C 417,694.2056304330099 417,692.3987428922022 446,692.3987428922022 C 475,692.3987428922022 475,685.6662880437059 504,685.6662880437059 C 533,685.6662880437059 533,640.9323628892037 562,640.9323628892037 C 591,640.9323628892037 591,615.8431690927505 620,615.8431690927505 C 649,615.8431690927505 649,611.9409254631415 678,611.9409254631415 C 707,611.9409254631415 707,589.6167577491232 736,589.6167577491232 C 765,589.6167577491232 765,548.1755310345477 794,548.1755310345477 C 823,548.1755310345477 823,506.80201962267535 852,506.80201962267535 C 881,506.80201962267535 881,500 910,500 L 910,720 L 40,720 Z" fill="url(#lineGrad)"/>
      <path d="M 40,720 C 69,720 69,720 98,720 C 127,720 127,720 156,720 C 185,720 185,720 214,720 C 243,720 243,720 272,720 C 301,720 301,720 330,720 C 359,720 359,720 388,720 C 417,720 417,720 446,720 C 475,720 475,720 504,720 C 533,720 533,680.1741929817189 562,680.1741929817189 C 591,680.1741929817189 591,655.0849991852657 620,655.0849991852657 C 649,655.0849991852657 649,655.0849991852657 678,655.0849991852657 C 707,655.0849991852657 707,655.0849991852657 736,655.0849991852657 C 765,655.0849991852657 765,655.0849991852657 794,655.0849991852657 C 823,655.0849991852657 823,655.0849991852657 852,655.0849991852657 C 881,655.0849991852657 881,655.0849991852657 910,655.0849991852657" stroke="#6E56CF" stroke-width="1.5" stroke-opacity="0.6" fill="none" stroke-linecap="round" stroke-linejoin="round" stroke-dasharray="4 2"/><path d="M 40,717.7809195093006 C 69,717.7809195093006 69,711.105247607587 98,711.105247607587 C 127,711.105247607587 127,701.5679695631299 156,701.5679695631299 C 185,701.5679695631299 185,698.5282647026454 214,698.5282647026454 C 243,698.5282647026454 243,696.1611068992396 272,696.1611068992396 C 301,696.1611068992396 301,694.6280442356951 330,694.6280442356951 C 359,694.6280442356951 359,694.2056304330099 388,694.2056304330099 C 417,694.2056304330099 417,692.3987428922022 446,692.3987428922022 C 475,692.3987428922022 475,685.6662880437059 504,685.6662880437059 C 533,685.6662880437059 533,680.7581699074848 562,680.7581699074848 C 591,680.7581699074848 591,680.7581699074848 620,680.7581699074848 C 649,680.7581699074848 649,676.8559262778757 678,676.8559262778757 C 707,676.8559262778757 707,654.5317585638575 736,654.5317585638575 C 765,654.5317585638575 765,613.090531849282 794,613.090531849282 C 823,613.090531849282 823,571.7170204374096 852,571.7170204374096 C 881,571.7170204374096 881,564.9150008147343 910,564.9150008147343" stroke="#10A37F" stroke-width="1.5" stroke-opacity="0.6" fill="none" stroke-linecap="round" stroke-linejoin="round" stroke-dasharray="4 2"/>
      <path d="M 40,717.7809195093006 C 69,717.7809195093006 69,711.105247607587 98,711.105247607587 C 127,711.105247607587 127,701.5679695631299 156,701.5679695631299 C 185,701.5679695631299 185,698.5282647026454 214,698.5282647026454 C 243,698.5282647026454 243,696.1611068992396 272,696.1611068992396 C 301,696.1611068992396 301,694.6280442356951 330,694.6280442356951 C 359,694.6280442356951 359,694.2056304330099 388,694.2056304330099 C 417,694.2056304330099 417,692.3987428922022 446,692.3987428922022 C 475,692.3987428922022 475,685.6662880437059 504,685.6662880437059 C 533,685.6662880437059 533,640.9323628892037 562,640.9323628892037 C 591,640.9323628892037 591,615.8431690927505 620,615.8431690927505 C 649,615.8431690927505 649,611.9409254631415 678,611.9409254631415 C 707,611.9409254631415 707,589.6167577491232 736,589.6167577491232 C 765,589.6167577491232 765,548.1755310345477 794,548.1755310345477 C 823,548.1755310345477 823,506.80201962267535 852,506.80201962267535 C 881,506.80201962267535 881,500 910,500" stroke="#10B981" stroke-width="4" fill="none" stroke-linecap="round" stroke-linejoin="round"/>
      <circle cx="910" cy="500" r="6" fill="#10B981" stroke="white" stroke-width="3"/>
    </g>
  
</svg>